<svg width="53" height="53" viewBox="0 0 53 53" fill="none" xmlns="http://www.w3.org/2000/svg">
<path d="M38.9918 43.5987C38.2138 42.2598 37.6151 40.8245 37.211 39.3297C36.363 36.2133 34.0502 31.1253 28.0372 31.6923H17.9716C11.9586 31.1249 9.6458 36.2134 8.7978 39.3297C8.39371 40.8245 7.79499 42.2598 7.017 43.5987C4.59374 47.7531 5.22359 50.8773 5.22359 50.8773H40.785C40.785 50.8773 41.4149 47.7531 38.9918 43.5987Z" fill="#FFCEC7"/>
<path d="M23.1958 30.5652L18.8988 31.7312C18.7712 31.7657 18.6551 31.8334 18.5623 31.9275C18.4695 32.0216 18.4034 32.1387 18.3708 32.2667C18.3381 32.3948 18.3401 32.5292 18.3765 32.6562C18.4128 32.7833 18.4823 32.8984 18.5778 32.9897C19.8161 34.1879 21.4728 34.8558 23.1958 34.8517C25.4803 34.8517 27.0336 33.6361 27.877 32.7253C27.9655 32.6285 28.0269 32.5101 28.055 32.382C28.0831 32.2538 28.0768 32.1206 28.0369 31.9957C27.997 31.8708 27.9248 31.7586 27.8276 31.6705C27.7304 31.5824 27.6117 31.5216 27.4835 31.4941L23.1958 30.5652Z" fill="#E88B89"/>
<path d="M12.9213 17.6531C12.4931 17.2032 11.9852 16.8366 11.4234 16.5719C10.0342 15.9359 8.42139 16.8405 8.18247 18.3831C8.0647 19.1429 8.10276 20.142 8.50333 21.4137C9.63244 24.9978 13.4853 24.1825 13.4853 24.1825L12.9213 17.6531Z" fill="#E88B89"/>
<path d="M33.088 17.6531C33.5162 17.2032 34.024 16.8366 34.5858 16.5719C35.9751 15.9359 37.5879 16.8405 37.8269 18.3831C37.9446 19.1429 37.9066 20.142 37.5059 21.4137C36.3769 24.9978 32.5239 24.1825 32.5239 24.1825L33.088 17.6531Z" fill="#E88B89"/>
<path d="M34.8576 10.4671C34.0862 7.06962 31.4537 2.68567 23.0044 2.68567C14.5551 2.68567 11.9227 7.06962 11.1512 10.4671C10.8065 12.0308 10.7889 13.6489 11.0995 15.2197C11.5371 17.5325 11.6276 19.8975 11.3678 22.2369C11.1981 23.6057 11.347 24.9951 11.8031 26.2967C13.0672 29.8098 16.0231 31.5766 18.5811 32.4636C21.4465 33.4562 24.5624 33.4562 27.4278 32.4636C29.9858 31.5766 32.9417 29.8098 34.2057 26.2967C34.6617 24.9951 34.8107 23.6057 34.641 22.2369C34.3813 19.8975 34.4717 17.5325 34.9094 15.2197C35.22 13.6489 35.2024 12.0308 34.8576 10.4671Z" fill="#FFCEC7"/>
<path d="M38.5883 8.94486C38.8752 7.82307 39.7168 5.7566 42.0914 5.04512C43.1175 4.73772 43.8894 6.00792 43.1275 6.76073C42.753 7.13067 42.1947 7.50019 41.3658 7.81596C40.4837 8.15209 39.5789 8.78724 39.0153 9.22428C38.9709 9.25866 38.9169 9.27833 38.8608 9.28056C38.8047 9.28279 38.7492 9.26746 38.7022 9.23671C38.6553 9.20597 38.619 9.16133 38.5986 9.10902C38.5781 9.05671 38.5745 8.99933 38.5883 8.94486Z" fill="#7AAEED"/>
<path d="M42.0291 10.5233C42.957 9.83057 44.9097 8.75106 47.2044 9.68874C48.196 10.0939 47.9994 11.5671 46.9332 11.6744C46.4094 11.7274 45.7427 11.6638 44.8996 11.3892C44.0021 11.0968 42.899 11.0229 42.186 11.009C42.1298 11.0078 42.0754 10.9892 42.0303 10.9557C41.9852 10.9222 41.9517 10.8755 41.9345 10.822C41.9172 10.7686 41.917 10.7111 41.934 10.6575C41.951 10.604 41.9842 10.557 42.0291 10.5233Z" fill="#7AAEED"/>
<path d="M19.6159 22.7252C19.2127 23.0333 18.8404 23.3798 18.5042 23.7598C17.2281 25.2035 18.1438 27.3842 19.9168 27.6334C22.0277 26.8926 24.3284 26.8956 26.4373 27.6418C28.2537 27.4384 29.2084 25.2214 27.9164 23.7598C27.5802 23.3798 27.2079 23.0333 26.8047 22.7252C25.7719 21.9377 24.5091 21.5111 23.2103 21.5111C21.9115 21.5111 20.6487 21.9377 19.6159 22.7252Z" fill="#383844"/>
<path d="M25.6068 25.1911C25.1942 24.8614 24.2683 24.3839 23.0046 24.3839C23.0046 24.3839 20.7513 24.2626 19.9714 25.9361C19.6827 26.5556 19.7002 27.2483 19.9171 27.6321C20.0944 27.6571 20.274 27.6628 20.4526 27.649C21.3175 27.5826 22.2604 27.5363 23.2104 27.5363C24.1604 27.5363 25.1033 27.5826 25.9683 27.649C26.1245 27.6607 26.2816 27.6577 26.4372 27.6398C26.4372 27.6398 26.9295 26.2478 25.6068 25.1911Z" fill="#F95D86"/>
<path d="M23.7743 11.5377C23.6556 11.5377 23.5334 11.5334 23.4077 11.5248C23.0992 11.5047 22.7953 11.4391 22.5059 11.3302C21.1099 10.8174 20.6533 9.51168 20.8205 8.44511C20.9005 7.85148 21.1892 7.30572 21.6349 6.90553C22.0806 6.50535 22.6542 6.27686 23.253 6.26098C23.2992 6.25893 23.3463 6.25794 23.3942 6.25801C23.5488 6.25801 23.6971 6.31944 23.8064 6.42877C23.9157 6.5381 23.9772 6.68639 23.9772 6.84101C23.9772 6.99563 23.9157 7.14392 23.8064 7.25325C23.6971 7.36259 23.5488 7.42401 23.3942 7.42401C23.3629 7.42401 23.3321 7.42465 23.3017 7.42592C22.4545 7.46143 22.0595 8.0687 21.9726 8.62531C21.8861 9.17789 22.0793 9.93123 22.9084 10.2358C23.0833 10.3019 23.2665 10.3437 23.4529 10.3598C23.4621 10.3598 23.4712 10.3604 23.4803 10.3611C26.0819 10.5443 26.2977 8.18287 26.3056 8.08206C26.3056 8.07824 26.3062 8.07432 26.3065 8.07051C26.4688 6.42454 26.1374 5.1854 25.3216 4.38754C23.9464 3.04324 21.5889 3.31142 21.5651 3.31407C21.412 3.33243 21.2579 3.28939 21.1365 3.19437C21.015 3.09935 20.9362 2.9601 20.9172 2.80709C20.8982 2.65407 20.9406 2.49976 21.035 2.37792C21.1295 2.25608 21.2685 2.17664 21.4214 2.15698C21.54 2.14203 24.3485 1.8128 26.1302 3.54812C27.2149 4.60462 27.6647 6.16282 27.467 8.17947C27.3705 9.3778 26.4704 11.5376 23.7743 11.5377Z" fill="#383844"/>
<path d="M11.3872 50.8773C11.3872 50.8722 11.3872 50.8667 11.3872 50.862C11.2951 47.3557 12.1379 45.6528 12.7798 44.6767C13.3174 43.8594 13.6179 42.9091 13.6478 41.9313C13.6675 41.2741 13.8377 40.6303 14.1451 40.0491C14.4524 39.4679 14.8889 38.9649 15.421 38.5787C15.551 38.4949 15.6423 38.363 15.675 38.2118C15.7076 38.0607 15.6789 37.9028 15.5951 37.7728C15.5113 37.6429 15.3793 37.5515 15.2282 37.5189C15.077 37.4862 14.9191 37.515 14.7892 37.5988C14.0992 38.0884 13.532 38.7311 13.1318 39.4764C12.7316 40.2218 12.5093 41.0497 12.4823 41.8953C12.4591 42.6578 12.2249 43.3991 11.8056 44.0365C11.0783 45.1421 10.1235 47.0539 10.2213 50.8777L11.3872 50.8773Z" fill="#E88B89"/>
<path d="M35.7879 50.8772C35.7879 47.8531 35.2845 45.6791 34.2037 44.036C33.7845 43.3986 33.5503 42.6574 33.527 41.8948C33.5001 41.0492 33.2778 40.2213 32.8776 39.4759C32.4774 38.7305 31.9102 38.0879 31.2203 37.5982C31.0903 37.5153 30.9329 37.4873 30.7823 37.5201C30.6317 37.553 30.5003 37.6442 30.4168 37.7737C30.3333 37.9032 30.3044 38.0606 30.3366 38.2113C30.3687 38.362 30.4592 38.4939 30.5883 38.5781C31.1205 38.9643 31.5571 39.4673 31.8645 40.0486C32.172 40.6298 32.3421 41.2738 32.3619 41.9311C32.3918 42.9088 32.6923 43.8592 33.2299 44.6765C33.8277 45.5853 34.6222 47.2168 34.6222 50.8775H35.7882L35.7879 50.8772Z" fill="#E88B89"/>
<path d="M21.2847 19.5448C21.1814 19.5448 21.0801 19.5174 20.9909 19.4654C18.5529 18.043 16.6643 18.9114 16.5851 18.949C16.4463 19.0156 16.2867 19.0246 16.1413 18.974C15.9959 18.9233 15.8764 18.8172 15.8089 18.6788C15.7415 18.5404 15.7315 18.3809 15.7812 18.2351C15.831 18.0894 15.9363 17.9692 16.0743 17.9009C16.1414 17.8678 17.2289 17.3505 18.8329 17.524C18.725 17.4321 18.6542 17.3041 18.6339 17.1639C18.6135 17.0237 18.6449 16.8809 18.7222 16.7621C18.7994 16.6433 18.9173 16.5568 19.0538 16.5186C19.1902 16.4805 19.3359 16.4933 19.4636 16.5547C21.4532 17.5103 21.8137 18.682 21.8486 18.8125C21.8714 18.8988 21.8742 18.9892 21.8565 19.0768C21.8389 19.1643 21.8015 19.2466 21.747 19.3174C21.6925 19.3881 21.6226 19.4454 21.5425 19.4848C21.4623 19.5243 21.3743 19.5448 21.285 19.5448H21.2847Z" fill="#383844"/>
<path d="M24.5869 19.5448C24.4977 19.5448 24.4096 19.5243 24.3295 19.4848C24.2493 19.4454 24.1794 19.3881 24.1249 19.3174C24.0705 19.2466 24.033 19.1643 24.0154 19.0768C23.9977 18.9892 24.0005 18.8988 24.0233 18.8125C24.0579 18.682 24.4184 17.5103 26.4083 16.5547C26.536 16.4933 26.6817 16.4805 26.8181 16.5186C26.9546 16.5568 27.0725 16.6433 27.1498 16.7621C27.227 16.8809 27.2584 17.0237 27.238 17.1639C27.2177 17.3041 27.1469 17.4321 27.039 17.524C28.6434 17.3504 29.7306 17.8679 29.7977 17.9009C29.9366 17.9687 30.043 18.089 30.0933 18.2352C30.1436 18.3814 30.1338 18.5416 30.066 18.6805C29.9982 18.8195 29.8779 18.9258 29.7317 18.9762C29.5855 19.0265 29.4253 19.0166 29.2863 18.9488C29.2001 18.9079 27.3147 18.0459 24.8811 19.4654C24.7918 19.5174 24.6903 19.5448 24.5869 19.5448Z" fill="#383844"/>
<path d="M14.0663 23.1024C14.9909 23.1024 15.7404 22.567 15.7404 21.9066C15.7404 21.2462 14.9909 20.7108 14.0663 20.7108C13.1416 20.7108 12.3921 21.2462 12.3921 21.9066C12.3921 22.567 13.1416 23.1024 14.0663 23.1024Z" fill="#FFABAB"/>
<path d="M31.3817 23.1024C32.3063 23.1024 33.0558 22.567 33.0558 21.9066C33.0558 21.2462 32.3063 20.7108 31.3817 20.7108C30.4571 20.7108 29.7075 21.2462 29.7075 21.9066C29.7075 22.567 30.4571 23.1024 31.3817 23.1024Z" fill="#FFABAB"/>
</svg>
