<svg width="92" height="92" viewBox="0 0 92 92" fill="none" xmlns="http://www.w3.org/2000/svg">
<path d="M61.9918 64.5987C61.2138 63.2598 60.6151 61.8245 60.211 60.3297C59.363 57.2133 57.0502 52.1253 51.0372 52.6923H40.9716C34.9586 52.1249 32.6458 57.2134 31.7978 60.3297C31.3937 61.8245 30.795 63.2598 30.017 64.5987C27.5937 68.7531 28.2236 71.8773 28.2236 71.8773H63.785C63.785 71.8773 64.4149 68.7531 61.9918 64.5987Z" fill="#FFCEC7"/>
<path d="M46.1958 51.5652L41.8988 52.7312C41.7712 52.7657 41.6551 52.8334 41.5623 52.9275C41.4695 53.0216 41.4034 53.1387 41.3708 53.2667C41.3381 53.3948 41.3401 53.5292 41.3765 53.6562C41.4128 53.7833 41.4823 53.8984 41.5778 53.9897C42.8161 55.1879 44.4728 55.8558 46.1958 55.8517C48.4803 55.8517 50.0336 54.6361 50.877 53.7253C50.9655 53.6285 51.0269 53.5101 51.055 53.382C51.0831 53.2538 51.0768 53.1206 51.0369 52.9957C50.997 52.8708 50.9248 52.7586 50.8276 52.6705C50.7304 52.5824 50.6117 52.5216 50.4835 52.4941L46.1958 51.5652Z" fill="#E88B89"/>
<path d="M35.9213 38.6531C35.4931 38.2032 34.9852 37.8366 34.4234 37.5719C33.0342 36.9359 31.4214 37.8405 31.1825 39.3831C31.0647 40.1429 31.1028 41.142 31.5033 42.4137C32.6324 45.9978 36.4853 45.1825 36.4853 45.1825L35.9213 38.6531Z" fill="#E88B89"/>
<path d="M56.088 38.6531C56.5162 38.2032 57.024 37.8366 57.5858 37.5719C58.9751 36.9359 60.5879 37.8405 60.8269 39.3831C60.9446 40.1429 60.9066 41.142 60.5059 42.4137C59.3769 45.9978 55.5239 45.1825 55.5239 45.1825L56.088 38.6531Z" fill="#E88B89"/>
<path d="M57.8576 31.4671C57.0862 28.0696 54.4537 23.6857 46.0044 23.6857C37.5551 23.6857 34.9227 28.0696 34.1512 31.4671C33.8065 33.0308 33.7889 34.6489 34.0995 36.2197C34.5371 38.5325 34.6276 40.8975 34.3678 43.2369C34.1981 44.6057 34.347 45.9951 34.8031 47.2967C36.0672 50.8098 39.0231 52.5766 41.5811 53.4636C44.4465 54.4562 47.5624 54.4562 50.4278 53.4636C52.9858 52.5766 55.9417 50.8098 57.2057 47.2967C57.6617 45.9951 57.8107 44.6057 57.641 43.2369C57.3813 40.8975 57.4717 38.5325 57.9094 36.2197C58.22 34.6489 58.2024 33.0308 57.8576 31.4671Z" fill="#FFCEC7"/>
<path d="M61.5883 29.9449C61.8752 28.8231 62.7168 26.7566 65.0914 26.0451C66.1175 25.7377 66.8894 27.0079 66.1275 27.7607C65.753 28.1307 65.1947 28.5002 64.3658 28.816C63.4837 29.1521 62.5789 29.7872 62.0153 30.2243C61.9709 30.2587 61.9169 30.2783 61.8608 30.2806C61.8047 30.2828 61.7492 30.2675 61.7022 30.2367C61.6553 30.206 61.619 30.1613 61.5986 30.109C61.5781 30.0567 61.5745 29.9993 61.5883 29.9449Z" fill="#7AAEED"/>
<path d="M65.0291 31.5233C65.957 30.8306 67.9097 29.7511 70.2044 30.6887C71.196 31.0939 70.9994 32.5671 69.9332 32.6744C69.4094 32.7274 68.7427 32.6638 67.8996 32.3892C67.0021 32.0968 65.899 32.0229 65.186 32.009C65.1298 32.0078 65.0754 31.9892 65.0303 31.9557C64.9852 31.9222 64.9517 31.8755 64.9345 31.822C64.9172 31.7686 64.917 31.7111 64.934 31.6575C64.951 31.604 64.9842 31.557 65.0291 31.5233Z" fill="#7AAEED"/>
<path d="M42.6159 43.7252C42.2127 44.0333 41.8404 44.3798 41.5042 44.7598C40.2281 46.2035 41.1438 48.3842 42.9168 48.6334C45.0277 47.8926 47.3284 47.8956 49.4373 48.6418C51.2537 48.4384 52.2084 46.2214 50.9164 44.7598C50.5802 44.3798 50.2079 44.0333 49.8047 43.7252C48.7719 42.9377 47.5091 42.5111 46.2103 42.5111C44.9115 42.5111 43.6487 42.9377 42.6159 43.7252Z" fill="#383844"/>
<path d="M48.6068 46.1911C48.1942 45.8614 47.2683 45.3839 46.0046 45.3839C46.0046 45.3839 43.7513 45.2626 42.9714 46.9361C42.6827 47.5556 42.7002 48.2483 42.9171 48.6321C43.0944 48.6571 43.274 48.6628 43.4526 48.649C44.3175 48.5826 45.2604 48.5363 46.2104 48.5363C47.1604 48.5363 48.1033 48.5826 48.9683 48.649C49.1245 48.6607 49.2816 48.6577 49.4372 48.6398C49.4372 48.6398 49.9295 47.2478 48.6068 46.1911Z" fill="#F95D86"/>
<path d="M46.7743 32.5377C46.6556 32.5377 46.5334 32.5334 46.4077 32.5248C46.0992 32.5047 45.7953 32.4391 45.5059 32.3302C44.1099 31.8174 43.6533 30.5117 43.8205 29.4451C43.9005 28.8515 44.1892 28.3057 44.6349 27.9055C45.0806 27.5053 45.6542 27.2769 46.253 27.261C46.2992 27.2589 46.3463 27.2579 46.3942 27.258C46.5488 27.258 46.6971 27.3194 46.8064 27.4288C46.9157 27.5381 46.9772 27.6864 46.9772 27.841C46.9772 27.9956 46.9157 28.1439 46.8064 28.2533C46.6971 28.3626 46.5488 28.424 46.3942 28.424C46.3629 28.424 46.3321 28.4246 46.3017 28.4259C45.4545 28.4614 45.0595 29.0687 44.9726 29.6253C44.8861 30.1779 45.0793 30.9312 45.9084 31.2358C46.0833 31.3019 46.2665 31.3437 46.4529 31.3598C46.4621 31.3598 46.4712 31.3604 46.4803 31.3611C49.0819 31.5443 49.2977 29.1829 49.3056 29.0821C49.3056 29.0782 49.3062 29.0743 49.3065 29.0705C49.4688 27.4245 49.1374 26.1854 48.3216 25.3875C46.9464 24.0432 44.5889 24.3114 44.5651 24.3141C44.412 24.3324 44.2579 24.2894 44.1365 24.1944C44.015 24.0994 43.9362 23.9601 43.9172 23.8071C43.8982 23.6541 43.9406 23.4998 44.035 23.3779C44.1295 23.2561 44.2685 23.1766 44.4214 23.157C44.54 23.142 47.3485 22.8128 49.1302 24.5481C50.2149 25.6046 50.6647 27.1628 50.467 29.1795C50.3705 30.3778 49.4704 32.5376 46.7743 32.5377Z" fill="#383844"/>
<path d="M34.3872 71.8773C34.3872 71.8722 34.3872 71.8667 34.3872 71.862C34.2951 68.3557 35.1379 66.6528 35.7798 65.6767C36.3174 64.8594 36.6179 63.9091 36.6478 62.9313C36.6675 62.2741 36.8377 61.6303 37.1451 61.0491C37.4524 60.4679 37.8889 59.9649 38.421 59.5787C38.551 59.4949 38.6423 59.363 38.675 59.2118C38.7076 59.0607 38.6789 58.9028 38.5951 58.7728C38.5113 58.6429 38.3793 58.5515 38.2282 58.5189C38.077 58.4862 37.9191 58.515 37.7892 58.5988C37.0992 59.0884 36.532 59.7311 36.1318 60.4764C35.7316 61.2218 35.5093 62.0497 35.4823 62.8953C35.4591 63.6578 35.2249 64.3991 34.8056 65.0365C34.0783 66.1421 33.1235 68.0539 33.2213 71.8777L34.3872 71.8773Z" fill="#E88B89"/>
<path d="M58.7879 71.8772C58.7879 68.8531 58.2845 66.6791 57.2037 65.036C56.7845 64.3986 56.5503 63.6574 56.527 62.8948C56.5001 62.0492 56.2778 61.2213 55.8776 60.4759C55.4774 59.7305 54.9102 59.0879 54.2203 58.5982C54.0903 58.5153 53.9329 58.4873 53.7823 58.5201C53.6317 58.553 53.5003 58.6442 53.4168 58.7737C53.3333 58.9032 53.3044 59.0606 53.3366 59.2113C53.3687 59.362 53.4592 59.4939 53.5883 59.5781C54.1205 59.9643 54.5571 60.4673 54.8645 61.0486C55.172 61.6298 55.3421 62.2738 55.3619 62.9311C55.3918 63.9088 55.6923 64.8592 56.2299 65.6765C56.8277 66.5853 57.6222 68.2168 57.6222 71.8775H58.7882L58.7879 71.8772Z" fill="#E88B89"/>
<path d="M44.2847 40.5448C44.1814 40.5448 44.0801 40.5174 43.9909 40.4654C41.5529 39.043 39.6643 39.9114 39.5851 39.949C39.4463 40.0156 39.2867 40.0246 39.1413 39.974C38.9959 39.9233 38.8764 39.8172 38.8089 39.6788C38.7415 39.5404 38.7315 39.3809 38.7812 39.2351C38.831 39.0894 38.9363 38.9692 39.0743 38.9009C39.1414 38.8678 40.2289 38.3505 41.8329 38.524C41.725 38.4321 41.6542 38.3041 41.6339 38.1639C41.6135 38.0237 41.6449 37.8809 41.7222 37.7621C41.7994 37.6433 41.9173 37.5568 42.0538 37.5186C42.1902 37.4805 42.3359 37.4933 42.4636 37.5547C44.4532 38.5103 44.8137 39.682 44.8486 39.8125C44.8714 39.8988 44.8742 39.9892 44.8565 40.0768C44.8389 40.1643 44.8015 40.2466 44.747 40.3174C44.6925 40.3881 44.6226 40.4454 44.5425 40.4848C44.4623 40.5243 44.3743 40.5448 44.285 40.5448H44.2847Z" fill="#383844"/>
<path d="M47.5869 40.5448C47.4977 40.5448 47.4096 40.5243 47.3295 40.4848C47.2493 40.4454 47.1794 40.3881 47.1249 40.3174C47.0705 40.2466 47.033 40.1643 47.0154 40.0768C46.9977 39.9892 47.0005 39.8988 47.0233 39.8125C47.0579 39.682 47.4184 38.5103 49.4083 37.5547C49.536 37.4933 49.6817 37.4805 49.8181 37.5186C49.9546 37.5568 50.0725 37.6433 50.1498 37.7621C50.227 37.8809 50.2584 38.0237 50.238 38.1639C50.2177 38.3041 50.1469 38.4321 50.039 38.524C51.6434 38.3504 52.7306 38.8679 52.7977 38.9009C52.9366 38.9687 53.043 39.089 53.0933 39.2352C53.1436 39.3814 53.1338 39.5416 53.066 39.6805C52.9982 39.8195 52.8779 39.9258 52.7317 39.9762C52.5855 40.0265 52.4253 40.0166 52.2863 39.9488C52.2001 39.9079 50.3147 39.0459 47.8811 40.4654C47.7918 40.5174 47.6903 40.5448 47.5869 40.5448Z" fill="#383844"/>
<path d="M37.0663 44.1024C37.9909 44.1024 38.7404 43.567 38.7404 42.9066C38.7404 42.2462 37.9909 41.7108 37.0663 41.7108C36.1416 41.7108 35.3921 42.2462 35.3921 42.9066C35.3921 43.567 36.1416 44.1024 37.0663 44.1024Z" fill="#FFABAB"/>
<path d="M54.3817 44.1024C55.3063 44.1024 56.0558 43.567 56.0558 42.9066C56.0558 42.2462 55.3063 41.7108 54.3817 41.7108C53.4571 41.7108 52.7075 42.2462 52.7075 42.9066C52.7075 43.567 53.4571 44.1024 54.3817 44.1024Z" fill="#FFABAB"/>
<path d="M92 46C92 71.4051 71.4051 92 46 92C20.5949 92 0 71.4051 0 46C0 20.5949 20.5949 0 46 0C71.4051 0 92 20.5949 92 46ZM4.97974 46C4.97974 68.6549 23.3451 87.0203 46 87.0203C68.6549 87.0203 87.0203 68.6549 87.0203 46C87.0203 23.3451 68.6549 4.97974 46 4.97974C23.3451 4.97974 4.97974 23.3451 4.97974 46Z" fill="#C3BED6"/>
</svg>
