<svg width="29" height="28" viewBox="0 0 29 28" fill="none" xmlns="http://www.w3.org/2000/svg">
<ellipse cx="14.3345" cy="14" rx="14.3345" ry="14" fill="#C3BED6"/>
<path d="M19.4541 12H23.5497M5.11968 12H9.21524M5.11968 11.323C5.11968 10.744 5.11968 10.455 5.16473 10.213C5.26593 9.67395 5.53268 9.17775 5.92955 8.79032C6.32642 8.40289 6.8346 8.14259 7.38657 8.044C7.63128 8 7.92821 8 8.52207 8H20.1463C20.7391 8 21.035 8 21.2828 8.044C21.8347 8.14284 22.3428 8.40337 22.7395 8.79098C23.1362 9.17858 23.4027 9.67491 23.5036 10.214C23.5487 10.454 23.5487 10.744 23.5487 11.324V14C23.5487 16.3869 22.5778 18.6761 20.8497 20.364C19.1215 22.0518 16.7776 23 14.3337 23C11.8897 23 9.54582 22.0518 7.81767 20.364C6.08952 18.6761 5.11865 16.3869 5.11865 14L5.11968 11.323Z" stroke="white" stroke-width="2" stroke-linecap="round" stroke-linejoin="round"/>
<path d="M16.6386 22.7V21.3C16.6386 19.6291 17.3182 18.0267 18.5279 16.8452C19.7376 15.6637 21.3783 15 23.0891 15M12.0311 22.7V21.3C12.0311 19.6291 11.3515 18.0267 10.1418 16.8452C8.93206 15.6637 7.29135 15 5.58057 15" stroke="white" stroke-width="2" stroke-linecap="round" stroke-linejoin="round"/>
</svg>
