<svg width="67" height="67" viewBox="0 0 67 67" fill="none" xmlns="http://www.w3.org/2000/svg">
<path d="M24.0781 36.1172C23.5605 36.1172 23.0545 35.9637 22.6241 35.6761C22.1937 35.3885 21.8583 34.9798 21.6602 34.5015C21.4621 34.0233 21.4103 33.4971 21.5112 32.9894C21.6122 32.4817 21.8615 32.0154 22.2275 31.6494C22.5935 31.2833 23.0599 31.0341 23.5675 30.9331C24.0752 30.8321 24.6015 30.8839 25.0797 31.082C25.5579 31.2801 25.9667 31.6156 26.2542 32.046C26.5418 32.4764 26.6953 32.9824 26.6953 33.5C26.6953 34.1941 26.4196 34.8598 25.9288 35.3506C25.4379 35.8414 24.7723 36.1172 24.0781 36.1172ZM42.9219 30.8828C42.4043 30.8828 41.8982 31.0363 41.4678 31.3239C41.0375 31.6115 40.702 32.0202 40.5039 32.4984C40.3058 32.9767 40.254 33.5029 40.355 34.0106C40.456 34.5183 40.7052 34.9846 41.0713 35.3506C41.4373 35.7166 41.9036 35.9659 42.4113 36.0669C42.919 36.1679 43.4452 36.1161 43.9234 35.918C44.4017 35.7199 44.8104 35.3844 45.098 34.954C45.3856 34.5236 45.5391 34.0176 45.5391 33.5C45.5391 32.8059 45.2633 32.1402 44.7725 31.6494C44.2817 31.1585 43.616 30.8828 42.9219 30.8828ZM39.9906 42.6392C38.0421 43.8496 35.7939 44.491 33.5 44.491C31.2061 44.491 28.9579 43.8496 27.0094 42.6392C26.6568 42.4171 26.2304 42.3441 25.824 42.4364C25.4176 42.5287 25.0645 42.7786 24.8424 43.1312C24.6202 43.4839 24.5473 43.9103 24.6396 44.3167C24.7318 44.7231 24.9818 45.0762 25.3344 45.2983C27.7844 46.8248 30.6133 47.634 33.5 47.634C36.3867 47.634 39.2156 46.8248 41.6656 45.2983C41.8402 45.1883 41.9915 45.045 42.1107 44.8766C42.2299 44.7081 42.3148 44.5179 42.3605 44.3167C42.4061 44.1154 42.4118 43.9072 42.377 43.7038C42.3422 43.5004 42.2676 43.3058 42.1577 43.1312C42.0477 42.9567 41.9044 42.8054 41.736 42.6862C41.5675 42.567 41.3773 42.4821 41.1761 42.4364C40.9748 42.3907 40.7666 42.3851 40.5632 42.4199C40.3598 42.4547 40.1652 42.5292 39.9906 42.6392ZM60.1953 33.5C60.1953 38.7798 58.6297 43.9411 55.6963 48.3311C52.763 52.7211 48.5938 56.1427 43.7159 58.1632C38.8379 60.1838 33.4704 60.7124 28.292 59.6824C23.1136 58.6523 18.357 56.1098 14.6236 52.3764C10.8902 48.643 8.34769 43.8864 7.31764 38.708C6.2876 33.5296 6.81625 28.1621 8.83676 23.2841C10.8573 18.4062 14.2789 14.237 18.6689 11.3037C23.0589 8.37034 28.2202 6.80469 33.5 6.80469C40.5775 6.813 47.3627 9.6282 52.3673 14.6327C57.3718 19.6373 60.187 26.4225 60.1953 33.5ZM57.0547 33.5C57.0473 27.388 54.6673 21.5175 50.4163 17.1259C46.1653 12.7343 40.3754 10.1646 34.2668 9.9584C30.9613 14.4547 30.8828 18.8045 30.8828 18.8437C30.8828 19.5379 31.1586 20.2036 31.6494 20.6944C32.1402 21.1852 32.8059 21.4609 33.5 21.4609C34.1941 21.4609 34.8598 21.1852 35.3506 20.6944C35.8415 20.2036 36.1172 19.5379 36.1172 18.8437C36.1172 18.4273 36.2826 18.0279 36.5771 17.7334C36.8716 17.4389 37.271 17.2734 37.6875 17.2734C38.104 17.2734 38.5034 17.4389 38.7979 17.7334C39.0924 18.0279 39.2578 18.4273 39.2578 18.8437C39.2578 20.3708 38.6512 21.8353 37.5714 22.9151C36.4916 23.9949 35.0271 24.6016 33.5 24.6016C31.9729 24.6016 30.5084 23.9949 29.4286 22.9151C28.3488 21.8353 27.7422 20.3708 27.7422 18.8437C27.7422 18.6475 27.7815 14.7034 30.396 10.1495C25.9094 10.7459 21.6895 12.6224 18.2414 15.5544C14.7934 18.4864 12.263 22.3497 10.9532 26.6822C9.64338 31.0147 9.60953 35.6328 10.8557 39.984C12.1019 44.3352 14.5753 48.2352 17.98 51.2175C21.3848 54.1997 25.5766 56.1378 30.0541 56.8C34.5315 57.4621 39.1049 56.8203 43.2271 54.9512C47.3493 53.0821 50.8457 50.0649 53.2979 46.2606C55.7502 42.4564 57.0544 38.0261 57.0547 33.5Z" fill="white"/>
</svg>
