<svg width="172" height="184" viewBox="0 0 172 184" fill="none" xmlns="http://www.w3.org/2000/svg">
<path d="M134.187 132.379C141.079 133.437 154.456 161.256 147.267 164.644C141.459 167.387 122.468 152.932 123.036 143.291C123.417 136.903 129.354 131.637 134.187 132.379Z" fill="#AD6359"/>
<path d="M80.3494 129.52C79.9428 118.641 85.6602 97.6296 97.1272 94.0289C108.594 90.4281 121.3 96.894 123.404 111.794C125.043 123.409 120.674 135.418 120.674 135.418C120.674 135.418 130.354 131.605 133.283 132.237C139.091 133.495 145.125 144.698 139.317 151.435C135.168 156.242 106.516 178.118 90.4999 162.366C81.3625 153.384 80.8462 143.027 80.3494 129.52Z" fill="#AD6359"/>
<g opacity="0.1">
<path d="M134.187 132.379C141.079 133.437 154.456 161.256 147.267 164.644C141.459 167.387 122.468 152.932 123.036 143.291C123.417 136.903 129.354 131.637 134.187 132.379Z" fill="black"/>
<path d="M80.3494 129.52C79.9428 118.641 85.6602 97.6296 97.1272 94.0289C108.594 90.4281 121.3 96.894 123.404 111.794C125.043 123.409 120.674 135.418 120.674 135.418C120.674 135.418 130.354 131.605 133.283 132.237C139.091 133.495 145.125 144.698 139.317 151.435C135.168 156.242 106.516 178.118 90.4999 162.366C81.3625 153.384 80.8462 143.027 80.3494 129.52Z" fill="black"/>
</g>
<path d="M121.023 133.599C120.143 136.673 118.751 139.576 116.906 142.188C116.028 143.446 115.086 144.646 114.092 145.814C113.053 147.117 111.893 148.318 110.627 149.402C110.485 149.512 110.627 149.725 110.801 149.622C111.479 149.118 112.221 148.705 112.879 148.163C113.525 147.621 114.144 147.046 114.731 146.44C115.86 145.286 116.85 144.004 117.68 142.62C119.338 139.844 120.514 136.806 121.158 133.637C121.171 133.56 121.081 133.521 121.023 133.599Z" fill="#263238"/>
<path d="M135.6 151.196C134.502 153.299 133.063 155.205 131.341 156.836C130.534 157.591 129.702 158.288 128.837 158.953C127.937 159.7 126.959 160.349 125.92 160.888C125.804 160.94 125.875 161.147 125.991 161.101C126.527 160.876 127.088 160.734 127.618 160.456C128.142 160.191 128.651 159.896 129.14 159.572C130.104 158.938 130.984 158.186 131.76 157.333C133.396 155.532 134.719 153.471 135.677 151.235C135.703 151.203 135.626 151.144 135.6 151.196Z" fill="#263238"/>
<path d="M23.8019 135.657C27.4284 136.528 47.878 140.852 60.655 137.199C70.4226 134.522 78.7822 128.182 83.9955 119.499C92.3844 105.773 84.4666 95.4292 75.9938 99.9334C65.9335 105.289 56.6348 111.968 50.143 114.13C42.2058 116.763 28.4351 117.486 26.2669 117.892C21.7046 118.75 19.2848 134.56 23.8019 135.657Z" fill="#AD6359"/>
<path d="M27.5639 117.931C26.3313 116.169 21.4206 113.168 20.6849 111.704C19.9493 110.239 18.9491 106.135 16.7744 107.219C14.5998 108.303 16.8196 114.182 17.3423 115.524C17.865 116.866 4.05556 112.265 2.90692 115.524C1.75829 118.783 11.4959 120.977 11.2958 121.641C11.0958 122.306 0.699994 121.073 0.0288814 123.964C-0.642231 126.855 10.6054 127.133 10.586 127.359C10.5666 127.585 2.57782 124.726 1.49371 127.133C0.409607 129.54 11.7346 131.689 11.6959 132.198C11.6572 132.708 5.02351 133.618 5.50748 136.206C5.99146 138.793 15.9807 136.141 16.897 136.038C17.8134 135.935 24.9052 136.412 26.0087 135.309C27.1121 134.205 28.4415 119.189 27.5639 117.931Z" fill="#AD6359"/>
<g opacity="0.1">
<path d="M23.8019 135.657C27.4284 136.528 47.878 140.852 60.655 137.199C70.4226 134.522 78.7822 128.182 83.9955 119.499C92.3844 105.773 84.4666 95.4292 75.9938 99.9334C65.9335 105.289 56.6348 111.968 50.143 114.13C42.2058 116.763 28.4351 117.486 26.2669 117.892C21.7046 118.75 19.2848 134.56 23.8019 135.657Z" fill="black"/>
<path d="M27.5639 117.931C26.3313 116.169 21.4206 113.168 20.6849 111.704C19.9493 110.239 18.9491 106.135 16.7744 107.219C14.5998 108.303 16.8196 114.182 17.3423 115.524C17.865 116.866 4.05556 112.265 2.90692 115.524C1.75829 118.783 11.4959 120.977 11.2958 121.641C11.0958 122.306 0.699994 121.073 0.0288814 123.964C-0.642231 126.855 10.6054 127.133 10.586 127.359C10.5666 127.585 2.57782 124.726 1.49371 127.133C0.409607 129.54 11.7346 131.689 11.6959 132.198C11.6572 132.708 5.02351 133.618 5.50748 136.206C5.99146 138.793 15.9807 136.141 16.897 136.038C17.8134 135.935 24.9052 136.412 26.0087 135.309C27.1121 134.205 28.4415 119.189 27.5639 117.931Z" fill="black"/>
</g>
<path d="M18.7555 118.492C17.7532 120.609 17.0225 122.845 16.5809 125.145C16.2176 127.473 16.1763 129.84 16.4582 132.179C16.4582 132.36 16.7551 132.36 16.7357 132.179C16.599 129.866 16.7311 127.544 17.1294 125.261C17.457 122.967 18.0727 120.723 18.962 118.583C19.0136 118.466 18.8136 118.376 18.7555 118.492Z" fill="#263238"/>
<path d="M9.31478 127.159C8.5985 127.042 7.88866 126.913 7.17883 126.771C6.469 126.629 5.88823 126.546 5.18485 126.475C4.39759 126.384 3.89425 126.358 3.10699 126.204C2.88113 126.152 2.83596 126.204 3.04891 126.3C4.35516 126.702 5.68483 127.023 7.03041 127.262C7.72734 127.352 8.41781 127.43 9.11473 127.494C9.85994 127.585 10.6097 127.635 11.3604 127.643C11.4507 127.643 11.483 127.494 11.3604 127.475C10.7344 127.333 9.9988 127.275 9.31478 127.159Z" fill="#263238"/>
<path d="M108.762 149.647C108.052 149.189 112.195 135.186 112.531 120.719C112.937 103.166 109.401 92.506 110.02 91.538C111.311 89.5634 114.028 91.3702 114.467 91.338C114.905 91.3057 131.89 85.9626 143.234 90.8927C154.578 95.8228 161.948 111.652 159.65 124.519C157.353 137.387 147.177 159.366 111.576 149.396C111.363 149.338 110.337 150.693 108.762 149.647Z" fill="#8997D6"/>
<g opacity="0.6">
<path d="M108.762 149.647C108.052 149.189 112.195 135.186 112.531 120.719C112.937 103.166 109.401 92.506 110.02 91.538C111.311 89.5634 114.028 91.3702 114.467 91.338C114.905 91.3057 131.89 85.9626 143.234 90.8927C154.578 95.8228 161.948 111.652 159.65 124.519C157.353 137.387 147.177 159.366 111.576 149.396C111.363 149.338 110.337 150.693 108.762 149.647Z" fill="white"/>
</g>
<path d="M114.55 93.9062C115.422 96.0339 116.142 98.2205 116.706 100.45C117.251 102.687 117.682 104.95 117.996 107.232C118.656 111.801 118.872 116.424 118.641 121.035C118.433 125.648 117.785 130.231 116.706 134.722C116.191 136.966 115.562 139.182 114.821 141.362C114.499 142.465 114.015 143.517 113.602 144.588C113.189 145.659 112.743 146.718 112.311 147.769C112.627 146.666 112.956 145.563 113.292 144.472C113.627 143.381 114.002 142.304 114.228 141.175C114.757 138.955 115.37 136.761 115.738 134.509L116.047 132.831C116.151 132.269 116.286 131.721 116.344 131.153L116.796 127.772C116.977 126.649 117.022 125.507 117.131 124.377C117.241 123.248 117.344 122.112 117.351 120.977L117.467 117.569L117.415 114.162C117.344 111.891 117.202 109.645 116.97 107.354C116.563 102.809 115.753 98.3086 114.55 93.9062Z" fill="#8997D6"/>
<path d="M171.834 144.685C178.654 146.137 190.418 174.672 183.049 177.66C177.119 180.067 158.96 164.547 160.076 154.958C160.825 148.589 167.052 143.665 171.834 144.685Z" fill="#AD6359"/>
<path d="M118.242 138.755C118.467 127.875 125.34 107.219 137.007 104.276C148.674 101.334 160.98 108.516 162.232 123.513C163.2 135.206 158.153 146.944 158.153 146.944C158.153 146.944 168.033 143.717 170.93 144.491C176.667 146.079 182.036 157.61 175.854 163.999C171.44 168.561 141.582 188.765 126.495 172.123C117.893 162.637 117.971 152.267 118.242 138.755Z" fill="#AD6359"/>
<path d="M158.624 145.156C157.565 148.172 156.01 150.99 154.023 153.493C153.068 154.7 152.088 155.842 151.003 156.952C149.891 158.193 148.664 159.325 147.338 160.334C147.311 160.356 147.293 160.388 147.288 160.424C147.284 160.459 147.292 160.494 147.312 160.524C147.333 160.553 147.363 160.573 147.398 160.581C147.432 160.589 147.469 160.583 147.499 160.566C148.209 160.101 148.971 159.733 149.661 159.23C150.334 158.726 150.98 158.187 151.597 157.617C152.791 156.53 153.852 155.306 154.759 153.971C156.576 151.292 157.924 148.325 158.747 145.195C158.773 145.124 158.65 145.079 158.624 145.156Z" fill="#263238"/>
<path d="M172.169 163.554C170.954 165.591 169.408 167.412 167.594 168.942C166.749 169.652 165.871 170.303 164.974 170.916C164.03 171.608 163.016 172.199 161.948 172.678C161.832 172.723 161.89 172.936 162.012 172.891C162.561 172.697 163.122 172.594 163.671 172.362C164.209 172.128 164.732 171.863 165.239 171.568C166.237 170.989 167.16 170.289 167.988 169.484C169.718 167.774 171.156 165.792 172.247 163.618C172.273 163.599 172.202 163.502 172.169 163.554Z" fill="#263238"/>
<path d="M111.188 92.5383C119.054 112.781 110.93 147.105 108.743 148.447C108.743 148.447 72.0056 150.622 55.3891 113.478C54.4986 111.484 81.014 95.6744 87.5767 92.3253C93.7199 89.1956 104.296 91.2347 109.581 91.8671C110.478 91.9704 111.053 92.1769 111.188 92.5383Z" fill="#AD6359"/>
<g opacity="0.1">
<path d="M87.6993 118.937C87.5407 118.847 87.3657 118.789 87.1845 118.767C87.0033 118.744 86.8194 118.758 86.6436 118.808C86.4677 118.857 86.3034 118.94 86.1601 119.053C86.0168 119.167 85.8973 119.307 85.8086 119.467C85.5861 119.816 85.5063 120.238 85.5855 120.645C85.6648 121.052 85.897 121.413 86.2345 121.654C86.4821 121.805 86.7791 121.851 87.0608 121.783C87.3425 121.716 87.586 121.539 87.7381 121.293C87.875 121.216 87.9991 121.118 88.1059 121.002C88.2234 120.843 88.3065 120.661 88.3498 120.468C88.3931 120.275 88.3957 120.075 88.3575 119.88C88.3192 119.686 88.241 119.502 88.1277 119.34C88.0143 119.177 87.8685 119.04 87.6993 118.937Z" fill="black"/>
<path d="M72.0766 129.146C71.9179 129.056 71.7429 128.998 71.5617 128.975C71.3805 128.953 71.1966 128.967 71.0208 129.016C70.845 129.065 70.6806 129.149 70.5373 129.262C70.394 129.375 70.2745 129.516 70.1859 129.675C69.9624 130.025 69.8827 130.448 69.9632 130.856C70.0438 131.263 70.2784 131.624 70.6182 131.863C70.7408 131.939 70.8774 131.99 71.0199 132.014C71.1625 132.037 71.3083 132.031 71.4488 131.998C71.5892 131.964 71.7216 131.903 71.8383 131.818C71.9549 131.733 72.0535 131.625 72.1282 131.501C72.2631 131.424 72.385 131.326 72.4896 131.211C72.6078 131.052 72.6913 130.869 72.7346 130.676C72.778 130.482 72.7803 130.281 72.7414 130.087C72.7025 129.892 72.6232 129.708 72.5087 129.546C72.3942 129.384 72.247 129.248 72.0766 129.146Z" fill="black"/>
<path d="M93.4621 141.755C93.3717 141.755 93.262 141.846 93.3201 141.949C93.4407 142.124 93.5745 142.29 93.7202 142.446C93.7976 142.543 94.0041 142.833 93.9009 142.975C93.7976 143.117 93.475 142.975 93.3588 142.91C92.8261 142.484 92.4624 141.883 92.3328 141.213C92.324 141.188 92.3066 141.166 92.2835 141.152C92.2605 141.138 92.2333 141.132 92.2065 141.136C92.1798 141.14 92.1552 141.153 92.137 141.173C92.1189 141.193 92.1082 141.219 92.1069 141.246C92.1844 142.123 92.7135 144.117 93.9783 143.827C94.2025 143.76 94.3935 143.612 94.5131 143.411C94.6327 143.21 94.6722 142.971 94.6236 142.743C94.5599 142.476 94.413 142.237 94.2042 142.059C93.9953 141.882 93.7354 141.775 93.4621 141.755Z" fill="black"/>
</g>
<path d="M101.076 172.665C102.238 169.116 111.627 149.434 109.014 136.38C106.232 122.512 101.593 111.523 96.8432 108.064C83.8404 98.5847 72.9671 111.291 74.974 120.693C77.4713 132.495 82.4208 137.199 83.905 143.872C84.0727 144.646 82.0142 161.637 83.5629 168.781C84.5244 173.343 99.5987 177.079 101.076 172.665Z" fill="#AD6359"/>
<path d="M83.4404 165.993C81.6787 166.515 79.1168 169.013 77.6327 169.284C76.1485 169.555 71.883 170.884 72.922 172.278C73.9609 173.672 79.8331 173.027 81.1689 172.872C82.5047 172.717 77.723 180.273 80.9301 181.306C84.1373 182.338 86.4797 176.892 87.1315 177.098C87.7832 177.305 86.4023 183.229 89.261 183.945C92.1197 184.661 92.5714 178.137 92.7972 178.137C93.0231 178.137 90.0482 182.525 92.4229 183.429C94.7976 184.332 97.1078 177.95 97.5853 178.028C98.0629 178.105 98.8759 182.087 101.457 182.093C104.038 182.099 101.56 175.963 101.457 175.414C101.354 174.866 101.96 170.774 100.876 170.007C99.7923 169.239 84.6987 165.618 83.4404 165.993Z" fill="#AD6359"/>
<path d="M83.3566 151.435C82.9624 148.89 83.0809 146.293 83.7051 143.794C83.847 143.149 84.0471 142.556 84.2342 141.942C84.4466 141.335 84.6899 140.738 84.9634 140.155C85.4994 138.987 86.1778 137.891 86.9832 136.89C86.3989 138.012 85.8797 139.167 85.428 140.349C84.9797 141.52 84.6132 142.721 84.331 143.943C84.0338 145.166 83.8076 146.405 83.6534 147.653C83.4892 148.908 83.3901 150.17 83.3566 151.435Z" fill="#263238"/>
<path d="M83.8728 143.872C82.9888 142.343 82.2144 140.768 81.4852 139.181C80.756 137.593 80.0656 135.954 79.4009 134.367C78.7363 132.779 78.1103 131.14 77.5295 129.469C76.9488 127.797 76.3809 126.171 75.884 124.474C76.8504 125.948 77.7129 127.488 78.4652 129.082C79.2396 130.656 79.9365 132.263 80.6012 133.883C81.2658 135.502 81.8918 137.141 82.4209 138.806C82.9927 140.468 83.4773 142.159 83.8728 143.872Z" fill="#263238"/>
<path d="M75.3291 127.081C76.0474 127.542 76.6989 128.101 77.265 128.74C77.8514 129.364 78.3467 130.068 78.7363 130.83C77.2936 129.895 76.1159 128.603 75.3162 127.081H75.3291Z" fill="#263238"/>
<path d="M102.909 116.698C104.615 120.764 106.099 124.92 107.355 129.146C107.997 131.268 108.526 133.422 108.943 135.599C109.04 136.154 109.111 136.709 109.194 137.264C109.278 137.819 109.304 138.406 109.304 138.968C109.304 139.529 109.304 140.097 109.304 140.652C109.304 141.207 109.265 141.762 109.227 142.317C108.9 146.731 108.253 151.115 107.291 155.436C106.8 157.591 106.232 159.727 105.555 161.837L105.013 163.399L104.406 164.947C104.187 165.457 103.955 165.954 103.729 166.457C103.503 166.961 103.193 167.425 102.935 167.909C103.79 165.891 104.464 163.801 104.948 161.663C105.477 159.533 105.903 157.391 106.303 155.21C107.074 150.907 107.621 146.567 107.943 142.207C107.988 141.665 108.02 141.123 108.033 140.581C108.046 140.039 108.065 139.503 108.033 138.968C108.001 138.432 107.975 137.909 107.949 137.38L107.73 135.78C107.4 133.637 106.891 131.508 106.374 129.378C105.31 125.158 104.129 120.925 102.909 116.698Z" fill="#263238"/>
<path d="M104.613 118.15C104.984 119.04 105.224 119.979 105.323 120.938C105.463 121.894 105.446 122.866 105.271 123.816C104.988 122.903 104.792 121.965 104.684 121.015C104.556 120.066 104.533 119.105 104.613 118.15Z" fill="#263238"/>
<path d="M98.263 168.245C96.6272 167.279 94.8692 166.537 93.036 166.038C91.1435 165.603 89.1995 165.436 87.2606 165.541C87.1122 165.541 87.0799 165.786 87.2283 165.78C89.1345 165.791 91.0325 166.031 92.8812 166.496C94.7233 166.903 96.5029 167.554 98.1726 168.432C98.263 168.458 98.3533 168.297 98.263 168.245Z" fill="#263238"/>
<path d="M87.2671 59.5763C88.1539 60.3722 89.2491 60.8988 90.4245 61.0944C91.5999 61.2899 92.8067 61.1462 93.9033 60.6802C94.9999 60.2142 95.9409 59.4451 96.616 58.4633C97.291 57.4814 97.6721 56.3274 97.7146 55.1366C99.7731 56.6595 102.49 57.1564 104.735 55.4915C106.981 53.8267 107.413 50.7615 106.11 48.3029C106.11 48.3029 106.071 48.3029 106.078 48.3029C107.02 50.6647 106.646 53.5298 104.477 55.0915C102.625 56.4272 100.606 56.2014 98.8438 55.2528C99.7794 55.4159 100.739 55.3856 101.662 55.1636C102.585 54.9416 103.453 54.5327 104.213 53.9622C105.033 53.2985 105.64 52.408 105.958 51.4016C106.276 50.3952 106.291 49.3175 106 48.3029C108.323 47.6253 110.575 46.1024 111.427 43.7471C111.791 42.7697 111.863 41.7075 111.634 40.6901C111.405 39.6726 110.884 38.7438 110.137 38.0168C111.18 37.4974 112.049 36.6852 112.638 35.6796C113.227 34.6739 113.51 33.5185 113.452 32.3545C113.395 31.1906 112.999 30.0687 112.314 29.126C111.629 28.1833 110.684 27.4607 109.595 27.0467C110.31 26.5996 110.901 25.9798 111.313 25.2443C111.726 24.5089 111.947 23.6815 111.956 22.8382C111.965 21.995 111.761 21.1631 111.365 20.419C110.968 19.6749 110.39 19.0426 109.685 18.5804C110.16 18.1374 110.497 17.5677 110.659 16.9388C110.82 16.3099 110.798 15.6479 110.595 15.0312C110.156 13.5728 108.911 12.5791 107.601 11.8821C107.782 11.2287 107.796 10.5403 107.643 9.8797C107.49 9.21914 107.173 8.60751 106.723 8.10068C106.122 7.47012 105.316 7.07392 104.449 6.9829C103.583 6.89187 102.712 7.11195 101.993 7.6038C100.928 5.43559 99.4633 3.22221 97.1467 2.28653C95.2431 1.51862 92.8684 1.72511 91.4164 3.24802C90.847 2.39089 90.1021 1.66438 89.231 1.11649C88.3599 0.568594 87.3825 0.211799 86.3633 0.0696847C85.3441 -0.0724296 84.3063 0.00337264 83.3186 0.292078C82.3309 0.580783 81.4157 1.07581 80.6335 1.74447C79.9384 1.17916 79.1072 0.805989 78.2229 0.662188C77.3386 0.518387 76.432 0.608988 75.5937 0.924942C74.4235 1.31008 73.3648 1.97455 72.5091 2.86084C71.8486 2.4077 71.0638 2.17056 70.2629 2.18211C69.462 2.19367 68.6843 2.45335 68.0372 2.92537C67.4488 3.38793 66.9701 3.97498 66.6354 4.64438C66.3007 5.31378 66.1183 6.04895 66.1013 6.79717C65.8388 7.14524 65.5014 7.42976 65.114 7.62961C64.1443 8.13296 63.3134 8.86713 62.6945 9.76741C62.0755 10.6677 61.6876 11.7064 61.5648 12.792C60.9313 12.9131 60.3311 13.1684 59.8045 13.5408C59.2779 13.9132 58.8372 14.394 58.5119 14.9509C58.1867 15.5079 57.9845 16.128 57.9189 16.7696C57.8534 17.4113 57.926 18.0595 58.1318 18.6707C56.9548 19.3129 56.0778 20.3924 55.6902 21.6759C55.3026 22.9595 55.4356 24.344 56.0604 25.5302C55.1643 26.1104 54.4041 26.8771 53.8316 27.7781C53.2592 28.6791 52.8881 29.6931 52.7436 30.7507C52.5306 32.3962 53.0017 34.3192 54.4988 35.1452C53.4728 35.9583 53.6083 37.578 54.3375 38.6105C54.6249 38.9979 54.9538 39.3528 55.3183 39.6688C55.7378 40.0495 56.3831 40.4173 56.6476 40.9594C56.9122 41.5014 56.7638 42.1661 56.7896 42.734C56.8121 43.1461 56.8769 43.5548 56.9832 43.9536C57.4073 45.4297 58.3217 46.7173 59.5757 47.6041C60.8296 48.4909 62.3483 48.924 63.8815 48.832C64.0041 51.0325 65.8883 52.5361 67.85 53.2717C68.4916 53.4977 69.1526 53.664 69.8247 53.7686C70.4333 53.8296 71.0081 54.0776 71.4702 54.4784C71.7541 54.7559 71.98 55.1237 72.2704 55.3754C73.3287 56.3498 74.6193 56.4789 75.9099 56.4208C76.439 62.2866 83.5502 63.4933 87.2671 59.5763ZM67.8113 3.80298C68.4012 3.20986 69.161 2.81485 69.9853 2.67265C70.8096 2.53044 71.6578 2.64807 72.4123 3.00926L72.2833 3.17058C72.2833 3.17058 71.7348 3.0867 71.4637 3.08024C70.9652 3.06401 70.4671 3.12275 69.986 3.25448C69.2583 3.44067 68.5807 3.78538 68.0017 4.26395C67.4227 4.74252 66.9567 5.34313 66.6369 6.02281L66.553 6.17123C66.7416 5.27928 67.1777 4.45852 67.8113 3.80298ZM106.387 9.41064C105.926 8.75834 105.273 8.26489 104.52 7.998C103.767 7.73111 102.949 7.70387 102.18 7.92L102.122 7.80385C103.638 7.11338 105.213 6.90043 106.51 8.32654C106.907 8.76977 107.179 9.31015 107.299 9.89274C107.419 10.4753 107.383 11.0794 107.194 11.6434C107.14 10.8382 106.86 10.0646 106.387 9.41064ZM76.1551 56.4143H76.2131C76.8525 58.1252 78.1334 59.5195 79.784 60.3014C81.4346 61.0834 83.3249 61.1913 85.0538 60.6023C81.3239 62.164 77.2005 61.3638 76.1551 56.4143Z" fill="#263238"/>
<path d="M94.8947 87.6082C90.0162 101.74 77.6394 108.258 70.4055 110.516C59.2031 114.033 27.8157 118.079 18.8331 98.333C16.7488 93.7579 15.6905 86.9241 15.4517 79.5484C14.9871 65.4227 17.5296 49.3031 21.6273 43.1857C30.3259 30.2087 54.2149 22.1231 74.9614 30.5636C91.6617 37.3651 99.7861 73.4632 94.8947 87.6082Z" fill="#AD6359"/>
<path d="M58.9061 65.6744C58.0128 65.4623 57.1317 65.2017 56.2668 64.8936C55.2602 64.5839 54.4213 64.4419 53.7244 63.603C53.555 63.3402 53.4772 63.0289 53.5028 62.7174C53.5285 62.4059 53.6563 62.1115 53.8663 61.88C54.8214 60.9379 56.1507 61.0089 57.3832 61.3315C58.6338 61.6169 59.7334 62.3576 60.4678 63.4094C61.255 64.4742 60.1193 65.9132 58.9061 65.6744Z" fill="#263238"/>
<path d="M30.0288 65.597C30.9228 65.3999 31.8059 65.1565 32.6746 64.8678C33.6812 64.5774 34.5072 64.4419 35.2106 63.5772C35.3823 63.3192 35.464 63.0116 35.443 62.7024C35.422 62.3932 35.2995 62.0996 35.0945 61.8671C34.1588 60.9185 32.8359 60.9766 31.6098 61.2799C30.3681 61.5505 29.2698 62.2697 28.5253 63.2997C27.7122 64.3773 28.8028 65.8228 30.0288 65.597Z" fill="#263238"/>
<path d="M49.6073 87.6985C49.7458 88.0731 49.8579 88.4569 49.9428 88.8471C50.3042 90.3958 50.5365 93.119 48.1941 94.1128C47.2996 94.468 46.3128 94.5179 45.387 94.2547C42.8445 93.6482 40.4634 90.9831 40.4634 90.9831C45.9162 91.8736 49.6073 87.6985 49.6073 87.6985Z" fill="#263238"/>
<path d="M49.9428 88.8471C50.3042 90.3958 50.5365 93.119 48.194 94.1128C47.2995 94.468 46.3127 94.5179 45.387 94.2547C45.581 92.8889 46.2022 91.6195 47.1615 90.6281C47.928 89.8148 48.8833 89.203 49.9428 88.8471Z" fill="#FF99BA"/>
<path d="M36.9271 68.9332C36.4238 74.7409 36.7981 72.6759 36.0431 78.4707C34.7525 78.6256 28.9448 78.9482 29.39 79.4451C30.9968 81.2326 35.7398 84.2526 35.7204 84.2978C35.1138 85.8917 32.5391 87.6727 32.6746 87.7953C40.1601 94.7904 47.1809 90.4539 49.5234 87.9889C49.9945 87.492 49.7944 87.5114 49.5234 87.7308C47.1358 89.5247 40.0117 92.3963 34.7266 87.6082C35.7154 86.6627 36.4557 85.488 36.882 84.1881C36.9336 84.0268 33.2037 81.4585 31.7195 80.0388C33.4812 79.871 35.6494 79.8194 36.9594 79.7097C37.2627 79.7097 37.9919 75.1087 37.4627 68.9138C37.4601 68.8428 37.4295 68.7757 37.3774 68.7273C37.3254 68.6789 37.2563 68.6531 37.1852 68.6557C37.1142 68.6583 37.0471 68.6889 36.9987 68.741C36.9503 68.793 36.9245 68.8621 36.9271 68.9332Z" fill="#263238"/>
<path d="M55.5118 70.2431C60.2548 70.1076 60.1709 79.6129 55.7764 79.7355C51.3819 79.8581 51.5303 70.3528 55.5118 70.2431Z" fill="#263238"/>
<path d="M57.0218 70.6045C57.7833 70.9852 58.5705 71.7273 59.4352 71.7209C60.4354 71.7209 61.1001 70.7852 61.6615 69.8947C61.7196 69.8043 61.797 69.8947 61.8099 69.9721C61.9971 71.5337 61.5647 73.1986 59.9128 73.6052C58.4092 73.9794 57.1702 72.7147 56.6153 71.1853C56.512 70.9014 56.7185 70.4432 57.0218 70.6045Z" fill="#263238"/>
<path d="M33.2426 70.4109C29.1062 70.0947 28.7255 79.2451 32.5392 79.5419C36.3529 79.8387 36.7014 70.6755 33.2426 70.4109Z" fill="#263238"/>
<path d="M32.0874 70.6045C31.326 70.9852 30.5452 71.7273 29.674 71.7209C28.6738 71.7209 28.0091 70.7852 27.4477 69.8947C27.3897 69.8043 27.3122 69.8947 27.2993 69.9721C27.1122 71.5337 27.5445 73.1986 29.1965 73.6052C30.7001 73.9794 31.939 72.7147 32.494 71.1853C32.5972 70.9014 32.3907 70.4432 32.0874 70.6045Z" fill="#263238"/>
<path d="M53.7695 112.62C50.2139 112.33 46.6712 112.788 43.1221 112.368C39.6853 111.95 36.3065 111.147 33.0489 109.974C29.5494 108.823 26.2749 107.077 23.3694 104.812C23.1823 104.657 23.221 104.773 23.3694 104.947C25.7001 107.271 28.4446 109.137 31.4615 110.452C34.3806 111.82 37.4587 112.819 40.6248 113.427C43.8726 114.028 47.18 114.245 50.4785 114.072C54.2341 113.904 58.7061 113.517 61.1518 117.034C61.2163 117.124 61.3647 117.034 61.3066 116.944C59.8741 114.175 56.7702 112.872 53.7695 112.62Z" fill="#263238"/>
<path d="M72.5413 113.433C72.9362 112.132 73.6151 110.936 74.5288 109.929C75.4572 108.94 76.4891 108.053 77.6069 107.283C79.7944 105.722 82.0207 104.328 84.1115 102.721C86.2693 101.277 88.162 99.4717 89.7063 97.3845C91.1665 95.1806 92.5063 92.8994 93.72 90.5507C92.9675 93.134 91.9058 95.6171 90.558 97.9459C89.8439 99.1218 88.9878 100.205 88.0091 101.172C87.0219 102.099 85.9766 102.961 84.8794 103.754C82.7142 105.315 80.4722 106.766 78.1618 108.103C77.0236 108.762 75.9441 109.518 74.9353 110.361C73.9571 111.231 73.1458 112.272 72.5413 113.433Z" fill="#263238"/>
<path d="M16.9163 60.641C18.6798 60.5965 20.3618 59.8892 21.627 58.66C24.2534 56.1368 24.4663 53.7557 24.4663 53.7557C27.3379 51.7617 29.519 48.077 28.8866 44.6634C30.5522 44.9972 32.2759 44.8938 33.8896 44.3635C35.5034 43.8331 36.9523 42.8937 38.0951 41.6369C40.444 51.3164 53.0725 55.3173 61.5195 50.0258C61.8744 53.9686 63.0682 57.9695 65.9721 60.7636C68.763 63.4739 72.276 65.3223 76.0904 66.0874C76.0873 66.1066 76.0873 66.1262 76.0904 66.1454C74.1093 73.5019 81.5883 79.7548 88.5447 78.3352C89.2001 78.2664 89.848 78.139 90.4806 77.9544C93.849 76.9349 97.1401 75.27 98.5017 71.8693C99.3377 69.7045 99.3682 67.3115 98.5876 65.1262C97.8071 62.9409 96.2674 61.1087 94.2491 59.9635C95.6456 58.5853 96.5336 56.7744 96.768 54.8265C97.0024 52.8785 96.5694 50.9086 95.5397 49.2386C94.1846 47.0768 90.9323 46.0508 90.6096 43.476C90.3163 40.5981 89.0931 37.8942 87.1252 35.7738C85.1574 33.6534 82.5521 32.2321 79.7041 31.7251C78.1471 31.5482 76.6757 30.9202 75.4709 29.9183C74.6934 29.2213 73.8722 28.5747 73.0123 27.9824C69.625 25.7781 65.6078 24.7466 61.5776 25.0462C59.2158 25.2269 56.8669 26.4078 54.5244 25.7496C52.4917 25.1818 46.0903 25.6464 44.006 26.111C34.9202 28.1308 31.1839 32.293 31.1839 32.293C31.1839 32.293 26.4216 33.2932 22.4207 38.9847C18.5941 44.4182 18.5489 47.3736 18.5489 47.3736C18.0326 48.8521 17.4226 50.2962 16.7227 51.6972C14.3674 55.3302 16.6646 60.6475 16.9163 60.641ZM76.1936 66.5132C77.3552 71.966 79.1104 74.4698 81.2915 76.1928C77.8908 74.2375 75.5419 70.7529 76.1936 66.5132ZM38.934 41.8434C40.1319 44.229 41.8697 46.3023 44.0092 47.8986C46.1488 49.4949 48.6312 50.5702 51.2592 51.039C45.7806 50.5356 41.0183 47.7286 38.934 41.8434Z" fill="#263238"/>
<path d="M77.0391 78.0771C77.0391 78.0771 82.4596 66.0229 89.2352 65.2098C96.3981 64.3451 98.9147 77.2769 94.3976 83.0846C89.132 89.8925 80.0849 88.247 80.0849 88.247L77.0391 78.0771Z" fill="#AD6359"/>
<path d="M87.6671 73.0308C88.6202 72.0129 89.6927 71.1137 90.8613 70.3528C90.9968 70.2689 90.8613 70.0366 90.7193 70.1076C85.7505 72.6114 81.4657 78.4191 82.6853 84.2268C82.6934 84.2697 82.7162 84.3084 82.7498 84.3362C82.7834 84.3641 82.8256 84.3793 82.8693 84.3793C82.9129 84.3793 82.9551 84.3641 82.9887 84.3362C83.0223 84.3084 83.0451 84.2697 83.0532 84.2268C83.1435 83.6912 83.2274 83.1685 83.3177 82.6458C84.105 81.1487 84.8148 79.7936 86.2151 78.6965C87.5556 77.6392 89.1604 76.9696 90.8548 76.7606C91.0549 76.7606 91.0033 76.4574 90.8097 76.4574C89.4891 76.4877 88.1903 76.7993 86.9996 77.3712C85.809 77.9432 84.754 78.7624 83.905 79.7742C84.2408 78.4176 84.7642 77.1144 85.4601 75.9024C86.0899 74.8464 86.8297 73.8601 87.6671 72.9598" fill="#263238"/>
<path d="M81.5495 87.905C81.5426 87.908 81.5368 87.913 81.5327 87.9192C81.5286 87.9255 81.5264 87.9328 81.5264 87.9403C81.5264 87.9478 81.5286 87.9551 81.5327 87.9614C81.5368 87.9677 81.5426 87.9726 81.5495 87.9756C81.5564 87.9726 81.5622 87.9677 81.5663 87.9614C81.5704 87.9551 81.5726 87.9478 81.5726 87.9403C81.5726 87.9328 81.5704 87.9255 81.5663 87.9192C81.5622 87.913 81.5564 87.908 81.5495 87.905Z" fill="#263238"/>
<path d="M91.9713 94.416C92.4101 96.2293 95.9335 88.6793 95.9335 87.6985C95.9335 86.7176 98.7405 83.0588 99.16 81.0261C99.5794 78.9934 99.9021 73.2825 99.6891 71.9919C99.4762 70.7013 100.87 66.9327 100.225 64.7451C99.5794 62.5576 93.0683 43.2373 76.155 33.8998C59.2417 24.5623 47.3294 27.0854 47.3294 27.0854C41.2007 27.8778 35.1767 29.3362 29.3643 31.4347C19.9687 34.8677 12.6703 61.325 12.78 61.8284C12.8897 62.3317 13.9738 63.6675 13.9158 65.1452C13.8577 66.6229 12.7929 68.4492 13.9158 69.5268C15.0386 70.6045 14.0706 74.4892 14.4965 75.8701C14.9224 77.251 15.3935 77.4963 15.4193 78.5094C15.4451 79.5225 12.8962 53.8976 39.773 36.9391C39.773 36.9391 82.4725 55.4851 91.9713 94.416Z" fill="#8997D6"/>
<path d="M15.3936 78.2513C15.404 78.3435 15.404 78.4366 15.3936 78.5288C15.4194 78.6127 15.4065 78.5159 15.3936 78.2513Z" fill="#8997D6"/>
<path d="M15.3936 78.2513C15.4035 78.3435 15.4035 78.4366 15.3936 78.5288C15.4194 78.6127 15.4065 78.5159 15.3936 78.2513Z" fill="#8997D6"/>
<path opacity="0.3" d="M21.5689 49.1547C21.5874 49.7684 21.3865 50.3686 21.0023 50.8476C20.618 51.3265 20.0756 51.6528 19.4725 51.7678C18.8693 51.8828 18.2449 51.7791 17.7114 51.4752C17.1779 51.1713 16.7701 50.6872 16.5614 50.1097C16.9809 49.0192 17.439 47.9092 17.923 46.7864C18.3184 46.6073 18.7527 46.5308 19.1855 46.5641C19.6184 46.5973 20.0359 46.7392 20.3993 46.9766C20.7628 47.214 21.0605 47.5392 21.265 47.9222C21.4694 48.3051 21.574 48.7335 21.5689 49.1676V49.1547ZM30.8355 41.0239C30.1509 41.0239 29.4943 41.2958 29.0103 41.7799C28.5262 42.264 28.2543 42.9205 28.2543 43.6051C28.2507 43.9691 28.3241 44.3298 28.4698 44.6635C28.6155 44.9971 28.8301 45.2962 29.0996 45.541C30.2611 44.3472 31.5195 43.1663 32.8811 42.0112C32.638 41.7015 32.3272 41.4516 31.9727 41.2804C31.6181 41.1093 31.2291 41.0216 30.8355 41.0239ZM18.0198 58.8019C17.3352 58.7591 16.6617 58.99 16.1474 59.4439C15.633 59.8977 15.32 60.5372 15.2773 61.2218C15.2345 61.9064 15.4654 62.5799 15.9192 63.0942C16.373 63.6085 17.0126 63.9215 17.6971 63.9643C18.2325 62.3778 18.8506 60.8205 19.5492 59.2988C19.1068 58.9716 18.57 58.7973 18.0198 58.8019ZM64.2169 28.8277C63.9961 29.2217 63.8827 29.6667 63.8877 30.1183C63.8296 30.8029 64.0457 31.4825 64.4886 32.0078C64.9315 32.533 65.565 32.8607 66.2495 32.9189C66.9341 32.9771 67.6138 32.761 68.139 32.318C68.6642 31.8751 68.992 31.2417 69.0501 30.5571C67.3595 29.8473 65.7462 29.2923 64.2169 28.8277ZM72.0379 49.1547C71.5274 49.1547 71.0283 49.3061 70.6039 49.5897C70.1794 49.8733 69.8485 50.2764 69.6532 50.7481C69.4578 51.2197 69.4067 51.7387 69.5063 52.2394C69.6059 52.7401 69.8517 53.2001 70.2127 53.5611C70.5737 53.922 71.0336 54.1679 71.5343 54.2675C72.035 54.3671 72.554 54.316 73.0257 54.1206C73.4973 53.9252 73.9005 53.5944 74.1841 53.1699C74.4677 52.7454 74.6191 52.2464 74.6191 51.7359C74.6191 51.0513 74.3471 50.3948 73.8631 49.9107C73.379 49.4266 72.7225 49.1547 72.0379 49.1547ZM35.6817 29.4536C34.1781 29.8666 32.5842 30.3442 30.9581 30.8991C30.9581 31.5837 31.23 32.2402 31.7141 32.7243C32.1981 33.2084 32.8547 33.4803 33.5393 33.4803C34.2238 33.4803 34.8804 33.2084 35.3645 32.7243C35.8485 32.2402 36.1205 31.5837 36.1205 30.8991C36.1197 30.3836 35.9646 29.8802 35.6752 29.4536H35.6817ZM48.6716 30.0989C48.161 30.0989 47.662 30.2503 47.2375 30.534C46.813 30.8176 46.4822 31.2207 46.2868 31.6924C46.0915 32.164 46.0404 32.683 46.14 33.1837C46.2395 33.6844 46.4854 34.1443 46.8464 34.5053C47.2074 34.8663 47.6673 35.1122 48.168 35.2117C48.6687 35.3113 49.1877 35.2602 49.6593 35.0649C50.131 34.8695 50.5341 34.5387 50.8177 34.1142C51.1014 33.6897 51.2528 33.1907 51.2528 32.6801C51.2536 32.3401 51.1873 32.0032 51.0575 31.6889C50.9278 31.3746 50.7372 31.089 50.4968 30.8485C50.2563 30.608 49.9707 30.4175 49.6564 30.2877C49.342 30.158 49.0052 30.0916 48.6651 30.0925L48.6716 30.0989ZM59.2609 40.0753C58.7504 40.0753 58.2514 40.2267 57.8269 40.5103C57.4024 40.7939 57.0716 41.1971 56.8762 41.6687C56.6809 42.1404 56.6297 42.6594 56.7293 43.1601C56.8289 43.6608 57.0748 44.1207 57.4358 44.4817C57.7967 44.8427 58.2567 45.0885 58.7574 45.1881C59.2581 45.2877 59.7771 45.2366 60.2487 45.0412C60.7204 44.8458 61.1235 44.515 61.4071 44.0905C61.6908 43.666 61.8421 43.167 61.8421 42.6565C61.843 42.3164 61.7766 41.9796 61.6469 41.6652C61.5172 41.3509 61.3266 41.0653 61.0861 40.8248C60.8457 40.5844 60.5601 40.3938 60.2457 40.2641C59.9314 40.1343 59.5945 40.068 59.2545 40.0688L59.2609 40.0753ZM78.7555 37.4941C78.245 37.4941 77.7459 37.6455 77.3214 37.9291C76.8969 38.2127 76.5661 38.6159 76.3707 39.0875C76.1754 39.5592 76.1243 40.0782 76.2239 40.5789C76.3235 41.0796 76.5693 41.5395 76.9303 41.9005C77.2913 42.2615 77.7512 42.5073 78.2519 42.6069C78.7526 42.7065 79.2716 42.6554 79.7432 42.46C80.2149 42.2646 80.618 41.9338 80.9017 41.5093C81.1853 41.0848 81.3367 40.5858 81.3367 40.0753C81.3392 39.7342 81.2741 39.3959 81.1452 39.0801C81.0162 38.7642 80.8259 38.4771 80.5853 38.2353C80.3446 37.9935 80.0585 37.8017 79.7433 37.6712C79.4281 37.5406 79.0902 37.4739 78.749 37.4747L78.7555 37.4941ZM84.3889 56.4272C83.8784 56.4272 83.3794 56.5786 82.9549 56.8622C82.5304 57.1458 82.1996 57.549 82.0042 58.0206C81.8089 58.4923 81.7577 59.0113 81.8573 59.512C81.9569 60.0127 82.2028 60.4726 82.5638 60.8336C82.9247 61.1946 83.3847 61.4404 83.8854 61.54C84.3861 61.6396 84.9051 61.5885 85.3767 61.3931C85.8484 61.1978 86.2515 60.8669 86.5351 60.4424C86.8188 60.018 86.9701 59.5189 86.9701 59.0084C86.9727 58.6673 86.9076 58.329 86.7786 58.0132C86.6497 57.6973 86.4594 57.4102 86.2187 57.1684C85.9781 56.9266 85.6919 56.7348 85.3768 56.6043C85.0616 56.4738 84.7236 56.407 84.3825 56.4078L84.3889 56.4272ZM90.4999 85.1173C90.0078 85.1153 89.5258 85.2565 89.1125 85.5238C89.7578 87.0725 90.3063 88.6664 90.8097 90.2926C91.4943 90.2515 92.1345 89.9402 92.5895 89.427C93.0445 88.9139 93.2771 88.2411 93.236 87.5565C93.1949 86.8719 92.8836 86.2317 92.3705 85.7767C91.8574 85.3216 91.1845 85.0891 90.4999 85.1302V85.1173ZM78.749 66.8036C78.5469 66.8042 78.3455 66.828 78.1489 66.8746C79.1297 68.1093 80.0783 69.3805 80.9947 70.6883C81.2253 70.2975 81.3458 69.8515 81.3431 69.3977C81.3448 69.0566 81.2789 68.7185 81.1491 68.403C81.0194 68.0875 80.8284 67.8008 80.5871 67.5596C80.3459 67.3184 80.0593 67.1274 79.7438 66.9976C79.4283 66.8678 79.0902 66.8019 78.749 66.8036ZM90.6935 46.7993C90.3482 46.9556 90.0415 47.186 89.7953 47.4741C89.5491 47.7623 89.3694 48.1011 89.2689 48.4666C89.1684 48.832 89.1496 49.2152 89.2139 49.5887C89.2781 49.9622 89.4239 50.317 89.6408 50.6279C89.8576 50.9387 90.1403 51.198 90.4687 51.3873C90.7971 51.5765 91.1631 51.6912 91.5408 51.723C91.9185 51.7549 92.2985 51.7032 92.654 51.5715C93.0094 51.4399 93.3315 51.2316 93.5974 50.9615C92.7262 49.5548 91.7583 48.1544 90.6935 46.7541V46.7993ZM91.6937 69.8946C91.1832 69.8946 90.6842 70.046 90.2597 70.3296C89.8352 70.6133 89.5044 71.0164 89.309 71.488C89.1137 71.9597 89.0625 72.4787 89.1621 72.9794C89.2617 73.4801 89.5076 73.94 89.8686 74.301C90.2295 74.662 90.6895 74.9078 91.1902 75.0074C91.6909 75.107 92.2099 75.0559 92.6815 74.8605C93.1532 74.6652 93.5563 74.3343 93.8399 73.9099C94.1236 73.4854 94.2749 72.9863 94.2749 72.4758C94.2809 72.1331 94.2186 71.7926 94.0916 71.4742C93.9645 71.1558 93.7754 70.8658 93.5351 70.6214C93.2948 70.3769 93.0082 70.1827 92.6921 70.0502C92.3759 69.9176 92.0366 69.8494 91.6937 69.8495V69.8946ZM98.5985 76.851C98.5981 77.217 98.6756 77.5788 98.8258 77.9126C98.976 78.2464 99.1955 78.5444 99.4696 78.7869C99.5922 77.4963 99.689 75.9927 99.7342 74.715C99.3911 74.9469 99.1087 75.2578 98.911 75.6217C98.7134 75.9856 98.6062 76.3917 98.5985 76.8058V76.851ZM98.0177 59.1181C97.6808 59.1562 97.3548 59.2603 97.0582 59.4245C96.7616 59.5886 96.5002 59.8096 96.289 60.0747C96.0777 60.3399 95.9208 60.644 95.8271 60.9698C95.7335 61.2956 95.7049 61.6367 95.743 61.9736C95.7811 62.3104 95.8852 62.6364 96.0494 62.9331C96.2135 63.2297 96.4345 63.4911 96.6996 63.7023C96.9648 63.9135 97.2689 64.0704 97.5947 64.1641C97.9205 64.2578 98.2616 64.2864 98.5985 64.2482C99.0541 64.2454 99.5003 64.1182 99.8891 63.8804C99.5729 62.8092 98.9534 61.1379 98.0177 59.06V59.1181Z" fill="white"/>
<path opacity="0.1" d="M95.9141 87.6985C95.6159 85.8818 95.1404 84.0987 94.4944 82.3748C93.9137 80.626 93.2748 78.9031 92.6231 77.1801C91.3325 73.7406 89.9773 70.3077 88.4931 66.9456C88.1253 66.1068 87.764 65.2485 87.3445 64.4548C86.872 63.6938 86.3157 62.9882 85.6861 62.3511C84.4471 61.0089 83.1049 59.7699 81.7691 58.4793C80.4333 57.1887 79.0718 55.9691 77.7037 54.7366L73.5996 51.0325C76.5121 53.2997 79.3471 55.6658 82.1047 58.1308C83.4921 59.3505 84.8343 60.6217 86.1184 61.9639C86.7917 62.6306 87.385 63.3734 87.8866 64.1773C88.3383 65.0097 88.7061 65.8551 89.0804 66.7004C90.5258 70.099 91.8616 73.5406 93.0877 77.0252C93.6878 78.774 94.275 80.5228 94.7913 82.2909C95.0494 83.1814 95.2946 84.0719 95.5011 84.9753C95.7314 85.8666 95.8698 86.7791 95.9141 87.6985Z" fill="#050400"/>
<path opacity="0.1" d="M83.6985 51.7488C87.3966 54.1658 90.7522 57.0699 93.6748 60.383C95.1543 62.0402 96.4522 63.8509 97.5466 65.7841C98.6459 67.7096 99.3829 69.8201 99.7213 72.0113C99.5535 71.4821 99.3922 70.9594 99.2438 70.4367C99.1719 70.172 99.0747 69.9149 98.9534 69.6688L98.6307 68.9203C98.521 68.6686 98.4307 68.4169 98.3145 68.1717L97.9274 67.449C97.6563 66.9779 97.4369 66.481 97.1207 66.0293L96.2367 64.6613L95.2687 63.3384C94.959 62.8932 94.6234 62.4802 94.2621 62.0478C93.9007 61.6155 93.5845 61.196 93.2102 60.796C91.7875 59.1482 90.2798 57.5758 88.6931 56.0853C87.9058 55.3238 87.0928 54.5946 86.2603 53.8719C85.4279 53.1491 84.5503 52.4458 83.6985 51.7488Z" fill="#050400"/>
<path opacity="0.1" d="M13.9158 63.9643C14.3759 61.9172 15.0239 59.9169 15.8517 57.9889C16.6131 56.053 17.452 54.1171 18.3167 52.2263C19.1651 50.306 20.1106 48.43 21.1496 46.6058C22.271 44.8233 23.6521 43.2182 25.2473 41.8434C24.5432 42.6115 23.8838 43.4195 23.2726 44.2633C22.6489 45.0841 22.0819 45.9465 21.5755 46.8445C21.0851 47.7479 20.6527 48.6901 20.2139 49.6387L18.9233 52.478L16.3421 58.1695C15.9033 59.1181 15.4903 60.1054 15.0515 61.0347C14.6116 61.9864 14.2323 62.9649 13.9158 63.9643Z" fill="#050400"/>
<path opacity="0.1" d="M14.3418 70.398C14.5285 68.9011 14.813 67.418 15.1936 65.9583C15.5473 64.4912 15.9781 63.0437 16.4842 61.6219C16.745 60.904 17.0466 60.2017 17.3876 59.5182C17.7554 58.8729 18.1039 58.1954 18.4911 57.5436L19.6139 55.6077C20.014 54.9624 20.3883 54.3171 20.8013 53.6718C20.5173 54.3687 20.1947 55.0528 19.8978 55.7432L18.9299 57.7759C18.6137 58.4599 18.2846 59.1246 17.9361 59.7957C17.6185 60.4644 17.3363 61.1494 17.0908 61.8478C16.5681 63.2481 16.1164 64.6742 15.6453 66.1003C15.413 66.8101 15.1871 67.5264 14.9677 68.2491C14.7612 68.9525 14.5547 69.6753 14.3418 70.398Z" fill="#050400"/>
<path opacity="0.1" d="M72.6832 32.1381C68.3791 35.6744 58.4866 43.6245 55.8473 44.173C54.9448 44.3225 54.0324 44.4044 53.1177 44.4182C48.867 41.5879 44.4057 39.0876 39.7729 36.9392C36.6406 38.8972 33.7001 41.1463 30.9903 43.6568C27.688 42.6478 24.4865 41.3343 21.427 39.7333C23.763 35.7454 26.4539 32.5124 29.3448 31.4541C35.1573 29.3556 41.1813 27.8972 47.31 27.1048C47.31 27.1048 57.6284 24.9301 72.6832 32.1381Z" fill="#050400"/>
<path d="M39.9472 31.0476C39.9472 31.0476 26.3314 21.2713 12.3284 25.3431C12.3284 25.3431 18.4006 38.3782 24.9246 40.7787C28.1511 41.9725 39.018 38.5073 39.5149 36.2616C39.8352 34.5427 39.9801 32.7957 39.9472 31.0476Z" fill="#8997D6"/>
<path opacity="0.3" d="M25.4861 24.9688C25.2417 25.4313 24.8625 25.8087 24.3989 26.0508C23.9352 26.293 23.4089 26.3886 22.8897 26.3249C22.3705 26.2612 21.8829 26.0413 21.4915 25.6942C21.1001 25.3472 20.8233 24.8894 20.6979 24.3816C22.3071 24.4488 23.9083 24.6452 25.4861 24.9688ZM19.0331 33.3577C18.43 33.3565 17.8455 33.5666 17.3811 33.9514C18.3817 35.366 19.4998 36.6936 20.7238 37.92C21.0038 37.6805 21.2293 37.3838 21.3851 37.0499C21.541 36.716 21.6235 36.3526 21.6272 35.9841C21.634 35.6424 21.573 35.3028 21.4475 34.9849C21.3221 34.6671 21.1348 34.3772 20.8964 34.1323C20.6581 33.8874 20.3735 33.6922 20.0592 33.5582C19.7449 33.4241 19.4071 33.3538 19.0653 33.3513L19.0331 33.3577ZM33.5072 28.3308C32.9966 28.3308 32.4976 28.4822 32.0731 28.7658C31.6486 29.0495 31.3178 29.4526 31.1224 29.9243C30.9271 30.3959 30.876 30.9149 30.9756 31.4156C31.0751 31.9163 31.321 32.3762 31.682 32.7372C32.043 33.0982 32.5029 33.344 33.0036 33.4436C33.5043 33.5432 34.0233 33.4921 34.4949 33.2968C34.9666 33.1014 35.3697 32.7706 35.6533 32.3461C35.937 31.9216 36.0884 31.4226 36.0884 30.912C36.0901 30.2319 35.8234 29.5785 35.3461 29.094C34.8688 28.6095 34.2195 28.3329 33.5394 28.3244L33.5072 28.3308Z" fill="white"/>
<path opacity="0.1" d="M39.9535 31.054C39.9736 32.7849 39.8266 34.5137 39.5147 36.2164C39.5011 36.3226 39.4587 36.423 39.3921 36.5068C39.3387 36.6265 39.2644 36.7358 39.1727 36.8294C39.1017 36.8875 39.0436 36.965 38.9468 37.0424C37.9466 38.0039 35.7203 39.0106 33.2875 39.7656C32.7677 37.6838 32.4436 35.5579 32.3196 33.4158C32.2744 31.7445 33.4747 29.7763 34.7911 28.105C36.5929 28.9388 38.32 29.9254 39.9535 31.054Z" fill="#050400"/>
<path d="M43.974 31.4993C43.974 31.4993 61.3971 20.8454 72.0317 21.1358C72.0317 21.1358 71.2057 32.8802 62.8878 39.2042C59.1644 42.0241 43.7675 39.5527 43.5288 37.0876C43.4165 35.2132 43.5664 33.3323 43.974 31.4993Z" fill="#8997D6"/>
<path opacity="0.3" d="M69.0825 30.0926C69.0825 30.6031 68.9311 31.1021 68.6475 31.5266C68.3639 31.9511 67.9607 32.2819 67.4891 32.4773C67.0174 32.6726 66.4984 32.7238 65.9977 32.6242C65.497 32.5246 65.0371 32.2787 64.6761 31.9177C64.3151 31.5568 64.0693 31.0968 63.9697 30.5961C63.8701 30.0954 63.9212 29.5764 64.1166 29.1048C64.3119 28.6331 64.6428 28.23 65.0673 27.9464C65.4917 27.6627 65.9908 27.5114 66.5013 27.5114C67.1859 27.5114 67.8424 27.7833 68.3265 28.2674C68.8105 28.7514 69.0825 29.408 69.0825 30.0926ZM48.6652 30.0926C48.1547 30.0926 47.6556 30.2439 47.2312 30.5276C46.8067 30.8112 46.4758 31.2143 46.2805 31.686C46.0851 32.1576 46.034 32.6766 46.1336 33.1773C46.2332 33.678 46.479 34.138 46.84 34.4989C47.201 34.8599 47.6609 35.1058 48.1616 35.2054C48.6623 35.305 49.1813 35.2538 49.653 35.0585C50.1246 34.8631 50.5278 34.5323 50.8114 34.1078C51.095 33.6833 51.2464 33.1843 51.2464 32.6738C51.2464 31.9892 50.9744 31.3326 50.4904 30.8486C50.0063 30.3645 49.3498 30.0926 48.6652 30.0926ZM59.2546 40.0689C58.8136 40.0668 58.3797 40.1802 57.9962 40.398C58.6774 40.3672 59.3562 40.2961 60.0289 40.1851C59.7782 40.1072 59.5171 40.068 59.2546 40.0689Z" fill="white"/>
<path opacity="0.1" d="M47.994 29.2149C49.0588 30.8023 50.2784 33.1964 50.2397 35.513C50.1441 36.9399 49.7459 38.3302 49.0717 39.5913C45.9807 38.946 43.6253 38.0039 43.5092 37.0101C43.4104 35.1477 43.5667 33.2806 43.9738 31.4605C43.9738 31.4605 45.5225 30.5378 47.994 29.2149Z" fill="#050400"/>
<path d="M47.6844 34.9C47.5753 36.2059 47.0815 37.4502 46.2654 38.4755C45.4493 39.5008 44.3476 40.2612 43.0995 40.6605C41.8513 41.0598 40.5128 41.0801 39.2531 40.7189C37.9935 40.3576 36.8692 39.631 36.0224 38.6309C35.1756 37.6308 34.6443 36.4021 34.4956 35.1001C34.347 33.7981 34.5877 32.4812 35.1874 31.316C35.787 30.1508 36.7186 29.1895 37.8645 28.5536C39.0103 27.9178 40.319 27.6359 41.625 27.7436C43.3772 27.8899 44.9996 28.7258 46.1358 30.0677C47.272 31.4096 47.829 33.1477 47.6844 34.9Z" fill="#8997D6"/>
</svg>
