<svg width="29" height="28" viewBox="0 0 29 28" fill="none" xmlns="http://www.w3.org/2000/svg">
<ellipse cx="14.3345" cy="14" rx="14.3345" ry="14" fill="#C3BED6"/>
<g clip-path="url(#clip0_711_610)">
<path fill-rule="evenodd" clip-rule="evenodd" d="M13.3107 6C13.3107 6.26522 13.4186 6.51957 13.6106 6.70711C13.8026 6.89464 14.0631 7 14.3346 7H19.0302L13.6107 12.293C13.4676 12.4329 13.3701 12.611 13.3306 12.805C13.2911 12.9989 13.3114 13.2 13.3889 13.3827C13.4663 13.5654 13.5975 13.7215 13.7659 13.8314C13.9342 13.9413 14.1321 14 14.3346 14H21.5018C21.7734 14 22.0338 13.8946 22.2258 13.7071C22.4179 13.5196 22.5257 13.2652 22.5257 13C22.5257 12.7348 22.4179 12.4804 22.2258 12.2929C22.0338 12.1054 21.7734 12 21.5018 12H16.8063L22.2257 6.707C22.3689 6.56715 22.4664 6.38898 22.5059 6.19503C22.5453 6.00108 22.5251 5.80005 22.4476 5.61735C22.3701 5.43465 22.2389 5.27848 22.0706 5.1686C21.9022 5.05871 21.7043 5.00004 21.5018 5H14.3346C14.0631 5 13.8026 5.10536 13.6106 5.29289C13.4186 5.48043 13.3107 5.73478 13.3107 6ZM5.11959 12C4.84804 12 4.58761 11.8946 4.39559 11.7071C4.20358 11.5196 4.0957 11.2652 4.0957 11C4.0957 10.7348 4.20358 10.4804 4.39559 10.2929C4.58761 10.1054 4.84804 10 5.11959 10H10.239C10.4415 10 10.6394 10.0587 10.8078 10.1686C10.9761 10.2785 11.1073 10.4346 11.1848 10.6173C11.2623 10.8 11.2825 11.0011 11.2431 11.195C11.2036 11.389 11.1061 11.5671 10.9629 11.707L7.59127 15H10.239C10.5106 15 10.771 15.1054 10.963 15.2929C11.1551 15.4804 11.2629 15.7348 11.2629 16C11.2629 16.2652 11.1551 16.5196 10.963 16.7071C10.771 16.8946 10.5106 17 10.239 17H5.11959C4.91712 17 4.7192 16.9413 4.55087 16.8314C4.38253 16.7215 4.25133 16.5654 4.17385 16.3827C4.09637 16.2 4.07609 15.9989 4.11558 15.805C4.15507 15.611 4.25255 15.4329 4.3957 15.293L7.76738 12H5.11959ZM13.3107 19C13.0392 19 12.7787 18.8946 12.5867 18.7071C12.3947 18.5196 12.2868 18.2652 12.2868 18C12.2868 17.7348 12.3947 17.4804 12.5867 17.2929C12.7787 17.1054 13.0392 17 13.3107 17H17.4063C17.6088 17 17.8067 17.0587 17.975 17.1686C18.1434 17.2785 18.2746 17.4346 18.352 17.6173C18.4295 17.8 18.4498 18.0011 18.4103 18.195C18.3708 18.389 18.2733 18.5671 18.1302 18.707L15.7824 21H17.4063C17.6778 21 17.9383 21.1054 18.1303 21.2929C18.3223 21.4804 18.4302 21.7348 18.4302 22C18.4302 22.2652 18.3223 22.5196 18.1303 22.7071C17.9383 22.8946 17.6778 23 17.4063 23H13.3107C13.1082 23 12.9103 22.9413 12.742 22.8314C12.5737 22.7215 12.4425 22.5654 12.365 22.3827C12.2875 22.2 12.2672 21.9989 12.3067 21.805C12.3462 21.611 12.4437 21.4329 12.5868 21.293L14.9346 19H13.3107Z" fill="white"/>
</g>
<defs>
<clipPath id="clip0_711_610">
<rect width="24.5734" height="24" fill="white" transform="translate(1.02393 2)"/>
</clipPath>
</defs>
</svg>
