<svg width="29" height="28" viewBox="0 0 29 28" fill="none" xmlns="http://www.w3.org/2000/svg">
<ellipse cx="14.3345" cy="14" rx="14.3345" ry="14" fill="#C3BED6"/>
<path d="M14.5022 4.68931L14.4989 4.75865C14.4905 4.92656 14.4844 5.08148 14.4894 5.22827M14.5022 4.68931L14.7519 4.702L14.7486 4.77063L14.7486 4.77102C14.7402 4.93881 14.7347 5.08441 14.7393 5.21969M14.5022 4.68931C14.5053 4.62724 14.5086 4.56257 14.5113 4.49735L13.145 4.61749L13.145 4.6166C13.1523 4.47072 13.1579 4.35705 13.1579 4.25273V4.00395L13.4067 4.00273L14.5159 3.99732L14.7672 3.99609V4.24731C14.7672 4.39916 14.759 4.56074 14.7519 4.70149L14.7519 4.70129L14.5022 4.68931ZM14.7393 5.21969C14.7393 5.21951 14.7393 5.21934 14.7393 5.21917L14.4894 5.22827M14.7393 5.21969C14.7393 5.21972 14.7393 5.21975 14.7393 5.21978L14.4894 5.22827M14.7393 5.21969C14.7498 5.50518 14.8042 5.61364 14.8411 5.65629M14.4894 5.22827C14.5005 5.53269 14.5588 5.71198 14.6519 5.81977M14.6519 5.81977L14.841 5.65622C14.841 5.65624 14.8411 5.65626 14.8411 5.65629M14.6519 5.81977C14.7878 5.97686 14.9237 6.03265 15.0845 6.04673M14.6519 5.81977L14.8411 5.65629M14.8411 5.65629C14.9319 5.76122 15.0063 5.78892 15.1063 5.79768L15.0845 6.04673M15.0845 6.04673L15.1061 5.79766C15.245 5.80967 15.4463 5.77975 15.7547 5.68593M15.0845 6.04673L15.7547 5.68593M15.8283 5.92486C16.0093 5.86849 16.1888 5.8078 16.3668 5.74286C16.378 5.7389 16.3892 5.73493 16.4004 5.73094C16.5436 5.68026 16.6942 5.62694 16.8443 5.57873C17.202 5.46336 17.6113 5.35556 18.0256 5.35556C20.6894 5.35556 22.2695 7.38681 23.3099 9.19977M15.8283 5.92486L13.3908 4.70611C13.3824 4.87619 13.3741 5.07065 13.3813 5.26619C13.3952 5.64752 13.4678 6.12852 13.8034 6.51744M15.8283 5.92486L15.7554 5.6857C15.7552 5.68577 15.7549 5.68585 15.7547 5.68593M15.8283 5.92486L15.7539 5.68616C15.7542 5.68609 15.7544 5.68601 15.7547 5.68593M23.3099 9.19977C24.5877 11.426 24.5339 14.2053 23.1729 16.3844C22.2778 17.8177 21.1336 19.0592 19.3988 19.7179M23.3099 9.19977L23.5267 9.07532C23.5267 9.07533 23.5267 9.07533 23.5267 9.07534M23.3099 9.19977L23.5267 9.07534M19.3988 19.7179C16.8826 20.6739 14.1056 20.3039 11.8173 19.2006C11.3082 18.9546 10.7098 19.3327 10.7098 19.8137V22.9584V23.2084H10.4598H9.85057H9.60057V22.9584V19.8137C9.60057 18.4319 11.1535 17.672 12.3087 18.2288C14.3841 19.2298 16.8327 19.5304 18.9967 18.7082C20.4204 18.1676 21.4004 17.1417 22.2262 15.82M19.3988 19.7179L19.4876 19.9516M19.3988 19.7179L19.4876 19.9516M22.2262 15.82C23.3781 13.9751 23.4242 11.614 22.3427 9.72952M22.2262 15.82L22.0142 15.6876M22.2262 15.82L22.0142 15.6876C22.0142 15.6876 22.0142 15.6876 22.0142 15.6876M22.3427 9.72952C21.315 7.93931 20.0183 6.4389 18.0262 6.4389C17.7932 6.4389 17.5215 6.50119 17.192 6.60736M22.3427 9.72952L22.1258 9.85396M22.3427 9.72952L22.1259 9.85399C22.1259 9.85398 22.1259 9.85397 22.1258 9.85396M17.192 6.60736C17.0531 6.65225 16.9131 6.70157 16.7659 6.75344L16.7439 6.76119M17.192 6.60736L17.2687 6.84531C17.2688 6.84529 17.2688 6.84527 17.2689 6.84525M17.192 6.60736L17.2689 6.84525M16.7439 6.76119L16.6918 6.78015C16.5204 6.84027 16.3396 6.90365 16.1588 6.9589C15.805 7.06669 15.3968 7.16094 14.9869 7.12573C14.5493 7.08781 14.1378 6.90527 13.8034 6.51744M16.7439 6.76119L16.827 6.99698L16.7677 5.34075C17.132 5.22328 17.5713 5.10556 18.0256 5.10556C20.8379 5.10556 22.4822 7.25515 23.5267 9.07534M16.7439 6.76119L16.8294 6.99614L16.8479 6.98963C16.996 6.93742 17.1332 6.88911 17.2689 6.84525M13.8034 6.51744L13.6141 6.6807C13.6141 6.68072 13.6141 6.68073 13.6141 6.68075L13.8034 6.51744ZM17.2689 6.84525C17.592 6.74113 17.8334 6.6889 18.0262 6.6889C19.8701 6.6889 21.1026 8.07155 22.1258 9.85396M22.1258 9.85396C23.1613 11.6582 23.1174 13.9206 22.0142 15.6876M22.0142 15.6876C21.2048 16.9829 20.2623 17.9602 18.908 18.4745L18.9079 18.4745C16.8216 19.2672 14.4452 18.9818 12.4173 18.0036L12.4173 18.0036C11.7601 17.6869 10.9976 17.7469 10.4009 18.0753C9.80004 18.4059 9.35057 19.0191 9.35057 19.8137V23.2084V23.4584H9.60057H10.7098H10.9598V23.2084V19.8137C10.9598 19.681 11.0443 19.5402 11.1982 19.4507C11.3488 19.3632 11.5378 19.3432 11.7086 19.4257L11.7088 19.4258C14.0444 20.5519 16.8935 20.9372 19.4876 19.9516M19.4876 19.9516C21.2919 19.2665 22.4734 17.9764 23.385 16.5169C24.7947 14.2597 24.8506 11.3817 23.5267 9.07534M14.8272 13.4399L15.0621 13.5254C15.4403 12.4864 15.194 11.3006 14.1092 10.4434L14.1083 10.4426L13.7406 10.155L13.7403 10.1547C12.9079 9.5057 12.2216 8.96717 11.7592 8.20602L11.7592 8.20601C11.0966 7.11541 11.0918 5.94276 11.0929 4.45225V4.45206V4.25002V4.00002H10.8429H9.73367H9.48367V4.25002V4.52376V4.52411L9.48362 4.54512C9.47975 5.94285 9.47534 7.53278 10.378 9.01865C11.0025 10.0474 11.9311 10.7682 12.735 11.3922L12.7538 11.4068L12.7542 11.4071C12.8727 11.4988 12.9886 11.5891 13.1018 11.6782C13.3797 11.8979 13.5231 12.1251 13.5833 12.3387C13.6436 12.5531 13.6262 12.7746 13.5474 12.9921C13.3758 13.4639 12.9058 13.9175 12.2861 14.091C11.8087 14.2204 11.3274 14.3356 10.8429 14.4367L10.8429 14.4367L10.8404 14.4372L10.5016 14.5114L10.5007 14.5116C9.9359 14.6375 9.36135 14.7765 8.82308 14.994L8.82306 14.994C7.67519 15.4579 6.76444 16.252 6.10993 17.8193C5.826 18.4976 5.68018 19.2232 5.68018 19.9551V23.2084V23.4584H5.93018H7.03939H7.28939V23.2084L7.28939 19.9554C7.28939 19.9553 7.28939 19.9553 7.28939 19.9552C7.28993 19.4294 7.39462 18.9084 7.59784 18.4211C7.84981 17.818 8.12722 17.4037 8.42735 17.1041C8.72653 16.8054 9.05847 16.6104 9.43457 16.4586L9.43476 16.4586C9.83692 16.2959 10.2954 16.1804 10.8557 16.056C10.8558 16.056 10.8559 16.056 10.856 16.056L11.1768 15.9857C11.1769 15.9857 11.1769 15.9857 11.1769 15.9857C11.177 15.9857 11.177 15.9857 11.177 15.9857C11.6455 15.8835 12.1706 15.7689 12.7247 15.6145L12.7249 15.6144C13.8121 15.3102 14.7052 14.5097 15.0622 13.5252L14.8272 13.4399ZM14.8272 13.4399C15.1688 12.5012 14.9536 11.4293 13.9542 10.6395L11.1235 15.7415C11.5927 15.6391 12.1113 15.5259 12.6576 15.3737C13.6736 15.0893 14.5 14.3424 14.8272 13.4399ZM13.1449 4.61783L13.1411 4.69332L13.1411 4.69389C13.1327 4.86405 13.1239 5.06799 13.1315 5.27527C13.1315 5.27532 13.1315 5.27536 13.1315 5.2754L13.1449 4.61783Z" fill="white" stroke="white" stroke-width="0.5"/>
</svg>
