<svg width="28" height="28" viewBox="0 0 28 28" fill="none" xmlns="http://www.w3.org/2000/svg">
<circle cx="14" cy="14" r="14" fill="#C3BED6"/>
<mask id="path-2-outside-1_1080_264" maskUnits="userSpaceOnUse" x="5" y="12" width="17" height="5" fill="black">
<rect fill="white" x="5" y="12" width="17" height="5"/>
<path d="M7.88281 15.8359C7.0625 15.8359 6.39844 15.1797 6.39844 14.3594C6.39844 13.5391 7.0625 12.875 7.88281 12.875C8.70312 12.875 9.35938 13.5391 9.35938 14.3594C9.35938 15.1797 8.70312 15.8359 7.88281 15.8359ZM13.6875 15.8359C12.8672 15.8359 12.2031 15.1797 12.2031 14.3594C12.2031 13.5391 12.8672 12.875 13.6875 12.875C14.5078 12.875 15.1641 13.5391 15.1641 14.3594C15.1641 15.1797 14.5078 15.8359 13.6875 15.8359ZM19.4922 15.8359C18.6719 15.8359 18.0078 15.1797 18.0078 14.3594C18.0078 13.5391 18.6719 12.875 19.4922 12.875C20.3125 12.875 20.9766 13.5391 20.9766 14.3594C20.9766 15.1797 20.3125 15.8359 19.4922 15.8359Z"/>
</mask>
<path d="M7.88281 15.8359C7.0625 15.8359 6.39844 15.1797 6.39844 14.3594C6.39844 13.5391 7.0625 12.875 7.88281 12.875C8.70312 12.875 9.35938 13.5391 9.35938 14.3594C9.35938 15.1797 8.70312 15.8359 7.88281 15.8359ZM13.6875 15.8359C12.8672 15.8359 12.2031 15.1797 12.2031 14.3594C12.2031 13.5391 12.8672 12.875 13.6875 12.875C14.5078 12.875 15.1641 13.5391 15.1641 14.3594C15.1641 15.1797 14.5078 15.8359 13.6875 15.8359ZM19.4922 15.8359C18.6719 15.8359 18.0078 15.1797 18.0078 14.3594C18.0078 13.5391 18.6719 12.875 19.4922 12.875C20.3125 12.875 20.9766 13.5391 20.9766 14.3594C20.9766 15.1797 20.3125 15.8359 19.4922 15.8359Z" fill="white"/>
<path d="M7.88281 15.0359C7.49881 15.0359 7.19844 14.7324 7.19844 14.3594H5.59844C5.59844 15.627 6.62619 16.6359 7.88281 16.6359V15.0359ZM7.19844 14.3594C7.19844 13.9809 7.50433 13.675 7.88281 13.675V12.075C6.62067 12.075 5.59844 13.0972 5.59844 14.3594H7.19844ZM7.88281 13.675C8.2558 13.675 8.55938 13.9754 8.55938 14.3594H10.1594C10.1594 13.1027 9.15045 12.075 7.88281 12.075V13.675ZM8.55938 14.3594C8.55938 14.7379 8.2613 15.0359 7.88281 15.0359V16.6359C9.14495 16.6359 10.1594 15.6215 10.1594 14.3594H8.55938ZM13.6875 15.0359C13.3035 15.0359 13.0031 14.7324 13.0031 14.3594H11.4031C11.4031 15.627 12.4309 16.6359 13.6875 16.6359V15.0359ZM13.0031 14.3594C13.0031 13.9809 13.309 13.675 13.6875 13.675V12.075C12.4254 12.075 11.4031 13.0972 11.4031 14.3594H13.0031ZM13.6875 13.675C14.0605 13.675 14.3641 13.9754 14.3641 14.3594H15.9641C15.9641 13.1027 14.9551 12.075 13.6875 12.075V13.675ZM14.3641 14.3594C14.3641 14.7379 14.066 15.0359 13.6875 15.0359V16.6359C14.9496 16.6359 15.9641 15.6215 15.9641 14.3594H14.3641ZM19.4922 15.0359C19.1082 15.0359 18.8078 14.7324 18.8078 14.3594H17.2078C17.2078 15.627 18.2356 16.6359 19.4922 16.6359V15.0359ZM18.8078 14.3594C18.8078 13.9809 19.1137 13.675 19.4922 13.675V12.075C18.23 12.075 17.2078 13.0972 17.2078 14.3594H18.8078ZM19.4922 13.675C19.8707 13.675 20.1766 13.9809 20.1766 14.3594H21.7766C21.7766 13.0972 20.7543 12.075 19.4922 12.075V13.675ZM20.1766 14.3594C20.1766 14.7324 19.8762 15.0359 19.4922 15.0359V16.6359C20.7488 16.6359 21.7766 15.627 21.7766 14.3594H20.1766Z" fill="white" mask="url(#path-2-outside-1_1080_264)"/>
</svg>
