<svg width="92" height="92" viewBox="0 0 92 92" fill="none" xmlns="http://www.w3.org/2000/svg">
<path d="M23.9311 56.4928C23.9311 56.4928 23.3601 44.7628 38.3597 44.3315L57.2081 59.4744L45.3124 67.436C45.3124 67.436 40.359 61.1298 23.9311 56.4928Z" fill="#FFCEC7"/>
<path d="M40.7821 46.2774L39.8811 46.2755C39.4925 46.2755 39.1081 46.3557 38.7519 46.5111C38.3958 46.6666 38.0756 46.8939 37.8113 47.1788C37.5471 47.4637 37.3446 47.8002 37.2164 48.167C37.0882 48.5339 37.0372 48.9232 37.0665 49.3107C37.1673 50.6506 37.447 51.971 37.898 53.2366C35.5872 52.0909 33.7053 51.5203 32.2248 51.268C30.3875 50.955 29.1275 53.068 30.2727 54.5384L34.8973 60.476C42.6809 64.0872 45.3126 67.4359 45.3126 67.4359L57.2083 59.4744L40.7821 46.2774Z" fill="#E88B89"/>
<path d="M66.7671 50.1428C66.9645 50.2581 67.1497 50.3931 67.3199 50.5456C67.8714 51.0264 68.2582 51.6682 68.4258 52.3804C68.5948 53.1221 68.5395 53.8974 68.2667 54.6076C67.994 55.3178 67.5162 55.9308 66.8941 56.3687C66.1515 56.9038 65.3591 57.3662 64.5279 57.7494C63.4666 58.2299 62.6568 59.1032 62.1403 60.1474C60.2788 63.9104 56.1795 70.2129 49.5594 71.0722C47.1866 71.3802 45.1743 69.2852 45.3194 66.8969C45.4042 65.5102 45.9466 63.8617 47.4627 62.1303C47.7281 61.8486 47.9934 61.5792 48.2584 61.3222L53.4836 57.7805C58.7174 54.3962 64.7118 50.2206 66.7671 50.1428Z" fill="#FFCEC7"/>
<path d="M62.7037 55.8C62.2945 55.8004 61.8901 55.7124 61.518 55.542C61.146 55.3716 60.8151 55.123 60.5481 54.813L60.3479 54.5813C60.2967 54.5236 60.2575 54.4562 60.2325 54.3832C60.2076 54.3102 60.1973 54.2329 60.2025 54.1559C60.2076 54.0789 60.2279 54.0037 60.2624 53.9346C60.2968 53.8655 60.3446 53.8039 60.403 53.7535C60.4614 53.703 60.5292 53.6646 60.6025 53.6406C60.6759 53.6165 60.7533 53.6073 60.8302 53.6134C60.9072 53.6195 60.9821 53.6408 61.0508 53.6761C61.1194 53.7114 61.1803 53.76 61.2301 53.819L61.4302 54.0505C61.7124 54.3778 62.1099 54.5838 62.5401 54.6256C62.9703 54.6674 63.4 54.5419 63.74 54.2751L64.4222 53.7411C64.544 53.647 64.6981 53.6049 64.8509 53.624C65.0037 53.6431 65.1427 53.7218 65.2376 53.843C65.3325 53.9643 65.3756 54.1181 65.3575 54.271C65.3394 54.4239 65.2615 54.5634 65.1409 54.6591L64.4588 55.1933C63.9583 55.5865 63.3402 55.8002 62.7037 55.8Z" fill="#E88B89"/>
<path d="M63.4301 52.5695C65.0453 51.3132 66.2447 50.4914 66.7662 50.1445C64.7596 48.9832 62.6293 50.7522 62.6293 50.7522L53.4842 57.78C51.7524 58.4543 50.011 59.6223 48.2593 61.322C55.5247 63.0882 58.8651 58.1449 58.8651 58.1449C58.8651 58.1449 61.2347 54.2771 63.4301 52.5695Z" fill="#E88B89"/>
<path d="M45.6625 35.5281C45.677 34.8531 45.5663 34.1812 45.336 33.5466C44.753 31.991 42.8152 31.4524 41.4485 32.4587C40.7751 32.9542 40.0387 33.7538 39.3727 35.0414C37.4956 38.6705 41.0912 40.9952 41.0912 40.9952L45.6625 35.5281Z" fill="#E88B89"/>
<path d="M68.0858 46.804C70.0955 43.5929 71.4263 38.1946 64.9114 31.7174C58.3965 25.2403 53.0061 26.6025 49.8064 28.6307C48.3419 29.5722 47.0879 30.8065 46.1232 32.2559C44.6877 34.3748 42.9442 36.2677 40.9504 37.8724C39.7703 38.7978 38.8201 39.9833 38.1738 41.3365C36.4554 45.0147 37.3802 48.6426 38.6726 51.2875C40.121 54.2494 42.5236 56.6381 45.4939 58.0693C48.1462 59.3462 51.7797 60.25 55.4473 58.5103C56.7968 57.8563 57.9768 56.8991 58.8952 55.7136C60.4882 53.7106 62.371 51.9562 64.4814 50.5083C65.9255 49.5353 67.1526 48.2741 68.0858 46.804Z" fill="#FFCEC7"/>
<path d="M26.4217 52.1202C26.3384 52.1697 26.2553 52.2209 26.1724 52.2738C23.2765 54.1336 23.1773 58.2902 25.9203 60.3687C26.1101 60.5125 26.3079 60.6499 26.5139 60.781C29.3191 62.565 33.4712 64.1942 39.6119 65.0157C39.683 65.9159 39.9929 66.7809 40.5095 67.5216C41.0261 68.2623 41.7308 68.8518 42.551 69.2296C44.3954 70.0996 46.3776 68.3402 45.7287 66.4069C44.3295 62.2428 40.8184 56.5414 32.7318 52.2485C30.7792 51.212 28.3254 50.997 26.4217 52.1202Z" fill="#FFCEC7"/>
<path d="M61.2492 40.2006C61.2138 40.2006 61.1783 40.1999 61.1425 40.1989C60.1588 40.1664 59.2644 39.6987 58.484 38.8084C58.2647 38.5601 58.0834 38.2807 57.946 37.9794C57.2749 36.5398 57.9124 35.2071 58.8419 34.5249C59.7507 33.8579 61.181 33.654 62.3274 34.702C62.364 34.7355 62.4007 34.7706 62.4374 34.8071C62.4916 34.8611 62.5347 34.9253 62.5641 34.996C62.5935 35.0667 62.6087 35.1425 62.6088 35.2191C62.609 35.2956 62.594 35.3715 62.5648 35.4423C62.5356 35.513 62.4928 35.5774 62.4387 35.6316C62.3847 35.6858 62.3205 35.7289 62.2498 35.7583C62.1791 35.7877 62.1033 35.8029 62.0267 35.803C61.9502 35.8032 61.8743 35.7882 61.8036 35.759C61.7328 35.7298 61.6684 35.687 61.6142 35.6329C61.59 35.6088 61.5654 35.5853 61.5409 35.5629C60.8367 34.919 60.0186 35.1076 59.5317 35.4649C59.026 35.8359 58.5839 36.5885 59.0028 37.4866C59.0888 37.6771 59.2014 37.8545 59.337 38.0136C59.3433 38.0201 59.3495 38.0268 59.3556 38.0336C59.9143 38.6733 60.526 39.0097 61.1737 39.0332C62.3373 39.0763 63.31 38.1258 63.3197 38.1163C64.4615 36.9748 65.0253 35.7702 64.9945 34.5368C64.9449 32.5277 63.3339 31.0458 63.3176 31.0309C63.2039 30.9272 63.1358 30.7828 63.1282 30.6291C63.1206 30.4754 63.1741 30.3249 63.277 30.2104C63.3799 30.096 63.5238 30.0269 63.6775 30.0182C63.8311 30.0094 63.982 30.0618 64.0971 30.1639C64.1787 30.2369 66.0916 31.9808 66.1599 34.4957C66.2023 36.0652 65.5239 37.5611 64.1432 38.9415C64.0922 38.9933 62.8691 40.2005 61.2492 40.2006Z" fill="#383844"/>
<path d="M51.3346 44.1276C51.259 44.1275 51.1841 44.1128 51.1142 44.0841C47.8334 42.7431 48.1462 40.1813 48.1615 40.0728C48.1855 39.9228 48.2672 39.7881 48.389 39.6974C48.5109 39.6066 48.6634 39.5671 48.8141 39.5871C48.9647 39.6072 49.1015 39.6852 49.1954 39.8047C49.2894 39.9242 49.3329 40.0756 49.3169 40.2267C49.3074 40.3115 49.1495 42.0216 51.5551 43.0047C51.6803 43.0558 51.7838 43.1487 51.8481 43.2677C51.9123 43.3867 51.9331 43.5244 51.907 43.657C51.8809 43.7897 51.8095 43.9092 51.705 43.995C51.6006 44.0809 51.4695 44.1277 51.3343 44.1276H51.3346Z" fill="#383844"/>
<path d="M57.7624 49.5846C57.722 49.5846 57.6817 49.5804 57.6422 49.572C54.1733 48.8447 54.0193 46.2684 54.0146 46.1588C54.0089 46.0055 54.0638 45.8561 54.1676 45.7431C54.2713 45.63 54.4154 45.5624 54.5686 45.5549C54.7218 45.5474 54.8718 45.6006 54.9861 45.7029C55.1004 45.8053 55.1697 45.9485 55.1791 46.1017C55.1851 46.1865 55.3381 47.8973 57.8814 48.4306C58.0227 48.4601 58.1479 48.5408 58.233 48.6573C58.3181 48.7738 58.3571 48.9177 58.3423 49.0611C58.3275 49.2046 58.26 49.3375 58.1529 49.4342C58.0458 49.5308 57.9067 49.5843 57.7624 49.5843V49.5846Z" fill="#383844"/>
<path d="M51.978 51.3353C51.9674 51.3353 51.9573 51.3353 51.9468 51.3344C48.8666 51.1723 47.3496 48.7859 46.9779 47.5467C46.9354 47.3994 46.9527 47.2412 47.0261 47.1066C47.0994 46.9719 47.2228 46.8715 47.3696 46.8272C47.5164 46.7829 47.6748 46.7982 47.8104 46.8699C47.946 46.9415 48.0479 47.0636 48.094 47.2099C48.1304 47.3275 48.9937 50.0113 52.0081 50.1701C52.1597 50.1783 52.3021 50.2453 52.405 50.3568C52.508 50.4683 52.5634 50.6156 52.5595 50.7673C52.5556 50.9191 52.4926 51.0633 52.384 51.1694C52.2754 51.2754 52.1298 51.3349 51.978 51.3353Z" fill="#383844"/>
<path d="M27.6619 28.6727H21.8491C21.7329 28.6727 21.6194 28.638 21.5231 28.573C21.4267 28.5081 21.352 28.4158 21.3085 28.308C21.265 28.2003 21.2547 28.082 21.2789 27.9684C21.3031 27.8547 21.3607 27.7509 21.4443 27.6702L26.2185 23.0641H21.8491C21.6945 23.0641 21.5462 23.0026 21.4369 22.8933C21.3275 22.784 21.2661 22.6357 21.2661 22.4811C21.2661 22.3265 21.3275 22.1782 21.4369 22.0688C21.5462 21.9595 21.6945 21.8981 21.8491 21.8981H27.6619C27.7781 21.8981 27.8917 21.9328 27.988 21.9978C28.0843 22.0628 28.159 22.155 28.2025 22.2628C28.2461 22.3705 28.2564 22.4888 28.2322 22.6025C28.208 22.7161 28.1504 22.8199 28.0668 22.9006L23.2929 27.5067H27.6619C27.8166 27.5067 27.9649 27.5682 28.0742 27.6775C28.1835 27.7868 28.2449 27.9351 28.2449 28.0897C28.2449 28.2444 28.1835 28.3927 28.0742 28.502C27.9649 28.6113 27.8166 28.6727 27.6619 28.6727Z" fill="#6B70A3"/>
<path d="M35.5176 34.8675H31.0098C30.8936 34.8675 30.78 34.8328 30.6837 34.7678C30.5874 34.7028 30.5127 34.6105 30.4692 34.5028C30.4257 34.395 30.4153 34.2767 30.4395 34.1631C30.4637 34.0494 30.5213 33.9456 30.605 33.8649L34.0743 30.5174H31.0098C30.8551 30.5174 30.7069 30.456 30.5975 30.3467C30.4882 30.2373 30.4268 30.0891 30.4268 29.9344C30.4268 29.7798 30.4882 29.6315 30.5975 29.5222C30.7069 29.4129 30.8551 29.3514 31.0098 29.3514H35.5182C35.6344 29.3514 35.7479 29.3862 35.8442 29.4511C35.9405 29.5161 36.0153 29.6084 36.0588 29.7162C36.1023 29.8239 36.1126 29.9422 36.0884 30.0558C36.0642 30.1695 36.0066 30.2733 35.923 30.354L32.4536 33.7015H35.5182C35.6728 33.7015 35.8211 33.7629 35.9304 33.8722C36.0397 33.9816 36.1012 34.1298 36.1012 34.2845C36.1012 34.4391 36.0397 34.5874 35.9304 34.6967C35.8211 34.806 35.6728 34.8675 35.5182 34.8675H35.5176Z" fill="#6B70A3"/>
<path d="M28.7107 40.9569H24.9468C24.8306 40.9569 24.7171 40.9221 24.6207 40.8571C24.5244 40.7922 24.4497 40.6999 24.4063 40.5921C24.3628 40.4844 24.3525 40.3661 24.3767 40.2525C24.4009 40.1388 24.4585 40.035 24.5421 39.9543L27.2671 37.3255H24.9468C24.7921 37.3255 24.6439 37.2641 24.5345 37.1548C24.4252 37.0455 24.3638 36.8972 24.3638 36.7425C24.3638 36.5879 24.4252 36.4396 24.5345 36.3303C24.6439 36.221 24.7921 36.1595 24.9468 36.1595H28.7107C28.8269 36.1595 28.9405 36.1943 29.0368 36.2592C29.1331 36.3242 29.2078 36.4165 29.2513 36.5243C29.2948 36.632 29.3051 36.7503 29.281 36.8639C29.2568 36.9776 29.1992 37.0814 29.1155 37.1621L26.3905 39.7909H28.7107C28.8653 39.7909 29.0136 39.8523 29.123 39.9617C29.2323 40.071 29.2937 40.2193 29.2937 40.3739C29.2937 40.5285 29.2323 40.6768 29.123 40.7861C29.0136 40.8955 28.8653 40.9569 28.7107 40.9569Z" fill="#6B70A3"/>
<path d="M45.009 43.6658C45.468 43.191 45.3012 42.2851 44.6364 41.6425C43.9716 40.9999 43.0606 40.8639 42.6016 41.3387C42.1426 41.8136 42.3094 42.7194 42.9742 43.362C43.639 44.0046 44.55 44.1406 45.009 43.6658Z" fill="#FFABAB"/>
<path d="M57.2546 55.472C57.7136 54.9971 57.5468 54.0912 56.882 53.4486C56.2172 52.806 55.3062 52.67 54.8472 53.1449C54.3882 53.6197 54.555 54.5256 55.2198 55.1682C55.8846 55.8108 56.7956 55.9468 57.2546 55.472Z" fill="#FFABAB"/>
<path d="M92 46C92 71.4051 71.4051 92 46 92C20.5949 92 0 71.4051 0 46C0 20.5949 20.5949 0 46 0C71.4051 0 92 20.5949 92 46ZM4.97974 46C4.97974 68.6549 23.3451 87.0203 46 87.0203C68.6549 87.0203 87.0203 68.6549 87.0203 46C87.0203 23.3451 68.6549 4.97974 46 4.97974C23.3451 4.97974 4.97974 23.3451 4.97974 46Z" fill="#C3BED6"/>
</svg>
