<svg width="53" height="53" viewBox="0 0 53 53" fill="none" xmlns="http://www.w3.org/2000/svg">
<path d="M4.93108 36.4928C4.93108 36.4928 4.36006 24.7628 19.3597 24.3315L38.2081 39.4744L26.3124 47.436C26.3124 47.436 21.359 41.1298 4.93108 36.4928Z" fill="#FFCEC7"/>
<path d="M21.7821 26.2774L20.8811 26.2755C20.4925 26.2755 20.1081 26.3557 19.7519 26.5111C19.3958 26.6666 19.0756 26.8939 18.8113 27.1788C18.5471 27.4637 18.3446 27.8002 18.2164 28.167C18.0882 28.5339 18.0372 28.9232 18.0665 29.3107C18.1673 30.6506 18.447 31.971 18.898 33.2366C16.5872 32.0909 14.7053 31.5203 13.2248 31.268C11.3875 30.955 10.1275 33.068 11.2727 34.5384L15.8973 40.476C23.6809 44.0872 26.3126 47.4359 26.3126 47.4359L38.2083 39.4744L21.7821 26.2774Z" fill="#E88B89"/>
<path d="M47.7671 30.1428C47.9645 30.2581 48.1497 30.3931 48.3199 30.5456C48.8714 31.0264 49.2582 31.6682 49.4258 32.3804C49.5948 33.1221 49.5395 33.8974 49.2667 34.6076C48.994 35.3178 48.5162 35.9308 47.8941 36.3687C47.1515 36.9038 46.3591 37.3662 45.5279 37.7494C44.4666 38.2299 43.6568 39.1032 43.1403 40.1474C41.2788 43.9104 37.1795 50.2129 30.5594 51.0722C28.1866 51.3802 26.1743 49.2852 26.3194 46.8969C26.4042 45.5102 26.9466 43.8617 28.4627 42.1303C28.7281 41.8486 28.9934 41.5792 29.2584 41.3222L34.4836 37.7805C39.7174 34.3962 45.7118 30.2206 47.7671 30.1428Z" fill="#FFCEC7"/>
<path d="M43.7037 35.8C43.2945 35.8004 42.8901 35.7124 42.518 35.542C42.146 35.3716 41.8151 35.123 41.5481 34.813L41.3479 34.5813C41.2967 34.5236 41.2575 34.4562 41.2325 34.3832C41.2076 34.3102 41.1973 34.2329 41.2025 34.1559C41.2076 34.0789 41.2279 34.0037 41.2624 33.9346C41.2968 33.8655 41.3446 33.8039 41.403 33.7535C41.4614 33.703 41.5292 33.6646 41.6025 33.6406C41.6759 33.6165 41.7533 33.6073 41.8302 33.6134C41.9072 33.6195 41.9821 33.6408 42.0508 33.6761C42.1194 33.7114 42.1803 33.76 42.2301 33.819L42.4302 34.0505C42.7124 34.3778 43.1099 34.5838 43.5401 34.6256C43.9703 34.6674 44.4 34.5419 44.74 34.2751L45.4222 33.7411C45.544 33.647 45.6981 33.6049 45.8509 33.624C46.0037 33.6431 46.1427 33.7218 46.2376 33.843C46.3325 33.9643 46.3756 34.1181 46.3575 34.271C46.3394 34.4239 46.2615 34.5634 46.1409 34.6591L45.4588 35.1933C44.9583 35.5865 44.3402 35.8002 43.7037 35.8Z" fill="#E88B89"/>
<path d="M44.4301 32.5695C46.0453 31.3132 47.2447 30.4914 47.7662 30.1445C45.7596 28.9832 43.6293 30.7522 43.6293 30.7522L34.4842 37.78C32.7524 38.4543 31.011 39.6223 29.2593 41.322C36.5247 43.0882 39.8651 38.1449 39.8651 38.1449C39.8651 38.1449 42.2347 34.2771 44.4301 32.5695Z" fill="#E88B89"/>
<path d="M26.6625 15.5281C26.677 14.8531 26.5663 14.1812 26.336 13.5466C25.753 11.991 23.8152 11.4524 22.4485 12.4587C21.7751 12.9542 21.0387 13.7538 20.3727 15.0414C18.4956 18.6705 22.0912 20.9952 22.0912 20.9952L26.6625 15.5281Z" fill="#E88B89"/>
<path d="M49.0858 26.804C51.0955 23.5929 52.4263 18.1946 45.9114 11.7174C39.3965 5.24032 34.0061 6.60252 30.8064 8.63073C29.3419 9.57224 28.0879 10.8065 27.1232 12.2559C25.6877 14.3748 23.9442 16.2677 21.9504 17.8724C20.7703 18.7978 19.8201 19.9833 19.1738 21.3365C17.4554 25.0147 18.3802 28.6426 19.6726 31.2875C21.121 34.2494 23.5236 36.6381 26.4939 38.0693C29.1462 39.3462 32.7797 40.25 36.4473 38.5103C37.7968 37.8563 38.9768 36.8991 39.8952 35.7136C41.4882 33.7106 43.371 31.9562 45.4814 30.5083C46.9255 29.5353 48.1526 28.2741 49.0858 26.804Z" fill="#FFCEC7"/>
<path d="M7.42171 32.1202C7.33839 32.1697 7.25529 32.2209 7.17239 32.2738C4.27647 34.1336 4.17726 38.2902 6.92033 40.3687C7.11007 40.5125 7.30793 40.6499 7.51393 40.781C10.3191 42.565 14.4712 44.1942 20.6119 45.0157C20.683 45.9159 20.9929 46.7809 21.5095 47.5216C22.0261 48.2623 22.7308 48.8518 23.551 49.2296C25.3954 50.0996 27.3776 48.3402 26.7287 46.4069C25.3295 42.2428 21.8184 36.5414 13.7318 32.2485C11.7792 31.212 9.32536 30.997 7.42171 32.1202Z" fill="#FFCEC7"/>
<path d="M42.2492 20.2006C42.2138 20.2006 42.1783 20.1999 42.1425 20.1989C41.1588 20.1664 40.2644 19.6987 39.484 18.8084C39.2647 18.5601 39.0834 18.2807 38.946 17.9794C38.2749 16.5398 38.9124 15.2071 39.8419 14.5249C40.7507 13.8579 42.181 13.654 43.3274 14.702C43.364 14.7355 43.4007 14.7706 43.4374 14.8071C43.4916 14.8611 43.5347 14.9253 43.5641 14.996C43.5935 15.0667 43.6087 15.1425 43.6088 15.2191C43.609 15.2956 43.594 15.3715 43.5648 15.4423C43.5356 15.513 43.4928 15.5774 43.4387 15.6316C43.3847 15.6858 43.3205 15.7289 43.2498 15.7583C43.1791 15.7877 43.1033 15.8029 43.0267 15.803C42.9502 15.8032 42.8743 15.7882 42.8036 15.759C42.7328 15.7298 42.6684 15.687 42.6142 15.6329C42.59 15.6088 42.5654 15.5853 42.5409 15.5629C41.8367 14.919 41.0186 15.1076 40.5317 15.4649C40.026 15.8359 39.5839 16.5885 40.0028 17.4866C40.0888 17.6771 40.2014 17.8545 40.337 18.0136C40.3433 18.0201 40.3495 18.0268 40.3556 18.0336C40.9143 18.6733 41.526 19.0097 42.1737 19.0332C43.3373 19.0763 44.31 18.1258 44.3197 18.1163C45.4615 16.9748 46.0253 15.7702 45.9945 14.5368C45.9449 12.5277 44.3339 11.0458 44.3176 11.0309C44.2039 10.9272 44.1358 10.7828 44.1282 10.6291C44.1206 10.4754 44.1741 10.3249 44.277 10.2104C44.3799 10.096 44.5238 10.0269 44.6775 10.0182C44.8311 10.0094 44.982 10.0618 45.0971 10.1639C45.1787 10.2369 47.0916 11.9808 47.1599 14.4957C47.2023 16.0652 46.5239 17.5611 45.1432 18.9415C45.0922 18.9933 43.8691 20.2005 42.2492 20.2006Z" fill="#383844"/>
<path d="M32.3346 24.1276C32.259 24.1275 32.1841 24.1128 32.1142 24.0841C28.8334 22.7431 29.1462 20.1813 29.1615 20.0728C29.1855 19.9228 29.2672 19.7881 29.389 19.6974C29.5109 19.6066 29.6634 19.5671 29.8141 19.5871C29.9647 19.6072 30.1015 19.6852 30.1954 19.8047C30.2894 19.9242 30.3329 20.0756 30.3169 20.2267C30.3074 20.3115 30.1495 22.0216 32.5551 23.0047C32.6803 23.0558 32.7838 23.1487 32.8481 23.2677C32.9123 23.3867 32.9331 23.5244 32.907 23.657C32.8809 23.7897 32.8095 23.9092 32.705 23.995C32.6006 24.0809 32.4695 24.1277 32.3343 24.1276H32.3346Z" fill="#383844"/>
<path d="M38.7624 29.5846C38.722 29.5846 38.6817 29.5804 38.6422 29.572C35.1733 28.8447 35.0193 26.2684 35.0146 26.1588C35.0089 26.0055 35.0638 25.8561 35.1676 25.7431C35.2713 25.63 35.4154 25.5624 35.5686 25.5549C35.7218 25.5474 35.8718 25.6006 35.9861 25.7029C36.1004 25.8053 36.1697 25.9485 36.1791 26.1017C36.1851 26.1865 36.3381 27.8973 38.8814 28.4306C39.0227 28.4601 39.1479 28.5408 39.233 28.6573C39.3181 28.7738 39.3571 28.9177 39.3423 29.0611C39.3275 29.2046 39.26 29.3375 39.1529 29.4342C39.0458 29.5308 38.9067 29.5843 38.7624 29.5843V29.5846Z" fill="#383844"/>
<path d="M32.978 31.3353C32.9674 31.3353 32.9573 31.3353 32.9468 31.3344C29.8666 31.1723 28.3496 28.7859 27.9779 27.5467C27.9354 27.3994 27.9527 27.2412 28.0261 27.1066C28.0994 26.9719 28.2228 26.8715 28.3696 26.8272C28.5164 26.7829 28.6748 26.7982 28.8104 26.8699C28.946 26.9415 29.0479 27.0636 29.094 27.2099C29.1304 27.3275 29.9937 30.0113 33.0081 30.1701C33.1597 30.1783 33.3021 30.2453 33.405 30.3568C33.508 30.4683 33.5634 30.6156 33.5595 30.7673C33.5556 30.9191 33.4926 31.0633 33.384 31.1694C33.2754 31.2754 33.1298 31.3349 32.978 31.3353Z" fill="#383844"/>
<path d="M8.66195 8.67274H2.84912C2.73293 8.67275 2.61938 8.63803 2.52306 8.57304C2.42673 8.50806 2.35203 8.41577 2.30852 8.30803C2.26501 8.20028 2.2547 8.082 2.27889 7.96835C2.30309 7.8547 2.36069 7.75088 2.44431 7.6702L7.21855 3.06407H2.84912C2.6945 3.06407 2.54621 3.00265 2.43688 2.89331C2.32754 2.78398 2.26612 2.63569 2.26612 2.48107C2.26612 2.32645 2.32754 2.17816 2.43688 2.06883C2.54621 1.95949 2.6945 1.89807 2.84912 1.89807H8.66195C8.77814 1.89807 8.89169 1.93279 8.98801 1.99777C9.08434 2.06276 9.15904 2.15504 9.20255 2.26279C9.24605 2.37053 9.25637 2.48882 9.23218 2.60246C9.20798 2.71611 9.15038 2.81994 9.06676 2.90062L4.29295 7.50674H8.66195C8.81657 7.50674 8.96486 7.56817 9.07419 7.6775C9.18353 7.78683 9.24495 7.93512 9.24495 8.08974C9.24495 8.24437 9.18353 8.39265 9.07419 8.50199C8.96486 8.61132 8.81657 8.67274 8.66195 8.67274Z" fill="#6B70A3"/>
<path d="M16.5176 14.8675H12.0098C11.8936 14.8675 11.78 14.8328 11.6837 14.7678C11.5874 14.7028 11.5127 14.6105 11.4692 14.5028C11.4257 14.395 11.4153 14.2767 11.4395 14.1631C11.4637 14.0494 11.5213 13.9456 11.605 13.8649L15.0743 10.5174H12.0098C11.8551 10.5174 11.7069 10.456 11.5975 10.3467C11.4882 10.2373 11.4268 10.0891 11.4268 9.93444C11.4268 9.77982 11.4882 9.63153 11.5975 9.5222C11.7069 9.41286 11.8551 9.35144 12.0098 9.35144H16.5182C16.6344 9.35144 16.7479 9.38616 16.8442 9.45114C16.9405 9.51613 17.0153 9.60841 17.0588 9.71616C17.1023 9.8239 17.1126 9.94219 17.0884 10.0558C17.0642 10.1695 17.0066 10.2733 16.923 10.354L13.4536 13.7015H16.5182C16.6728 13.7015 16.8211 13.7629 16.9304 13.8722C17.0397 13.9816 17.1012 14.1298 17.1012 14.2845C17.1012 14.4391 17.0397 14.5874 16.9304 14.6967C16.8211 14.806 16.6728 14.8675 16.5182 14.8675H16.5176Z" fill="#6B70A3"/>
<path d="M9.71072 20.9569H5.94677C5.83058 20.9569 5.71705 20.9221 5.62075 20.8571C5.52444 20.7922 5.44975 20.6999 5.40626 20.5921C5.36276 20.4844 5.35245 20.3661 5.37665 20.2525C5.40085 20.1388 5.45845 20.035 5.54206 19.9543L8.26711 17.3255H5.94677C5.79215 17.3255 5.64386 17.2641 5.53453 17.1548C5.42519 17.0455 5.36377 16.8972 5.36377 16.7425C5.36377 16.5879 5.42519 16.4396 5.53453 16.3303C5.64386 16.221 5.79215 16.1595 5.94677 16.1595H9.71072C9.82692 16.1595 9.94046 16.1943 10.0368 16.2592C10.1331 16.3242 10.2078 16.4165 10.2513 16.5243C10.2948 16.632 10.3051 16.7503 10.281 16.8639C10.2568 16.9776 10.1992 17.0814 10.1155 17.1621L7.39049 19.7909H9.71072C9.86535 19.7909 10.0136 19.8523 10.123 19.9617C10.2323 20.071 10.2937 20.2193 10.2937 20.3739C10.2937 20.5285 10.2323 20.6768 10.123 20.7861C10.0136 20.8955 9.86535 20.9569 9.71072 20.9569Z" fill="#6B70A3"/>
<path d="M26.009 23.6658C26.468 23.191 26.3012 22.2851 25.6364 21.6425C24.9716 20.9999 24.0606 20.8639 23.6016 21.3387C23.1426 21.8136 23.3094 22.7194 23.9742 23.362C24.639 24.0046 25.55 24.1406 26.009 23.6658Z" fill="#FFABAB"/>
<path d="M38.2546 35.472C38.7136 34.9971 38.5468 34.0912 37.882 33.4486C37.2172 32.806 36.3062 32.67 35.8472 33.1449C35.3882 33.6197 35.555 34.5256 36.2198 35.1682C36.8846 35.8108 37.7956 35.9468 38.2546 35.472Z" fill="#FFABAB"/>
</svg>
