<svg width="53" height="53" viewBox="0 0 53 53" fill="none" xmlns="http://www.w3.org/2000/svg">
<path d="M31.5608 41.7463C31.5608 40.0204 29.3491 39.3423 28.0961 40.7666C27.2908 42.5658 26.0548 44.139 24.4972 45.3472C22.9397 46.5554 21.1085 47.3613 19.1655 47.6938C17.2225 48.0263 15.2275 47.8751 13.3569 47.2535C11.4862 46.6319 9.79741 45.5592 8.43976 44.13C7.0821 42.7008 6.09736 40.9593 5.57255 39.0592C5.04775 37.1591 4.99903 35.159 5.43071 33.2356C5.86239 31.3122 6.76117 29.5248 8.04764 28.0312C9.33411 26.5376 10.9687 25.3839 12.8068 24.672C14.3348 23.4241 13.1724 21.1316 10.9868 21.558H10.9862C8.6391 22.5682 6.57667 24.1405 4.98081 26.1362C3.38495 28.1318 2.30468 30.4895 1.8353 33.0013C1.36592 35.5131 1.52184 38.1018 2.28931 40.5391C3.05678 42.9764 4.41222 45.1874 6.23607 46.9771C8.05993 48.7668 10.2962 50.0801 12.7475 50.8014C15.1989 51.5226 17.7901 51.6295 20.2926 51.1127C22.795 50.5959 25.1319 49.4713 27.097 47.838C29.0621 46.2046 30.5951 44.1128 31.5608 41.7471V41.7463Z" fill="#D9E0F9"/>
<path d="M28.1474 24.857C25.9448 22.6543 23.1323 21.1625 20.0733 20.5744C17.0143 19.9862 13.8492 20.3287 10.9868 21.5577C10.9967 21.5593 13.216 21.9308 12.8068 24.6718H12.8074C15.0254 23.8149 17.448 23.6359 19.7679 24.1577C22.0877 24.6794 24.2004 25.8783 25.838 27.6023C27.4757 29.3264 28.5644 31.4979 28.9663 33.8415C29.3681 36.1851 29.0649 38.5953 28.0952 40.7664C28.0952 40.7664 30.0552 39.9153 31.5608 41.7463C32.7165 38.9076 33.0092 35.791 32.402 32.7867C31.7948 29.7825 30.3148 27.0241 28.1474 24.857Z" fill="#9DACCE"/>
<path d="M22.6562 40.5448C28.061 40.5448 32.4424 36.1634 32.4424 30.7587C32.4424 25.3539 28.061 20.9725 22.6562 20.9725C17.2515 20.9725 12.8701 25.3539 12.8701 30.7587C12.8701 36.1634 17.2515 40.5448 22.6562 40.5448Z" fill="#87B250"/>
<path d="M45.2951 23.8706C43.8669 22.3557 42.1117 21.1868 40.1634 20.4528C38.429 19.7939 36.8539 18.7749 35.5419 17.4629C34.23 16.1509 33.211 14.5758 32.5521 12.8414C31.8181 10.893 30.6491 9.13773 29.1343 7.70931C25.2997 3.87508 19.4828 3.47546 16.1414 6.81669C12.7999 10.1579 13.1998 15.9751 17.034 19.8092C17.034 19.8092 18.2691 21.3391 22.4043 23.7455C25.2442 25.3983 27.6062 27.7603 29.2589 30.6002C31.6651 34.7354 33.1952 35.9705 33.1952 35.9705C37.0295 39.8047 42.8465 40.2044 46.1877 36.863C49.5289 33.5217 49.1294 27.7048 45.2951 23.8706Z" fill="#BDDD85"/>
<path d="M45.8721 16.9435L45.88 16.9417V16.941C47.1779 16.5447 48.3512 15.8192 49.2856 14.835C50.22 13.8509 50.8837 12.6416 51.2123 11.3249C51.5408 10.0082 51.5229 8.62887 51.1604 7.32112C50.7978 6.01336 50.1029 4.82172 49.1433 3.86212C48.1837 2.90252 46.9921 2.20764 45.6844 1.84509C44.3766 1.48254 42.9973 1.46466 41.6806 1.79319C40.3638 2.12172 39.1546 2.78548 38.1704 3.71988C37.1863 4.65429 36.4608 5.82752 36.0644 7.12543L36.0639 7.1248C36.0633 7.12755 36.0626 7.1301 36.0621 7.13275C35.9649 7.45463 35.8884 7.78242 35.8331 8.11409C34.2155 14.5663 30.9989 17.2819 29.3682 18.2801C29.0479 18.4779 28.8075 18.7821 28.6892 19.1395C28.5708 19.4968 28.5821 19.8844 28.721 20.2342C29.0373 21.0339 29.5662 21.8417 30.347 22.659C31.1643 23.4397 31.972 23.9687 32.7718 24.285C33.1216 24.4239 33.5092 24.4352 33.8665 24.3168C34.2238 24.1985 34.528 23.9581 34.7258 23.6378C35.724 22.0071 38.4396 18.7904 44.8918 17.1727C45.2231 17.1173 45.5506 17.0408 45.8721 16.9435Z" fill="#7AAEED"/>
<path d="M25.4583 14.8223C26.0518 14.2288 25.5966 12.8112 24.4415 11.6561C23.2864 10.501 21.8689 10.0458 21.2754 10.6393C20.6818 11.2328 21.1371 12.6504 22.2922 13.8055C23.4473 14.9606 24.8648 15.4158 25.4583 14.8223Z" fill="#87B250"/>
<path d="M42.3587 31.7265C42.9522 31.1329 42.497 29.7154 41.3419 28.5603C40.1868 27.4052 38.7693 26.95 38.1757 27.5435C37.5822 28.137 38.0375 29.5546 39.1926 30.7096C40.3476 31.8647 41.7652 32.32 42.3587 31.7265Z" fill="#87B250"/>
<path d="M44.1569 10.0947C45.6164 8.90114 45.918 6.85572 44.8306 5.52614C43.7433 4.19656 41.6787 4.0863 40.2192 5.27988C38.7598 6.47345 38.4581 8.51888 39.5455 9.84846C40.6329 11.178 42.6975 11.2883 44.1569 10.0947Z" fill="#A7D0F9"/>
<path d="M19.0346 34.6435C21.1609 34.6435 22.8846 32.751 22.8846 30.4165C22.8846 28.0821 21.1609 26.1896 19.0346 26.1896C16.9083 26.1896 15.1846 28.0821 15.1846 30.4165C15.1846 32.751 16.9083 34.6435 19.0346 34.6435Z" fill="#BDDD85"/>
</svg>
