<svg width="92" height="92" viewBox="0 0 92 92" fill="none" xmlns="http://www.w3.org/2000/svg">
<path d="M50.5608 61.7463C50.5608 60.0204 48.3491 59.3423 47.0961 60.7666C46.2908 62.5658 45.0548 64.139 43.4972 65.3472C41.9397 66.5554 40.1085 67.3613 38.1655 67.6938C36.2225 68.0263 34.2275 67.8751 32.3569 67.2535C30.4862 66.6319 28.7974 65.5592 27.4398 64.13C26.0821 62.7008 25.0974 60.9593 24.5726 59.0592C24.0477 57.1591 23.999 55.159 24.4307 53.2356C24.8624 51.3122 25.7612 49.5248 27.0476 48.0312C28.3341 46.5376 29.9687 45.3839 31.8068 44.672C33.3348 43.4241 32.1724 41.1316 29.9868 41.558H29.9862C27.6391 42.5682 25.5767 44.1405 23.9808 46.1362C22.3849 48.1318 21.3047 50.4895 20.8353 53.0013C20.3659 55.5131 20.5218 58.1018 21.2893 60.5391C22.0568 62.9764 23.4122 65.1874 25.2361 66.9771C27.0599 68.7668 29.2962 70.0801 31.7475 70.8014C34.1989 71.5226 36.7901 71.6295 39.2926 71.1127C41.795 70.5959 44.1319 69.4713 46.097 67.838C48.0621 66.2046 49.5951 64.1128 50.5608 61.7471V61.7463Z" fill="#D9E0F9"/>
<path d="M47.1474 44.857C44.9448 42.6543 42.1323 41.1625 39.0733 40.5744C36.0143 39.9862 32.8492 40.3287 29.9868 41.5577C29.9967 41.5593 32.216 41.9308 31.8068 44.6718H31.8074C34.0254 43.8149 36.448 43.6359 38.7679 44.1577C41.0877 44.6794 43.2004 45.8783 44.838 47.6023C46.4757 49.3264 47.5644 51.4979 47.9663 53.8415C48.3681 56.1851 48.0649 58.5953 47.0952 60.7664C47.0952 60.7664 49.0552 59.9153 50.5608 61.7463C51.7165 58.9076 52.0092 55.791 51.402 52.7867C50.7948 49.7825 49.3148 47.0241 47.1474 44.857Z" fill="#9DACCE"/>
<path d="M41.6562 60.5448C47.061 60.5448 51.4424 56.1634 51.4424 50.7587C51.4424 45.3539 47.061 40.9725 41.6562 40.9725C36.2515 40.9725 31.8701 45.3539 31.8701 50.7587C31.8701 56.1634 36.2515 60.5448 41.6562 60.5448Z" fill="#87B250"/>
<path d="M64.2951 43.8706C62.8669 42.3557 61.1117 41.1868 59.1634 40.4528C57.429 39.7939 55.8539 38.7749 54.5419 37.4629C53.23 36.1509 52.211 34.5758 51.5521 32.8414C50.8181 30.893 49.6491 29.1377 48.1343 27.7093C44.2997 23.8751 38.4828 23.4755 35.1414 26.8167C31.7999 30.1579 32.1998 35.9751 36.034 39.8092C36.034 39.8092 37.2691 41.3391 41.4043 43.7455C44.2442 45.3983 46.6062 47.7603 48.2589 50.6002C50.6651 54.7354 52.1952 55.9705 52.1952 55.9705C56.0295 59.8047 61.8465 60.2044 65.1877 56.863C68.5289 53.5217 68.1294 47.7048 64.2951 43.8706Z" fill="#BDDD85"/>
<path d="M64.8721 36.9435L64.88 36.9417V36.941C66.1779 36.5447 67.3512 35.8192 68.2856 34.835C69.22 33.8509 69.8837 32.6416 70.2123 31.3249C70.5408 30.0082 70.5229 28.6289 70.1604 27.3211C69.7978 26.0134 69.1029 24.8217 68.1433 23.8621C67.1837 22.9025 65.9921 22.2076 64.6844 21.8451C63.3766 21.4825 61.9973 21.4647 60.6806 21.7932C59.3638 22.1217 58.1546 22.7855 57.1704 23.7199C56.1863 24.6543 55.4608 25.8275 55.0644 27.1254L55.0639 27.1248C55.0633 27.1276 55.0626 27.1301 55.0621 27.1327C54.9649 27.4546 54.8884 27.7824 54.8331 28.1141C53.2155 34.5663 49.9989 37.2819 48.3682 38.2801C48.0479 38.4779 47.8075 38.7821 47.6892 39.1395C47.5708 39.4968 47.5821 39.8844 47.721 40.2342C48.0373 41.0339 48.5662 41.8417 49.347 42.659C50.1643 43.4397 50.972 43.9687 51.7718 44.285C52.1216 44.4239 52.5092 44.4352 52.8665 44.3168C53.2238 44.1985 53.528 43.9581 53.7258 43.6378C54.724 42.0071 57.4396 38.7904 63.8918 37.1727C64.2231 37.1173 64.5506 37.0408 64.8721 36.9435Z" fill="#7AAEED"/>
<path d="M44.4583 34.8223C45.0518 34.2288 44.5966 32.8112 43.4415 31.6561C42.2864 30.501 40.8689 30.0458 40.2754 30.6393C39.6818 31.2328 40.1371 32.6504 41.2922 33.8055C42.4473 34.9606 43.8648 35.4158 44.4583 34.8223Z" fill="#87B250"/>
<path d="M61.3587 51.7265C61.9522 51.1329 61.497 49.7154 60.3419 48.5603C59.1868 47.4052 57.7693 46.95 57.1757 47.5435C56.5822 48.137 57.0375 49.5546 58.1926 50.7096C59.3476 51.8647 60.7652 52.32 61.3587 51.7265Z" fill="#87B250"/>
<path d="M63.1569 30.0947C64.6164 28.9011 64.918 26.8557 63.8306 25.5261C62.7433 24.1966 60.6787 24.0863 59.2192 25.2799C57.7598 26.4735 57.4581 28.5189 58.5455 29.8485C59.6329 31.178 61.6975 31.2883 63.1569 30.0947Z" fill="#A7D0F9"/>
<path d="M38.0346 54.6435C40.1609 54.6435 41.8846 52.751 41.8846 50.4165C41.8846 48.0821 40.1609 46.1896 38.0346 46.1896C35.9083 46.1896 34.1846 48.0821 34.1846 50.4165C34.1846 52.751 35.9083 54.6435 38.0346 54.6435Z" fill="#BDDD85"/>
<path d="M92 46C92 71.4051 71.4051 92 46 92C20.5949 92 0 71.4051 0 46C0 20.5949 20.5949 0 46 0C71.4051 0 92 20.5949 92 46ZM4.97974 46C4.97974 68.6549 23.3451 87.0203 46 87.0203C68.6549 87.0203 87.0203 68.6549 87.0203 46C87.0203 23.3451 68.6549 4.97974 46 4.97974C23.3451 4.97974 4.97974 23.3451 4.97974 46Z" fill="#C3BED6"/>
</svg>
