<svg width="173" height="214" viewBox="0 0 173 214" fill="none" xmlns="http://www.w3.org/2000/svg">
<path d="M34.1583 114.196C36.7137 116.868 49.5667 134.28 62.1768 138.08C75.6067 142.128 87.3869 143.201 92.6293 140.666C106.985 133.718 100.938 118.285 91.7994 115.638C80.3076 112.308 73.8862 114.444 67.3534 112.602C66.5995 112.389 52.6788 102.659 45.7311 100.675C41.2983 99.4302 30.9704 110.871 34.1583 114.196Z" fill="#F7A9A0"/>
<path d="M48.2106 101.92C48.58 100.128 47.5882 96.7229 48.0385 95.3111C48.4889 93.8993 49.3238 89.5374 47.6236 89.7955C45.9233 90.0535 43.7373 95.4882 43.2515 96.728C42.7658 97.9677 38.3887 90.261 35.985 92.5837C33.5814 94.9063 37.2552 99.4959 36.7694 99.9716C36.2836 100.447 31.7496 96.4649 29.7913 98.6357C27.833 100.807 33.3335 104.253 33.207 104.43C33.0805 104.607 30.6769 99.9817 28.754 101.631C26.8311 103.281 31.3549 108.291 31.0513 108.69C30.7477 109.09 26.8918 107.936 25.6875 110.208C24.4831 112.48 31.0007 113.164 31.5169 113.341C32.033 113.518 35.3424 115.947 36.5164 115.365C37.6903 114.783 47.9525 103.19 48.2106 101.92Z" fill="#F7A9A0"/>
<path d="M60.9824 108.64C63.3903 109.485 65.6059 110.801 67.5 112.511C68.006 112.931 68.426 113.391 68.8764 113.842C69.3267 114.292 69.7366 114.788 70.0959 115.314C70.8669 116.327 71.5094 117.432 72.0087 118.603C71.2994 117.569 70.5324 116.576 69.7113 115.628C68.8943 114.689 68.0134 113.809 67.0749 112.992C66.1461 112.162 65.1713 111.384 64.1552 110.664C63.133 109.95 62.0856 109.262 60.9824 108.64Z" fill="#263238"/>
<path d="M39.3198 113.827C40.9288 112.846 42.3992 111.655 43.6919 110.284C44.9544 108.833 46.0071 107.211 46.8191 105.467C46.8899 105.335 46.6926 105.194 46.6268 105.33C45.728 106.991 44.6321 108.537 43.3629 109.935C42.1504 111.357 40.7552 112.613 39.2136 113.67C39.1326 113.725 39.2287 113.862 39.3198 113.827Z" fill="#263238"/>
<path d="M32.7415 202.502C25.8292 202.74 7.67813 178.102 14.054 173.461C19.1851 169.727 40.3672 180.313 41.5868 189.806C42.3964 196.116 37.5841 202.335 32.7415 202.502Z" fill="#F7A9A0"/>
<path d="M107.587 181.821C109.87 193.5 98.3626 204.121 83.5766 202.133C72.0494 200.579 57.2634 189.958 57.2634 189.958C57.2634 189.958 44.1827 200.741 41.1364 202.988C36.3848 206.489 22.3478 200.164 23.3244 191.405C24.0278 185.11 29.5687 167.526 48.3877 155.624C67.3636 143.616 104.496 166.094 107.587 181.821Z" fill="#F7A9A0"/>
<g opacity="0.1">
<path d="M32.7415 202.502C25.8292 202.74 7.67813 178.102 14.054 173.461C19.1851 169.727 40.3672 180.313 41.5868 189.806C42.3964 196.116 37.5841 202.335 32.7415 202.502Z" fill="#050400"/>
<path d="M107.587 181.821C109.87 193.5 98.3626 204.121 83.5766 202.133C72.0494 200.579 57.2634 189.958 57.2634 189.958C57.2634 189.958 44.1827 200.741 41.1364 202.988C36.3848 206.489 22.3478 200.164 23.3244 191.405C24.0278 185.11 29.5687 167.526 48.3877 155.624C67.3636 143.616 104.496 166.094 107.587 181.821Z" fill="#050400"/>
</g>
<path d="M63.3812 194.021C60.6886 192.353 58.2941 190.246 56.2968 187.787C55.3354 186.608 54.4448 185.388 53.5947 184.128C52.6309 182.787 51.7973 181.357 51.105 179.858C51.0916 179.823 51.0652 179.796 51.0315 179.781C50.9978 179.766 50.9596 179.766 50.9254 179.779C50.8912 179.793 50.8637 179.819 50.849 179.853C50.8343 179.886 50.8335 179.925 50.847 179.959C51.1455 180.748 51.353 181.563 51.6768 182.337C52.0203 183.101 52.4037 183.845 52.8255 184.569C53.6225 185.955 54.5805 187.243 55.6795 188.404C57.8837 190.734 60.4674 192.673 63.3204 194.138C63.3812 194.173 63.4469 194.062 63.3812 194.021Z" fill="#263238"/>
<path d="M25.7534 189.806C25.5471 187.463 25.7353 185.103 26.31 182.823C26.5782 181.76 26.9071 180.728 27.2715 179.716C27.6288 178.611 28.102 177.548 28.6833 176.543C28.749 176.442 28.5821 176.305 28.5112 176.406C28.1823 176.882 27.7876 177.292 27.4992 177.793C27.201 178.293 26.9324 178.81 26.6946 179.341C26.225 180.386 25.8851 181.483 25.6825 182.61C25.2901 184.989 25.2901 187.417 25.6825 189.796C25.6623 189.857 25.7584 189.867 25.7534 189.806Z" fill="#263238"/>
<path d="M74.5795 154.612C74.873 153.828 90.4079 159.94 104.738 159.232C122.125 158.377 132.408 154.111 133.41 154.678C135.434 155.796 140.494 175.931 136.446 187.473C132.398 199.016 117.268 207.491 104.379 206.12C91.4908 204.749 58.6448 197.538 74.5795 154.612Z" fill="#8997D6"/>
<g opacity="0.6">
<path d="M74.5795 154.612C74.873 153.828 90.4079 159.94 104.738 159.232C122.125 158.377 132.408 154.111 133.41 154.678C135.434 155.796 140.494 175.931 136.446 187.473C132.398 199.016 117.268 207.491 104.379 206.12C91.4908 204.749 58.6448 197.538 74.5795 154.612Z" fill="white"/>
</g>
<path d="M133.395 154.658C112.142 165.198 76.047 156.682 74.5643 154.612C74.5643 154.612 72.8894 142.027 90.4838 117.257C95.3973 110.335 113.564 110.618 118.629 115.881C132.236 129.984 133.754 154.485 133.395 154.658Z" fill="#8997D6"/>
<g opacity="0.6">
<path d="M133.395 154.658C112.142 165.198 76.047 156.682 74.5643 154.612C74.5643 154.612 72.8894 142.027 90.4838 117.257C95.3973 110.335 113.564 110.618 118.629 115.881C132.236 129.984 133.754 154.485 133.395 154.658Z" fill="white"/>
</g>
<path d="M95.1951 130.905C95.9085 134.882 99.4203 138.146 99.4203 138.146C99.4203 138.146 104.142 137.281 106.889 134.305C109.182 131.826 109.192 128.425 107.117 127.079C104.142 125.146 101.647 130.561 101.647 130.561C101.647 130.561 102.467 124.66 98.9143 124.691C96.455 124.716 94.603 127.585 95.1951 130.905Z" fill="#8997D6"/>
<path d="M86.9872 143.13C88.313 145.301 91.1113 146.414 91.1113 146.414C91.1113 146.414 93.687 144.826 94.6181 142.452C95.3973 140.469 94.6181 138.475 93.1 138.156C90.914 137.706 90.6863 141.45 90.6863 141.45C90.6863 141.45 89.826 137.802 87.7463 138.632C86.3345 139.214 85.8841 141.319 86.9872 143.13Z" fill="#8997D6"/>
<path d="M86.1117 131.532C87.1116 132.176 88.2722 132.527 89.4616 132.544C90.1571 131.579 90.5674 130.437 90.6457 129.25C90.6457 127.843 89.669 126.801 88.6519 126.978C87.1946 127.231 87.9789 129.594 87.9789 129.594C87.9789 129.594 86.5469 127.57 85.4741 128.582C84.7252 129.291 84.9833 130.687 86.1117 131.532Z" fill="#8997D6"/>
<path d="M120.471 113.816C111.615 116.053 106.236 126.609 112.243 136.021C118.249 145.433 130.966 143.495 134.548 136.183C139.614 125.845 131.841 110.947 120.471 113.816Z" fill="#8997D6"/>
<path d="M166.038 89.9726C165.051 93.5147 161.965 114.96 152.649 124.271C142.731 134.189 132.858 140.706 127.044 140.97C111.104 141.643 109.136 125.182 115.937 118.527C124.483 110.163 131.153 109.004 136.046 104.308C136.613 103.767 144.254 88.6215 149.456 83.5613C152.78 80.3328 167.298 85.5246 166.038 89.9726Z" fill="#F7A9A0"/>
<path d="M147.847 85.803C146.678 84.4013 145.939 80.93 144.876 79.9027C143.814 78.8755 141.01 75.4194 142.635 74.8425C144.259 74.2656 148.747 78.0203 149.765 78.8907C150.782 79.7611 150.989 70.8905 154.207 71.8064C157.426 72.7223 156.358 78.496 157.006 78.6883C157.653 78.8806 159.774 73.2232 162.526 74.2049C165.279 75.1866 162.056 80.8338 162.258 80.93C162.461 81.0261 162.405 75.7989 164.859 76.3758C167.313 76.9526 165.714 83.4601 166.17 83.6827C166.625 83.9054 169.479 81.0464 171.604 82.4582C173.73 83.87 168.31 87.5488 167.951 87.9485C167.592 88.3483 165.811 92.0524 164.5 92.0928C163.189 92.1333 148.682 86.8049 147.847 85.803Z" fill="#F7A9A0"/>
<path d="M139.776 97.7653C138.055 99.6455 136.725 101.849 135.864 104.247C135.636 104.845 135.464 105.457 135.282 106.069C135.123 106.688 134.996 107.315 134.903 107.947C134.704 109.203 134.661 110.48 134.776 111.747C134.911 110.5 135.118 109.261 135.393 108.038C135.667 106.833 136.026 105.65 136.466 104.495C136.892 103.325 137.383 102.18 137.939 101.065C138.495 99.9347 139.108 98.8335 139.776 97.7653Z" fill="#263238"/>
<path d="M161.317 92.1029C159.436 92.0024 157.577 91.6484 155.791 91.0504C153.982 90.3733 152.278 89.4431 150.731 88.2875C150.609 88.2015 150.731 87.989 150.837 88.075C152.416 89.1195 154.115 89.9691 155.897 90.6051C157.637 91.2854 159.46 91.7312 161.317 91.9309C161.433 91.9106 161.418 92.1029 161.317 92.1029Z" fill="#263238"/>
<path d="M93.373 116.149C91.9915 117.839 93.1098 121.306 100.741 121.209C105.295 121.159 112.116 119.691 112.754 115.461C113.234 112.293 95.9841 112.961 93.373 116.149Z" fill="#8997D6"/>
<path d="M90.7622 112.951C93.3176 113.756 94.1424 114.859 94.7395 117.713C95.3367 120.567 107.775 120.627 110.932 116.149C113.543 112.43 115.345 111.382 117.43 110.325C119.514 109.267 90.7622 112.951 90.7622 112.951Z" fill="#F7A9A0"/>
<path d="M135.231 94.5723C129.022 107.628 114.965 111.914 107.527 112.941C95.9892 114.54 64.6512 113.336 59.1051 92.5533C57.8198 87.7309 57.9109 80.8794 58.8876 73.623C60.7598 59.7428 65.896 44.4001 70.9107 39.092C81.5372 27.838 106.231 23.8607 125.126 35.5498C140.337 44.9214 141.607 81.1779 135.231 94.5723Z" fill="#F7A9A0"/>
<path d="M103.676 67.3938C102.828 67.0689 101.997 66.7007 101.186 66.2907C100.235 65.8555 99.4302 65.6076 98.8584 64.6816C98.7234 64.4014 98.6854 64.0842 98.7505 63.7801C98.8155 63.4759 98.9799 63.202 99.2177 63.0016C100.275 62.202 101.576 62.4449 102.76 62.9206C103.952 63.3596 104.937 64.2275 105.523 65.3546C106.145 66.5184 104.845 67.8138 103.676 67.3938Z" fill="#263238"/>
<path d="M75.3031 63.5936C76.2016 63.5133 77.0952 63.3849 77.98 63.209C78.992 63.0521 79.8371 63.0268 80.6366 62.2931C80.8389 62.0619 80.9591 61.7703 80.9783 61.4636C80.9976 61.157 80.9148 60.8526 80.7428 60.5979C79.9433 59.5454 78.6378 59.429 77.398 59.5859C76.1385 59.6851 74.9616 60.2518 74.0988 61.1748C73.1778 62.0958 74.0836 63.6594 75.3031 63.5936Z" fill="#263238"/>
<path d="M91.6982 87.8422C91.7842 88.229 91.8433 88.6213 91.8753 89.0162C92.0321 90.5849 91.9107 93.2921 89.4767 93.9702C88.5509 94.2028 87.5742 94.1227 86.6987 93.7425C84.2799 92.8215 82.2861 89.8916 82.2861 89.8916C87.5285 91.4755 91.6982 87.8422 91.6982 87.8422Z" fill="#263238"/>
<path d="M91.9007 89.0162C92.0576 90.5848 91.9362 93.2921 89.5022 93.9701C88.5764 94.2028 87.5997 94.1227 86.7241 93.7424C87.0945 92.4245 87.872 91.2573 88.9456 90.4077C89.7994 89.705 90.8152 89.2267 91.9007 89.0162Z" fill="#FF99BA"/>
<path d="M81.6538 67.7632C80.4039 73.4205 81.0466 71.4217 79.5538 77.0234C78.2837 77.0234 72.5099 76.5781 72.8895 77.1246C74.2405 79.088 78.5114 82.6909 78.4861 82.6909C77.6815 84.1735 74.9439 85.5955 75.035 85.727C81.4969 93.5653 88.9608 90.2104 91.5769 88.0902C92.0829 87.6651 91.9058 87.655 91.5769 87.8321C89.0012 89.2894 81.6285 91.1921 77.049 85.808C78.145 85.0071 79.0249 83.9464 79.6095 82.7212C79.6803 82.5694 76.3507 79.5637 75.0553 77.9798C76.8112 78.0405 78.9516 78.2682 80.247 78.329C80.5557 78.329 81.8562 73.9417 82.1396 67.7885C82.1244 67.7374 82.0937 67.6922 82.0518 67.6593C82.0099 67.6263 81.9589 67.6071 81.9056 67.6043C81.8524 67.6015 81.7996 67.6153 81.7545 67.6438C81.7094 67.6722 81.6742 67.7139 81.6538 67.7632Z" fill="#263238"/>
<path d="M75.1411 72.029C75.3737 71.3635 75.7809 70.7727 76.3201 70.3186C76.6314 70.089 76.9864 69.9256 77.3632 69.8385C77.7401 69.7515 78.1308 69.7427 78.5112 69.8126C78.8994 69.8895 79.2641 70.0564 79.5761 70.2998C79.8881 70.5432 80.1387 70.8565 80.3076 71.2143C80.5987 71.8479 80.734 72.5419 80.7023 73.2384C80.686 73.6512 80.6386 74.0623 80.5606 74.468C80.4114 75.3159 80.0647 76.1168 79.5486 76.8059C79.7002 76.2049 79.7834 75.5887 79.7965 74.969C79.8141 74.4097 79.7904 73.8499 79.7257 73.2941C79.584 72.1606 79.1185 71.1536 78.2532 71.0473C77.3575 70.8601 76.558 71.4673 76.0013 72.4794C75.4582 73.5391 75.0193 74.6492 74.6908 75.7938C74.5366 74.5209 74.6911 73.2296 75.1411 72.029Z" fill="#263238"/>
<path d="M76.7959 70.0049C76.0267 70.3591 75.2272 71.0676 74.367 71.017C73.3549 70.9765 72.7528 70.0049 72.2265 69.1295C72.1708 69.0334 72.0949 69.0941 72.0747 69.2003C71.8369 70.7184 72.2063 72.4035 73.8255 72.8639C75.3031 73.289 76.5783 72.0745 77.1805 70.5818C77.2918 70.344 77.1046 69.8379 76.7959 70.0049Z" fill="#263238"/>
<path d="M102.193 75.4042C102.143 74.7015 101.902 74.0259 101.495 73.4509C101.258 73.1442 100.959 72.89 100.619 72.7045C100.278 72.519 99.9027 72.4061 99.5163 72.3731C99.121 72.3468 98.725 72.4136 98.3603 72.5683C97.9955 72.723 97.6722 72.9612 97.4163 73.2637C96.9799 73.7986 96.6733 74.4273 96.5207 75.1006C96.4303 75.5038 96.3694 75.9131 96.3385 76.3251C96.2604 77.185 96.3834 78.0512 96.6978 78.8553C96.7092 78.2361 96.789 77.6201 96.9356 77.0184C97.0631 76.4732 97.2322 75.9386 97.4416 75.4194C97.8717 74.3618 98.5751 73.5015 99.4404 73.623C100.306 73.7444 100.958 74.468 101.247 75.5914C101.501 76.7557 101.64 77.9421 101.662 79.1336C102.135 77.9508 102.317 76.6719 102.193 75.4042Z" fill="#263238"/>
<path d="M101.12 72.9955C101.768 73.537 102.36 74.4276 103.2 74.6148C104.167 74.8273 105.012 74.0734 105.756 73.3396C105.832 73.2637 105.892 73.3396 105.882 73.4509C105.715 74.9994 104.931 76.5124 103.246 76.5427C101.728 76.5681 100.787 75.0652 100.594 73.4661C100.554 73.1726 100.857 72.7779 101.12 72.9955Z" fill="#263238"/>
<path d="M117.161 48.2661C113.513 49.7032 110.117 51.0796 106.15 51.4996C102.026 51.9341 97.8577 51.5751 93.869 50.442C87.5083 48.6558 80.7124 45.2958 74.1948 48.1244C74.1848 48.1291 74.177 48.1376 74.1732 48.1481C74.1694 48.1585 74.1699 48.17 74.1746 48.1801C74.1793 48.1902 74.1878 48.198 74.1982 48.2018C74.2087 48.2056 74.2202 48.2051 74.2302 48.2004C82.691 45.5336 90.337 52.0461 98.5194 53.1493C104.829 53.9893 112.45 52.7748 117.44 48.7418C117.708 48.5343 117.455 48.1497 117.161 48.2661Z" fill="#263238"/>
<path d="M126.776 84.7757C125.902 82.0539 124.36 79.5941 122.292 77.6206C119.762 75.1562 117.166 73.0967 115.542 69.8835C112.045 62.9712 112.9 54.7331 116.012 47.9372C116.098 47.7449 115.77 47.5678 115.663 47.7601C112.298 53.7211 110.603 60.4613 112.916 67.2015C113.974 70.2209 115.757 72.9347 118.107 75.1056C121.442 78.2227 124.64 80.5403 126.421 84.882C126.497 85.0743 126.841 84.9731 126.776 84.7757Z" fill="#263238"/>
<path d="M132.347 96.4952C129.726 95.6147 124.129 90.4229 124.251 85.3627C124.372 80.3025 121.827 77.4232 121.371 76.1581C120.916 74.8931 110.957 69.7721 114.429 50.3965C114.429 50.3965 103.767 52.8456 92.6242 48.2661C79.9736 43.0541 69.5951 47.2541 64.2211 51.6666C61.5493 53.8577 65.4153 35.8585 81.4866 29.2447C88.3938 26.4009 94.1372 26.2744 98.4232 25.3534C100.28 24.9843 102.06 24.2997 103.686 23.3293C107.562 20.1464 108.964 14.8433 105.978 10.5118C100.113 2.02574 87.6905 2.22309 81.183 9.44405C81.1375 9.49971 81.0312 9.44404 81.0767 9.38332C82.6315 7.46953 84.6028 5.93609 86.8403 4.89995C86.8403 4.86959 86.8403 4.84935 86.8403 4.83417C89.0112 3.7755 91.3163 3.01791 93.6919 2.58237C90.0686 3.13697 86.6029 4.44911 83.5208 6.43321C83.4399 6.48887 83.3235 6.36236 83.4095 6.29658C88.404 2.67851 95.7312 0.452013 102.269 1.5096C97.4961 0.208561 92.4199 0.600135 87.903 2.61779C87.817 2.65827 87.7613 2.52671 87.8423 2.48116C93.3731 -0.691601 101.778 -0.959793 107.38 2.48116C108.857 3.37891 110.099 4.61571 111.003 6.08911C112.253 7.59799 113.16 9.361 113.66 11.2556C119.448 3.54888 130.738 0.00671222 140.039 6.01827C140.155 6.09923 140.039 6.27128 139.907 6.20044C136.825 4.36105 133.272 3.46512 129.686 3.62341C126.1 3.78169 122.64 4.98724 119.732 7.09104C118.231 8.15057 116.89 9.42015 115.749 10.8609C116.282 10.4029 116.845 9.98192 117.435 9.60091C124.817 4.9202 134.523 7.74381 140.55 13.4315C140.558 13.4407 140.563 13.4525 140.563 13.4649C140.563 13.4772 140.558 13.4892 140.55 13.4985C140.542 13.5079 140.531 13.5139 140.519 13.5156C140.507 13.5172 140.494 13.5143 140.484 13.5074C139.074 12.4417 137.578 11.4955 136.011 10.6787C137.31 11.4153 138.469 12.3744 139.436 13.5125C139.448 13.5219 139.455 13.5354 139.456 13.5501C139.458 13.5648 139.453 13.5795 139.444 13.5909C139.435 13.6023 139.421 13.6095 139.406 13.6109C139.392 13.6124 139.377 13.6079 139.366 13.5985C137.826 12.3111 136.043 11.3473 134.123 10.7648C136.767 11.8817 139.071 13.6717 140.808 15.9566C140.839 15.9962 140.852 16.0464 140.846 16.0962C140.84 16.146 140.814 16.1914 140.775 16.2222C140.735 16.2531 140.685 16.267 140.635 16.2608C140.585 16.2546 140.54 16.2289 140.509 16.1893C136.299 11.0886 129.174 8.98862 123.046 11.711C122.451 11.9856 121.876 12.3018 121.326 12.6573C120.282 13.3861 119.327 14.2354 118.482 15.1874C117.657 16.2651 117.167 17.5624 117.075 18.9168C117.072 18.9674 117.072 19.018 117.075 19.0686C117.04 19.7854 117.089 20.5039 117.222 21.2091C117.222 21.2496 117.252 21.2951 117.262 21.3305C117.313 21.5902 117.377 21.8469 117.455 22.0997C117.5 22.2869 117.566 22.4792 117.632 22.6766C117.667 22.7727 117.698 22.8688 117.738 22.9599C118.624 25.404 120.622 28.7893 125.086 32.6351C131.183 37.8724 149.602 47.4464 144.78 74.9842C142.665 87.0427 132.347 96.4952 132.347 96.4952Z" fill="#263238"/>
<path d="M106.833 10.532C102.927 4.03973 93.0796 3.14406 86.8707 6.84815C86.7441 6.92406 86.8352 7.13153 86.9719 7.06068C92.5988 4.02454 101.419 5.06189 105.163 10.5219C109.353 16.6245 106.707 23.466 100.503 26.7905C100.432 26.8234 100.377 26.8832 100.35 26.9567C100.323 27.0303 100.326 27.1116 100.359 27.1827C100.392 27.2538 100.451 27.309 100.525 27.336C100.598 27.3631 100.68 27.3598 100.751 27.3269C107.486 24.4375 110.755 17.0496 106.833 10.532Z" fill="#263238"/>
<path d="M133.582 13.5479C133.594 13.5487 133.606 13.5455 133.616 13.5387C133.626 13.532 133.634 13.5222 133.638 13.5107C133.642 13.4993 133.642 13.4868 133.638 13.4752C133.635 13.4637 133.627 13.4536 133.617 13.4467C128.471 11.4985 119.732 10.6635 116.731 16.4828C113.609 22.5197 117.328 29.9987 122.935 33.0348C123.249 33.2069 123.74 32.8223 123.416 32.5288C119.393 28.7286 115.603 24.063 117.389 18.1122C119.373 11.4631 128.279 11.797 133.582 13.5479Z" fill="#263238"/>
<path d="M147.508 62.8194C146.187 51.8184 138.399 43.3729 129.842 37.0122C137.762 43.7322 145.099 51.2618 146.379 62.0553C147.057 67.8037 147.143 74.3162 144.573 79.6194C142.002 84.9225 137.412 88.8593 133.101 92.8013C133.023 92.8684 132.974 92.9639 132.966 93.0669C132.958 93.1698 132.991 93.2718 133.058 93.3503C133.125 93.4288 133.221 93.4774 133.324 93.4855C133.427 93.4936 133.529 93.4604 133.607 93.3933C138.161 89.7297 142.716 85.7119 145.458 80.4644C148.206 75.136 148.211 68.6589 147.508 62.8194Z" fill="#263238"/>
<path d="M102.588 24.392C98.732 26.325 94.3852 26.3503 90.16 26.6944C85.7373 27.0486 80.5455 27.7064 76.4973 29.5787C69.8077 32.6756 64.1757 41.0604 65.1169 48.4736C65.1574 48.7873 65.6937 48.7772 65.6887 48.4483C65.6128 43.8941 67.3434 39.6739 70.1467 36.1165C73.3397 32.0683 77.0691 30.0442 82.0939 28.845C85.9309 27.9916 89.8183 27.3831 93.7325 27.0233C96.9811 26.6893 99.8351 26.1479 102.633 24.4932C102.684 24.4527 102.644 24.3667 102.588 24.392Z" fill="#263238"/>
<path d="M137.124 103.438C130.616 97.6692 137.291 89.4058 140.722 83.8041C140.823 83.6473 140.59 83.4752 140.484 83.6321C136.744 89.1275 128.102 98.4282 136.81 103.873C136.868 103.915 136.94 103.932 137.01 103.92C137.08 103.909 137.143 103.87 137.185 103.812C137.226 103.755 137.243 103.683 137.232 103.612C137.22 103.542 137.182 103.479 137.124 103.438Z" fill="#263238"/>
<path d="M132.59 104.895C130.06 99.6123 132.59 93.955 135.525 89.4513C135.578 89.3652 135.597 89.2621 135.577 89.1627C135.557 89.0634 135.501 88.9752 135.418 88.9161C135.336 88.857 135.234 88.8313 135.134 88.8442C135.033 88.8572 134.942 88.9078 134.877 88.9858C131.335 93.8082 129.549 99.4048 132.448 104.956C132.494 105.042 132.63 104.981 132.59 104.895Z" fill="#263238"/>
<path d="M137.291 100.963C132.322 96.0803 138.51 88.5405 141.223 84.2343C141.435 83.9003 140.944 83.5006 140.671 83.8042C137.448 87.4222 131.016 97.1227 137.205 101.07C137.219 101.076 137.235 101.077 137.25 101.074C137.265 101.07 137.279 101.062 137.288 101.049C137.298 101.037 137.304 101.022 137.304 101.007C137.305 100.991 137.3 100.976 137.291 100.963Z" fill="#263238"/>
<path d="M123.097 82.3215C123.097 82.3215 130.384 71.4269 137.139 71.7406C144.284 72.0796 144.623 85.1401 139.285 90.0738C133.015 95.8678 124.433 92.7962 124.433 92.7962L123.097 82.3215Z" fill="#F7A9A0"/>
<path d="M134.32 79.1386C135.418 78.2948 136.616 77.5911 137.888 77.0437C137.919 77.0278 137.944 77.0009 137.956 76.9682C137.969 76.9354 137.969 76.8992 137.956 76.8664C137.944 76.8336 137.919 76.8067 137.888 76.7909C137.857 76.775 137.821 76.7713 137.787 76.7806C132.519 78.41 127.378 83.3589 127.6 89.2894C127.602 89.3334 127.618 89.3755 127.647 89.4084C127.676 89.4413 127.716 89.463 127.759 89.4697C127.803 89.4763 127.847 89.4674 127.885 89.4447C127.922 89.4219 127.951 89.3867 127.965 89.3451C128.137 88.8391 128.306 88.3331 128.471 87.827C129.483 86.4962 130.404 85.2969 131.957 84.4417C133.444 83.6444 135.12 83.2649 136.805 83.3437C137.002 83.3437 136.997 83.0704 136.805 83.0451C135.509 82.8586 134.189 82.9494 132.931 83.3114C131.673 83.6735 130.506 84.2985 129.508 85.1451C130.058 83.8781 130.786 82.6957 131.669 81.6333C132.453 80.6962 133.337 79.8478 134.305 79.1032" fill="#263238"/>
<path d="M125.895 92.6697C125.855 92.6697 125.84 92.7253 125.895 92.7355C125.951 92.7456 125.936 92.6798 125.895 92.6697Z" fill="#263238"/>
<path d="M108.169 20.526C108.169 20.526 103.003 4.00432 100.301 9.24672C97.5983 14.4891 99.1518 18.3551 99.1518 18.3551C99.1518 18.3551 95.1036 23.8607 96.733 25.6571C98.3624 27.4534 106.737 25.571 107.319 24.0631C107.72 22.9156 108.005 21.7306 108.169 20.526Z" fill="#8997D6"/>
<path opacity="0.1" d="M108.169 20.5209C108.004 21.7263 107.721 22.9127 107.324 24.063C107.031 24.7866 104.946 25.6114 102.659 26.0567C102.495 24.498 102.483 22.927 102.623 21.3659C102.871 19.4582 105.503 17.3177 106.732 16.4271C107.587 18.6992 108.169 20.5209 108.169 20.5209Z" fill="#050400"/>
<path d="M110.907 21.2597C110.907 21.2597 127.211 8.83176 127.828 15.2481C128.446 21.6645 124.144 24.4072 124.144 24.4072C124.144 24.4072 126.391 31.8406 123.203 32.5896C120.015 33.3385 109.935 26.7956 110.021 25.0599C110.14 23.7584 110.438 22.4795 110.907 21.2597Z" fill="#8997D6"/>
<path opacity="0.1" d="M114.823 24.6956C114.504 25.9873 113.875 27.1821 112.992 28.177C111.226 26.8968 109.955 25.6773 110.001 25.0599C110.125 23.7589 110.43 22.4815 110.907 21.2648C110.907 21.2648 111.985 20.4501 113.579 19.3469C114.191 20.4956 115.178 22.7221 114.823 24.6956Z" fill="#050400"/>
<path d="M113.123 24.0074C112.91 24.9009 112.437 25.7113 111.764 26.336C111.09 26.9608 110.247 27.3718 109.34 27.5172C108.433 27.6626 107.503 27.5359 106.668 27.153C105.833 26.7701 105.131 26.1483 104.649 25.3661C104.167 24.5839 103.928 23.6765 103.962 22.7585C103.996 21.8406 104.302 20.9534 104.84 20.2089C105.378 19.4645 106.125 18.8964 106.986 18.5763C107.847 18.2563 108.784 18.1987 109.677 18.4108C110.271 18.5517 110.831 18.8083 111.326 19.166C111.821 19.5236 112.24 19.9752 112.56 20.4949C112.88 21.0147 113.095 21.5924 113.191 22.1951C113.288 22.7978 113.265 23.4136 113.123 24.0074Z" fill="#8997D6"/>
<path opacity="0.5" d="M66.4426 83.5866C69.1339 83.5866 71.3156 81.4049 71.3156 78.7136C71.3156 76.0223 69.1339 73.8406 66.4426 73.8406C63.7513 73.8406 61.5696 76.0223 61.5696 78.7136C61.5696 81.4049 63.7513 83.5866 66.4426 83.5866Z" fill="#FF99BA"/>
<path opacity="0.5" d="M111.413 88.5355C114.378 88.5355 116.782 86.1317 116.782 83.1666C116.782 80.2014 114.378 77.7977 111.413 77.7977C108.448 77.7977 106.044 80.2014 106.044 83.1666C106.044 86.1317 108.448 88.5355 111.413 88.5355Z" fill="#FF99BA"/>
<path d="M92.9429 162.946C104.369 157.172 121.28 161.428 129.119 174.352C136.957 187.276 129.402 209.885 102.158 206.601C74.9133 203.317 77.0538 170.962 92.9429 162.946Z" fill="#8997D6"/>
<path d="M59.3532 213.548C52.618 215.107 30.0747 194.411 35.4334 188.637C39.7802 183.982 62.5816 190.297 65.5874 199.38C67.6115 205.417 64.0693 212.45 59.3532 213.548Z" fill="#F7A9A0"/>
<path d="M99.3544 158.21C109.738 161.145 127.773 171.012 128.613 182.883C129.453 194.755 120.273 205.533 105.422 204.136C93.8388 203.038 79.4576 196.197 79.4576 196.197C79.4576 196.197 74.6959 205.386 71.6598 208.438C67.5053 212.633 56.9143 216.984 51.7629 209.829C48.0791 204.718 47.9728 171.969 66.8526 160.158C77.5954 153.428 87.4426 154.85 99.3544 158.21Z" fill="#F7A9A0"/>
<path d="M83.8041 184.791C83.5724 187.1 82.9675 189.356 82.0127 191.471C81.5725 192.427 81.0867 193.333 80.5706 194.213C80.0526 195.168 79.4279 196.061 78.7084 196.875C78.6325 196.956 78.759 197.143 78.84 197.067C79.2296 196.708 79.6597 196.425 80.0241 196.055C81.1279 194.843 81.9871 193.429 82.5542 191.891C83.3657 189.627 83.8215 187.251 83.9053 184.847C83.8698 184.766 83.8041 184.73 83.8041 184.791Z" fill="#263238"/>
<path d="M52.9721 201.966C51.9183 199.862 51.2223 197.598 50.9126 195.266C50.7709 194.183 50.695 193.105 50.6596 192.027C50.5844 190.87 50.6319 189.708 50.8013 188.561C50.8266 188.44 50.6191 188.374 50.5887 188.495C50.4572 189.057 50.2446 189.583 50.1434 190.16C50.0528 190.737 49.9954 191.318 49.9714 191.901C49.9213 193.043 50.0148 194.187 50.2497 195.306C50.7535 197.665 51.6407 199.925 52.8759 201.996C52.9367 202.047 53.0025 202.021 52.9721 201.966Z" fill="#263238"/>
<path d="M33.8094 203.2C31.5627 207.486 3.05333 207.542 0.589 202.563C-1.04545 199.263 2.07165 159.551 4.63719 152.132C5.09767 150.817 8.85742 148.783 18.5073 148.519C21.2499 148.449 29.1793 149.284 30.7935 151.115C32.5798 153.139 35.9499 199.127 33.8094 203.2Z" fill="white"/>
<path d="M7.95655 158.579C6.41044 158.478 4.88173 158.195 3.40234 157.734C3.45295 157.425 3.50355 157.132 3.54909 156.844C4.99831 157.345 6.47491 157.764 7.97173 158.099C8.26017 158.159 8.26017 158.599 7.95655 158.579Z" fill="#A9B7C4"/>
<path d="M5.62383 178.886C4.09183 178.785 2.57694 178.505 1.11011 178.051C1.11011 177.747 1.15565 177.444 1.18601 177.145C2.64915 177.646 4.13919 178.065 5.64914 178.4C5.92745 178.466 5.92745 178.906 5.62383 178.886Z" fill="#A9B7C4"/>
<path d="M4.50058 188.753C3.12998 188.661 1.77304 188.423 0.452393 188.045C0.452393 187.746 0.482756 187.448 0.497937 187.139C1.82766 187.583 3.17874 187.959 4.54612 188.268C4.80419 188.333 4.80419 188.753 4.50058 188.753Z" fill="#A9B7C4"/>
<path d="M7.36453 163.811C5.76833 163.714 4.18982 163.424 2.66357 162.946C2.70406 162.638 2.74454 162.339 2.77996 162.045C4.29312 162.558 5.83385 162.986 7.39489 163.326C7.66814 163.391 7.66814 163.832 7.36453 163.811Z" fill="#A9B7C4"/>
<path d="M6.18049 174.246C4.59662 174.146 3.03122 173.85 1.52002 173.365C1.52002 173.067 1.57568 172.758 1.60604 172.454C3.11204 172.982 4.64799 173.419 6.2058 173.765C6.47905 173.826 6.47905 174.266 6.18049 174.246Z" fill="#A9B7C4"/>
<path d="M3.99948 193.399C2.722 193.314 1.45595 193.103 0.219482 192.771C0.219482 192.478 0.219482 192.189 0.254904 191.886C1.48454 192.285 2.73948 192.624 4.02984 192.898C4.30815 192.974 4.30815 193.419 3.99948 193.399Z" fill="#A9B7C4"/>
<path d="M9.01397 169.702C6.62868 169.755 4.25323 169.379 2.00049 168.593C2.03085 168.29 2.06627 167.996 2.09663 167.698C4.34399 168.415 6.65285 168.923 8.99373 169.216C9.27711 169.251 9.31758 169.691 9.01397 169.702Z" fill="#A9B7C4"/>
<path d="M7.36461 184.199C5.11199 184.257 2.86627 183.926 0.725586 183.223C0.725586 182.919 0.761009 182.615 0.78631 182.307C2.93311 182.969 5.13453 183.44 7.36461 183.713C7.6328 183.759 7.67329 184.199 7.36461 184.199Z" fill="#A9B7C4"/>
<path d="M33.8094 203.2C31.5627 207.486 3.05333 207.542 0.589 202.563C-1.04545 199.263 2.07165 159.551 4.63719 152.132C5.09767 150.817 8.85742 148.783 18.5073 148.519C21.2499 148.449 29.1793 149.284 30.7935 151.115C32.5798 153.139 35.9499 199.127 33.8094 203.2Z" fill="white"/>
<path d="M33.8093 203.2C31.35 206.621 17.9961 206.5 13.8062 206.282C10.5778 206.039 1.99561 205.574 0.457304 202.472C0.378608 202.262 0.322623 202.045 0.290316 201.824C0.0500683 199.894 -0.0412861 197.949 0.0170626 196.005C0.047424 192.554 0.194172 189.108 0.386461 185.667C0.781159 178.781 1.37321 171.911 2.1626 165.056C2.57754 161.631 3.01778 158.21 3.68067 154.814C4.03489 153.58 4.04501 151.996 5.11778 151.126C6.89898 149.8 9.16597 149.339 11.271 148.945C17.232 147.978 23.5067 147.993 29.2601 149.982C29.9056 150.204 30.4898 150.575 30.9654 151.065C31.7447 152.886 31.8054 154.911 32.1242 156.828C33.1666 165.385 33.7233 173.993 34.1483 182.595C34.3153 186.036 34.4418 189.482 34.4823 192.928C34.4823 194.654 34.4823 196.374 34.4418 198.1C34.4013 199.825 34.3912 201.586 33.7891 203.2H33.8093ZM33.8093 203.2C34.4064 201.586 34.3406 199.8 34.4418 198.1C34.543 196.399 34.4874 194.654 34.4671 192.928C34.2748 182.595 33.5259 172.272 32.443 161.995C32.0382 158.599 31.7447 155.123 30.8997 151.814C30.8468 151.525 30.6946 151.264 30.4695 151.075C29.4018 150.23 27.9799 149.946 26.6693 149.623C23.3186 148.887 19.8815 148.623 16.4578 148.838C13.0876 149.076 9.56066 149.41 6.47898 150.862C5.75537 151.247 4.96091 151.697 4.79392 152.451C4.53585 153.256 4.35874 154.096 4.17657 154.931C3.49344 158.296 3.03802 161.712 2.61296 165.127C1.42887 175.384 0.507906 185.697 0.254894 196.02C0.178628 197.95 0.249676 199.884 0.467423 201.804C0.765977 204.541 6.4385 205.29 8.65488 205.7C13.7787 206.407 18.9654 206.541 24.119 206.1C26.6997 205.801 32.2457 205.417 33.7941 203.216L33.8093 203.2Z" fill="#C7C7C7"/>
<path d="M7.95655 158.579C6.41044 158.478 4.88173 158.195 3.40234 157.734C3.45295 157.425 3.50355 157.132 3.54909 156.844C4.99831 157.345 6.47491 157.764 7.97173 158.099C8.26017 158.159 8.26017 158.599 7.95655 158.579Z" fill="#DBDBDB"/>
<path d="M5.62383 178.886C4.09183 178.785 2.57694 178.505 1.11011 178.051C1.11011 177.747 1.15565 177.444 1.18601 177.145C2.64915 177.646 4.13919 178.065 5.64914 178.4C5.92745 178.466 5.92745 178.906 5.62383 178.886Z" fill="#DBDBDB"/>
<path d="M4.50058 188.753C3.12998 188.661 1.77304 188.423 0.452393 188.045C0.452393 187.746 0.482756 187.448 0.497937 187.139C1.82766 187.583 3.17874 187.959 4.54612 188.268C4.80419 188.333 4.80419 188.753 4.50058 188.753Z" fill="#DBDBDB"/>
<path d="M7.36453 163.811C5.76833 163.714 4.18982 163.424 2.66357 162.946C2.70406 162.638 2.74454 162.339 2.77996 162.045C4.29312 162.558 5.83385 162.986 7.39489 163.326C7.66814 163.391 7.66814 163.832 7.36453 163.811Z" fill="#DBDBDB"/>
<path d="M6.18049 174.246C4.59662 174.146 3.03122 173.85 1.52002 173.365C1.52002 173.067 1.57568 172.758 1.60604 172.454C3.11204 172.982 4.64799 173.419 6.2058 173.765C6.47905 173.826 6.47905 174.266 6.18049 174.246Z" fill="#DBDBDB"/>
<path d="M3.99948 193.399C2.722 193.314 1.45595 193.103 0.219482 192.771C0.219482 192.478 0.219482 192.189 0.254904 191.886C1.48454 192.285 2.73948 192.624 4.02984 192.898C4.30815 192.974 4.30815 193.419 3.99948 193.399Z" fill="#DBDBDB"/>
<path d="M9.01397 169.702C6.62868 169.755 4.25323 169.379 2.00049 168.593C2.03085 168.29 2.06627 167.996 2.09663 167.698C4.34399 168.415 6.65285 168.923 8.99373 169.216C9.27711 169.251 9.31758 169.691 9.01397 169.702Z" fill="#DBDBDB"/>
<path d="M7.36461 184.199C5.11199 184.257 2.86627 183.926 0.725586 183.223C0.725586 182.919 0.761009 182.615 0.78631 182.307C2.93311 182.969 5.13453 183.44 7.36461 183.713C7.6328 183.759 7.67329 184.199 7.36461 184.199Z" fill="#DBDBDB"/>
<path d="M29.2096 149.445C29.0933 150.726 28.8909 151.758 28.6176 151.885C27.8737 152.239 25.1615 153.944 18.4971 154.172C12.2022 154.384 7.76439 152.335 7.36463 151.753C6.96487 151.171 6.98511 145.063 7.26342 144.542C7.49113 144.112 10.2186 142.437 14.8183 141.961C15.948 141.847 17.0842 141.812 18.2188 141.855C24.0735 142.068 28.5872 143.267 29.0831 143.879C29.3766 144.223 29.4121 147.219 29.2096 149.445Z" fill="#455A64"/>
<path d="M26.1178 145.878C25.7282 146.227 23.1576 147.674 18.0214 147.543C13.2294 147.432 10.4614 145.979 10.2084 145.367C10.2084 145.367 10.1123 142.457 11.9087 140.56C13.0776 139.325 15.3041 138.784 15.3041 137.61C15.3041 136.436 13.28 134.978 13.452 133.055C13.6241 131.133 15.6937 129.088 17.8797 129.235C18.4117 129.264 18.9401 129.34 19.4585 129.463C21.1031 129.862 22.525 130.839 22.3935 133.06C22.2113 135.98 20.4655 136.203 20.5667 137.544C20.6679 138.885 21.8874 138.854 24.0482 139.932C24.9033 140.357 25.46 141.309 25.799 142.336C26.3303 143.925 26.3354 145.666 26.1178 145.878Z" fill="#8997D6"/>
<g opacity="0.5">
<path d="M26.1178 145.878C25.7282 146.227 23.1576 147.674 18.0214 147.543C13.2294 147.432 10.4614 145.979 10.2084 145.367C10.2084 145.367 10.1123 142.457 11.9087 140.56C13.0776 139.325 15.3041 138.784 15.3041 137.61C15.3041 136.436 13.28 134.978 13.452 133.055C13.6241 131.133 15.6937 129.088 17.8797 129.235C18.4117 129.264 18.9401 129.34 19.4585 129.463C21.1031 129.862 22.525 130.839 22.3935 133.06C22.2113 135.98 20.4655 136.203 20.5667 137.544C20.6679 138.885 21.8874 138.854 24.0482 139.932C24.9033 140.357 25.46 141.309 25.799 142.336C26.3303 143.925 26.3354 145.666 26.1178 145.878Z" fill="white"/>
</g>
<g opacity="0.2">
<path d="M33.8092 203.2C32.0483 206.555 14.1806 207.319 5.33024 205.098L4.64711 204.916L4.42446 204.85L4.10566 204.749L3.59964 204.577L3.35675 204.486L2.92157 204.314C2.7394 204.233 2.56735 204.157 2.41555 204.071C1.96522 203.86 1.54765 203.586 1.17579 203.256C0.956083 203.062 0.77423 202.828 0.639404 202.568C6.06397 204.379 13.3456 202.952 18.5982 201.05H18.669C19.3218 200.817 19.9442 200.544 20.5261 200.321L20.7032 200.24C21.2801 199.997 21.8165 199.734 22.3023 199.501C22.3371 199.477 22.3744 199.457 22.4136 199.441H22.4642L22.5958 199.375C23.3419 199.002 24.0473 198.552 24.7008 198.034C24.7484 197.998 24.7941 197.959 24.8374 197.917L24.883 197.872C25.0499 197.732 25.1875 197.56 25.2878 197.366C25.3052 197.328 25.3204 197.289 25.3333 197.25C26.0376 195.375 26.5628 193.439 26.902 191.466V191.44V191.339L26.9627 191.051C26.9627 190.965 26.9982 190.874 27.0133 190.783C27.1888 189.848 27.3574 188.858 27.5194 187.812C27.5194 187.757 27.5194 187.701 27.5194 187.645C27.5548 187.438 27.5851 187.23 27.6155 187.018C27.6183 186.996 27.6183 186.974 27.6155 186.952C27.6762 186.557 27.7369 186.152 27.7926 185.743C27.8635 185.237 27.9343 184.756 28.0001 184.255C28.0001 184.184 28.0001 184.113 28.0001 184.037L28.1215 183.106L28.1671 182.757C28.1671 182.575 28.2126 182.388 28.2379 182.2V182.064C28.2733 181.76 28.3138 181.457 28.3492 181.148L28.3796 180.875L28.41 180.611L28.4859 179.954C28.5213 179.665 28.5516 179.372 28.582 179.078C28.6056 178.889 28.6259 178.702 28.6427 178.517C28.6427 178.329 28.6832 178.142 28.7035 177.955L28.7338 177.717C28.7338 177.687 28.7338 177.656 28.7338 177.621L28.8401 176.609C28.8401 176.437 28.8755 176.27 28.8907 176.103C28.893 176.066 28.893 176.029 28.8907 175.991C28.8907 175.991 28.8907 175.991 28.8907 175.966C28.8907 175.83 28.8907 175.693 28.9312 175.556C28.9666 175.207 28.9969 174.858 29.0324 174.504V174.342C29.0324 174.22 29.0324 174.094 29.0678 173.972C29.1083 173.552 29.1437 173.132 29.1842 172.717C29.2651 171.842 29.341 170.972 29.4169 170.111C29.4145 170.074 29.4145 170.037 29.4169 170C29.4169 169.894 29.4169 169.788 29.4169 169.681V169.484L29.4928 168.563V168.33C29.4928 168.265 29.4928 168.199 29.4928 168.133C29.4928 167.961 29.4928 167.794 29.5333 167.627V167.465C29.5308 167.426 29.5308 167.387 29.5333 167.349C29.5333 167.222 29.5333 167.091 29.5586 166.964C29.5618 166.941 29.5618 166.917 29.5586 166.893C29.5586 166.832 29.5586 166.777 29.5586 166.716C29.5586 166.463 29.5991 166.21 29.6143 165.967C29.6189 165.91 29.6189 165.852 29.6143 165.795C29.9837 160.932 30.2418 156.687 30.3885 154.065C30.4341 153.205 30.4695 152.517 30.4948 152.041C30.4948 152.001 30.4948 151.945 30.4948 151.885C30.4948 151.824 30.4948 151.844 30.4948 151.824C30.4948 151.804 30.4948 151.682 30.4948 151.611C30.4972 151.579 30.4972 151.547 30.4948 151.515C30.4948 151.363 30.4948 151.287 30.4948 151.287C30.509 151.297 30.5196 151.312 30.5251 151.328C30.6582 151.566 30.757 151.821 30.8186 152.087C31.0841 153.158 31.2919 154.242 31.441 155.336C31.4389 155.359 31.4389 155.383 31.441 155.406C31.441 155.508 31.4714 155.614 31.4916 155.725C31.5119 155.837 31.4916 155.902 31.5271 155.993C31.5574 156.196 31.5827 156.398 31.6131 156.611L31.6586 156.975C31.7446 157.598 31.8256 158.255 31.9066 158.954C31.9875 159.652 32.0837 160.472 32.1697 161.281C32.1697 161.489 32.2153 161.696 32.2355 161.909C32.2355 161.909 32.2355 161.909 32.2355 161.939C32.2659 162.223 32.2912 162.506 32.3215 162.794C34.1128 177.145 35.302 200.362 33.8092 203.2Z" fill="#EBEBEB"/>
</g>
</svg>
