<svg width="53" height="53" viewBox="0 0 53 53" fill="none" xmlns="http://www.w3.org/2000/svg">
<path d="M26.5703 12.4219C26.5703 12.4219 23.291 11.776 20.9474 13.2418C18.6038 14.7075 15.6142 18.3968 13.5067 20.2725C11.3991 22.1482 3.07642 25.0757 2.07853 29.9409C1.08064 34.8061 3.04744 39.2283 7.29158 43.7085C11.5109 48.1596 17.6638 50.3293 21.5892 49.1575C25.5145 47.9857 27.6262 42.3007 30.9056 39.1372C34.1849 35.9738 36.7231 34.0401 38.222 30.9719C40.0232 27.2826 38.9384 24.9018 38.9384 24.9018L26.5703 12.4219Z" fill="#BBCED4"/>
<path d="M31.0838 18.9267C30.206 18.0489 28.3345 14.811 26.9266 14.517C25.5188 14.223 22.4506 14.5874 19.9497 17.051C17.9125 19.0592 15.7884 21.3863 13.7967 22.8521C11.8051 24.3178 8.00813 26.3343 6.88189 27.1873C6.06204 27.8125 4.16149 29.2742 3.99587 32.214C3.86337 34.5286 4.69978 37.7832 8.69962 42.0687C12.774 46.4371 17.0223 47.2031 19.5563 47.0168C23.109 46.76 24.6907 43.638 25.3408 42.6774C26.1648 41.4642 28.7361 37.8494 30.0859 36.7935C31.4317 35.7377 34.7731 32.8393 36.0029 30.4087C37.8082 26.8436 37.0505 24.8437 37.0505 24.8437L31.0838 18.9267Z" fill="#F5F3E7"/>
<path d="M16.9519 24.3137C17.4778 25.0549 18.6703 25.1211 20.1899 23.8417C21.7054 22.5622 23.2581 21.3821 24.3015 20.8066C25.345 20.2352 27.5064 18.8854 25.9868 17.0304C24.4713 15.1754 22.5459 16.8937 21.6722 17.7715C20.7944 18.6493 19.7261 20.3429 18.7034 21.5478C17.7593 22.6616 16.2107 23.2703 16.9519 24.3137Z" fill="white"/>
<path d="M29.1128 8.43442C26.6781 10.4757 25.9618 11.544 25.8541 12.5999C25.7506 13.6557 26.6988 17.0345 30.4295 21.1834C34.1602 25.3323 37.9241 27.4109 39.4726 27.1666C41.0212 26.9223 42.0315 25.7671 43.4559 24.3137C44.048 23.7092 45.7912 21.7838 45.8616 20.8315C45.932 19.8832 45.2447 16.2064 41.7086 12.1568C37.481 7.30817 34.1188 6.57528 33.2451 6.51317C31.6883 6.40137 30.4171 7.34543 29.1128 8.43442Z" fill="#37B4E5"/>
<path d="M32.3299 8.40551C32.2761 10.3143 33.804 13.4902 36.6528 16.5915C40.1392 20.3843 42.284 21.465 43.932 21.846C44.7725 22.0406 45.5427 21.7673 45.5096 21.2622C45.4764 20.757 45.0334 20.9889 43.2653 20.3429C42.4496 20.0448 40.2303 18.8689 37.5389 15.8338C34.8474 12.7946 33.7626 10.4551 33.6011 8.84856C33.4355 7.21302 33.9034 6.97286 33.2989 6.75341C32.6985 6.52567 32.3631 7.26684 32.3299 8.40551ZM31.6343 8.65809C31.92 9.25434 30.8103 10.2108 29.8621 11.1259C28.7193 12.2315 27.9036 13.014 27.5185 12.4882C27.1086 11.9168 28.4667 10.8733 29.1334 10.2108C30.1478 9.19637 31.3196 7.99559 31.6343 8.65809ZM30.4874 14.219C29.0257 15.5564 28.3591 15.9953 28.856 16.5336C29.357 17.0718 30.5867 15.7717 31.1167 15.2665C31.6509 14.7572 33.3775 13.4571 32.9469 12.8857C32.4045 12.1652 31.3528 13.424 30.4874 14.219ZM33.3527 18.0822C32.1395 19.2747 31.0256 20.2022 31.6302 20.7363C32.1643 21.2042 33.4189 19.7757 34.1932 19.0138C34.9675 18.2519 36.2056 17.2706 35.7128 16.7282C35.1414 16.0947 34.2967 17.1547 33.3527 18.0822ZM35.1704 23.9246C35.7211 24.4546 36.5658 23.5271 37.5389 22.5002C38.4332 21.5561 39.6547 20.7529 39.0626 20.1483C38.5119 19.5852 37.4685 20.7363 36.6279 21.5396C35.6549 22.4712 34.6487 23.4318 35.1704 23.9246ZM40.4663 23.8583C39.1206 25.204 38.5285 25.6926 39.0957 26.1315C39.663 26.5704 40.7768 25.175 41.5511 24.5043C42.3254 23.8335 43.2032 23.0592 42.7146 22.5913C42.226 22.1275 41.3731 22.9515 40.4663 23.8583Z" fill="#1E88FE"/>
<path d="M50.3005 8.19838C51.3481 7.18393 52.0976 4.98526 50.4372 3.51533C49.0335 2.269 46.897 2.64994 45.779 3.98322C44.6734 5.30822 44.7852 6.39307 43.5555 6.62908C42.2305 6.88166 40.8309 5.3165 37.7048 5.88377C36.5827 6.08666 35.5392 6.94377 34.7773 7.76361C34.9057 8.29361 34.7028 10.8567 38.3052 14.9849C41.4189 18.5541 44.5037 19.6224 45.3235 19.4402C46.1682 18.6576 47.2034 17.4071 47.4973 15.8254C48.135 12.4011 46.4663 11.2707 47.0212 10.3308C47.7458 9.0969 48.9341 9.52338 50.3005 8.19838Z" fill="#FFA828"/>
<path d="M46.1679 6.09088C46.7103 6.80721 47.5302 6.25236 48.1637 5.5733C48.673 5.0226 49.3728 4.43049 49.0001 3.9833C48.4701 3.34564 47.5467 3.62307 46.9753 4.06197C46.3998 4.50088 45.7663 5.56088 46.1679 6.09088ZM37.3567 7.97072C37.1331 9.13424 38.7355 9.32057 39.398 9.40338C40.0605 9.48619 41.5718 9.54416 41.6298 8.49244C41.6836 7.52768 40.5781 7.11361 39.6174 7.00596C38.6527 6.8983 37.5223 7.11775 37.3567 7.97072Z" fill="#FFCC8A"/>
</svg>
