<svg width="92" height="92" viewBox="0 0 92 92" fill="none" xmlns="http://www.w3.org/2000/svg">
<path d="M45.5703 32.4219C45.5703 32.4219 42.291 31.776 39.9474 33.2418C37.6038 34.7075 34.6142 38.3968 32.5067 40.2725C30.3991 42.1482 22.0764 45.0757 21.0785 49.9409C20.0806 54.8061 22.0474 59.2283 26.2916 63.7085C30.5109 68.1596 36.6638 70.3293 40.5892 69.1575C44.5145 67.9857 46.6262 62.3007 49.9056 59.1372C53.1849 55.9738 55.7231 54.0401 57.222 50.9719C59.0232 47.2826 57.9384 44.9018 57.9384 44.9018L45.5703 32.4219Z" fill="#BBCED4"/>
<path d="M50.0838 38.9267C49.206 38.0489 47.3345 34.811 45.9266 34.517C44.5188 34.223 41.4506 34.5874 38.9497 37.051C36.9125 39.0592 34.7884 41.3863 32.7967 42.8521C30.8051 44.3178 27.0081 46.3343 25.8819 47.1873C25.062 47.8125 23.1615 49.2742 22.9959 52.214C22.8634 54.5286 23.6998 57.7832 27.6996 62.0687C31.774 66.4371 36.0223 67.2031 38.5563 67.0168C42.109 66.76 43.6907 63.638 44.3408 62.6774C45.1648 61.4642 47.7361 57.8494 49.0859 56.7935C50.4317 55.7377 53.7731 52.8393 55.0029 50.4087C56.8082 46.8436 56.0505 44.8437 56.0505 44.8437L50.0838 38.9267Z" fill="#F5F3E7"/>
<path d="M35.9519 44.3137C36.4778 45.0549 37.6703 45.1211 39.1899 43.8417C40.7054 42.5622 42.2581 41.3821 43.3015 40.8066C44.345 40.2352 46.5064 38.8854 44.9868 37.0304C43.4713 35.1754 41.5459 36.8937 40.6722 37.7715C39.7944 38.6493 38.7261 40.3429 37.7034 41.5478C36.7593 42.6616 35.2107 43.2703 35.9519 44.3137Z" fill="white"/>
<path d="M48.1128 28.4344C45.6781 30.4757 44.9618 31.544 44.8541 32.5999C44.7506 33.6557 45.6988 37.0345 49.4295 41.1834C53.1602 45.3323 56.9241 47.4109 58.4726 47.1666C60.0212 46.9223 61.0315 45.7671 62.4559 44.3137C63.048 43.7092 64.7912 41.7838 64.8616 40.8315C64.932 39.8832 64.2447 36.2064 60.7086 32.1568C56.481 27.3082 53.1188 26.5753 52.2451 26.5132C50.6883 26.4014 49.4171 27.3454 48.1128 28.4344Z" fill="#37B4E5"/>
<path d="M51.3299 28.4055C51.2761 30.3143 52.804 33.4902 55.6528 36.5915C59.1392 40.3843 61.284 41.465 62.932 41.846C63.7725 42.0406 64.5427 41.7673 64.5096 41.2622C64.4764 40.757 64.0334 40.9889 62.2653 40.3429C61.4496 40.0448 59.2303 38.8689 56.5389 35.8338C53.8474 32.7946 52.7626 30.4551 52.6011 28.8486C52.4355 27.213 52.9034 26.9729 52.2989 26.7534C51.6985 26.5257 51.3631 27.2668 51.3299 28.4055ZM50.6343 28.6581C50.92 29.2543 49.8103 30.2108 48.8621 31.1259C47.7193 32.2315 46.9036 33.014 46.5185 32.4882C46.1086 31.9168 47.4667 30.8733 48.1334 30.2108C49.1478 29.1964 50.3196 27.9956 50.6343 28.6581ZM49.4874 34.219C48.0257 35.5564 47.3591 35.9953 47.856 36.5336C48.357 37.0718 49.5867 35.7717 50.1167 35.2665C50.6509 34.7572 52.3775 33.4571 51.9469 32.8857C51.4045 32.1652 50.3528 33.424 49.4874 34.219ZM52.3527 38.0822C51.1395 39.2747 50.0256 40.2022 50.6302 40.7363C51.1643 41.2042 52.4189 39.7757 53.1932 39.0138C53.9675 38.2519 55.2056 37.2706 54.7128 36.7282C54.1414 36.0947 53.2967 37.1547 52.3527 38.0822ZM54.1704 43.9246C54.7211 44.4546 55.5658 43.5271 56.5389 42.5002C57.4332 41.5561 58.6547 40.7529 58.0626 40.1483C57.5119 39.5852 56.4685 40.7363 55.6279 41.5396C54.6549 42.4712 53.6487 43.4318 54.1704 43.9246ZM59.4663 43.8583C58.1206 45.204 57.5285 45.6926 58.0957 46.1315C58.663 46.5704 59.7768 45.175 60.5511 44.5043C61.3254 43.8335 62.2032 43.0592 61.7146 42.5913C61.226 42.1275 60.3731 42.9515 59.4663 43.8583Z" fill="#1E88FE"/>
<path d="M69.3005 28.1984C70.3481 27.1839 71.0976 24.9853 69.4372 23.5153C68.0335 22.269 65.897 22.6499 64.779 23.9832C63.6734 25.3082 63.7852 26.3931 62.5555 26.6291C61.2305 26.8817 59.8309 25.3165 56.7048 25.8838C55.5827 26.0867 54.5392 26.9438 53.7773 27.7636C53.9057 28.2936 53.7028 30.8567 57.3052 34.9849C60.4189 38.5541 63.5037 39.6224 64.3235 39.4402C65.1682 38.6576 66.2034 37.4071 66.4973 35.8254C67.135 32.4011 65.4663 31.2707 66.0212 30.3308C66.7458 29.0969 67.9341 29.5234 69.3005 28.1984Z" fill="#FFA828"/>
<path d="M65.1679 26.0909C65.7103 26.8072 66.5302 26.2524 67.1637 25.5733C67.673 25.0226 68.3728 24.4305 68.0001 23.9833C67.4701 23.3456 66.5467 23.6231 65.9753 24.062C65.3998 24.5009 64.7663 25.5609 65.1679 26.0909ZM56.3567 27.9707C56.1331 29.1342 57.7355 29.3206 58.398 29.4034C59.0605 29.4862 60.5718 29.5442 60.6298 28.4924C60.6836 27.5277 59.5781 27.1136 58.6174 27.006C57.6527 26.8983 56.5223 27.1178 56.3567 27.9707Z" fill="#FFCC8A"/>
<path d="M92 46C92 71.4051 71.4051 92 46 92C20.5949 92 0 71.4051 0 46C0 20.5949 20.5949 0 46 0C71.4051 0 92 20.5949 92 46ZM4.97974 46C4.97974 68.6549 23.3451 87.0203 46 87.0203C68.6549 87.0203 87.0203 68.6549 87.0203 46C87.0203 23.3451 68.6549 4.97974 46 4.97974C23.3451 4.97974 4.97974 23.3451 4.97974 46Z" fill="#C3BED6"/>
</svg>
