<svg width="92" height="92" viewBox="0 0 92 92" fill="none" xmlns="http://www.w3.org/2000/svg">
<path d="M21.6299 47.6722C21.6299 47.6722 24.1306 59.628 41.1692 66.3782V47.857L21.6299 47.6722Z" fill="#9DACCE"/>
<path d="M21.0739 36.3746C21.0739 36.3746 19.7369 41.2767 20.655 47.2894C20.7461 47.8716 21.0376 48.4038 21.4791 48.7942C21.9207 49.1845 22.4846 49.4084 23.0737 49.4274C25.6976 49.5195 30.3771 50.0263 33.8589 52.3036C36.887 47.5741 37.5067 39.5498 37.6505 30.8743C34.2818 30.8234 28.9176 30.9094 23.1304 31.6565C22.6305 31.7193 22.1633 31.9388 21.7958 32.2834C21.4283 32.6281 21.1793 33.0803 21.0846 33.5751C20.9558 34.2645 20.9085 35.1837 21.0739 36.3746Z" fill="#F5F7FF"/>
<path d="M69.3703 47.6722C69.3703 47.6722 66.8701 59.628 49.8311 66.3782V47.857L69.3703 47.6722Z" fill="#9DACCE"/>
<path d="M69.9262 36.3746C69.9262 36.3746 71.2632 41.2767 70.345 47.2894C70.2539 47.8716 69.9625 48.4038 69.5209 48.7942C69.0794 49.1845 68.5154 49.4084 67.9264 49.4274C65.2672 49.5207 60.4966 50.0401 57.0012 52.3966C54.1597 46.2869 53.3866 38.8218 53.3496 30.8743C56.7183 30.8234 62.0824 30.9094 67.8697 31.6565C68.3696 31.7193 68.8368 31.9388 69.2043 32.2834C69.5718 32.6281 69.8208 33.0803 69.9155 33.5751C70.0443 34.2645 70.0916 35.1837 69.9262 36.3746Z" fill="#F5F7FF"/>
<path d="M21.0287 36.709C20.8811 36.7031 20.7413 36.6413 20.6374 36.5362C20.5336 36.4311 20.4736 36.2905 20.4695 36.1428C20.4653 35.9951 20.5174 35.8514 20.6152 35.7407C20.7129 35.6299 20.8491 35.5604 20.9962 35.5462C21.0439 35.5415 27.9725 35.0765 35.4919 34.7334C35.6463 34.7264 35.7973 34.781 35.9115 34.8852C36.0257 34.9895 36.0938 35.1348 36.1008 35.2893C36.1078 35.4438 36.0532 35.5947 35.9489 35.7089C35.8447 35.8231 35.6993 35.8912 35.5449 35.8982C28.0584 36.2399 21.1567 36.702 21.1094 36.7067C21.0826 36.7093 21.0556 36.7101 21.0287 36.709Z" fill="#9DACCE"/>
<path d="M69.8432 36.709C69.9908 36.7031 70.1306 36.6413 70.2345 36.5362C70.3383 36.4311 70.3983 36.2905 70.4024 36.1428C70.4066 35.9951 70.3545 35.8514 70.2567 35.7407C70.1589 35.6299 70.0228 35.5604 69.8757 35.5462C69.828 35.5415 62.8994 35.0765 55.38 34.7334C55.2256 34.7264 55.0746 34.781 54.9604 34.8852C54.8462 34.9895 54.7781 35.1348 54.7711 35.2893C54.7641 35.4438 54.8187 35.5947 54.923 35.7089C55.0272 35.8231 55.1726 35.8912 55.327 35.8982C62.8135 36.2399 69.7152 36.702 69.7626 36.7067C69.7894 36.7093 69.8163 36.7101 69.8432 36.709Z" fill="#9DACCE"/>
<path d="M33.8589 52.3039C35.5734 53.4253 36.9977 54.9758 37.7426 57.1177L37.6506 30.8743C37.6506 30.8743 31.5845 33.3455 33.8589 52.3039Z" fill="#9DACCE"/>
<path d="M53.3496 30.9393L53.2578 57.1175C53.9824 55.0341 55.35 53.5108 57.0019 52.397C59.1073 35.0066 54.215 31.4296 53.3496 30.9393Z" fill="#9DACCE"/>
<path d="M55.5725 38.9675C55.2947 33.0408 53.3495 30.8743 53.3495 30.8743H37.6509C37.6509 30.8743 35.7057 33.0408 35.4276 38.9675C35.1655 44.5593 34.821 57.076 39.7609 65.3946C40.1421 66.0403 40.6541 66.5992 41.2639 67.0355C41.8737 67.4718 42.568 67.7758 43.3022 67.9281C44.7542 68.207 46.246 68.207 47.698 67.9281C48.4322 67.7758 49.1264 67.4718 49.7363 67.0355C50.3461 66.5992 50.858 66.0403 51.2392 65.3946C56.1793 57.076 55.8351 44.5593 55.5725 38.9675Z" fill="#F5F7FF"/>
<path d="M52.1342 41.0605C52.1345 40.2894 51.8851 39.539 51.4232 38.9216C50.9613 38.3042 50.3118 37.853 49.572 37.6356C48.8322 37.4183 48.0419 37.4465 47.3194 37.7159C46.5969 37.9854 45.9812 38.4816 45.5644 39.1303L43.3252 42.1926C43.2794 42.2543 43.2464 42.3245 43.2279 42.3991C43.2093 42.4737 43.2058 42.5512 43.2173 42.6272C43.2289 42.7032 43.2554 42.7761 43.2952 42.8418C43.3351 42.9076 43.3875 42.9647 43.4496 43.0101C43.5116 43.0555 43.582 43.0881 43.6567 43.1062C43.7314 43.1242 43.8089 43.1274 43.8848 43.1153C43.9607 43.1033 44.0335 43.0764 44.099 43.0362C44.1645 42.9959 44.2213 42.9431 44.2663 42.8808L45.0698 41.782C45.091 41.8839 45.1147 41.985 45.144 42.0847C45.1886 42.2325 45.29 42.3566 45.4259 42.4297C45.5619 42.5029 45.7213 42.5191 45.8692 42.4749C46.0171 42.4307 46.1414 42.3296 46.2149 42.1938C46.2884 42.0581 46.305 41.8987 46.2612 41.7507C46.1641 41.4254 46.137 41.0833 46.1816 40.7469C46.2263 40.4104 46.3416 40.0872 46.52 39.7985C46.52 39.7985 47.2302 38.5854 48.5643 38.657C49.8877 38.7281 50.9678 39.7353 50.9678 41.0605C50.9683 41.6209 50.7721 42.1637 50.4134 42.5942L50.0734 42.9294C49.6468 43.2757 49.1138 43.4645 48.5643 43.464C48.3969 43.4641 48.23 43.4468 48.0661 43.4124C47.9912 43.3965 47.9138 43.3954 47.8384 43.4094C47.763 43.4234 47.6912 43.4521 47.6269 43.4939C47.5627 43.5357 47.5073 43.5897 47.4639 43.6529C47.4206 43.7161 47.3901 43.7873 47.3743 43.8623C47.3585 43.9373 47.3576 44.0147 47.3717 44.09C47.3858 44.1653 47.4147 44.2372 47.4566 44.3013C47.4984 44.3655 47.5526 44.4208 47.6159 44.464C47.6792 44.5073 47.7504 44.5376 47.8254 44.5533C48.0001 44.5899 48.1772 44.6133 48.3554 44.6235L44.0836 48.8356C43.974 48.231 43.6614 47.6819 43.1974 47.2791C42.7334 46.8763 42.1459 46.6438 41.5319 46.6202L41.9439 46.0568C42.0352 45.932 42.0731 45.776 42.0494 45.6232C42.0257 45.4704 41.9423 45.3333 41.8175 45.242C41.7557 45.1968 41.6856 45.1643 41.6112 45.1461C41.5368 45.128 41.4596 45.1248 41.3839 45.1365C41.2311 45.1602 41.094 45.2436 41.0027 45.3684L39.459 47.4795C38.9871 47.9837 38.7271 48.65 38.7325 49.3406C38.738 50.0311 39.0086 50.6932 39.4883 51.1899C39.9681 51.6866 40.6204 51.9799 41.3104 52.0093C42.0003 52.0386 42.6752 51.8017 43.1954 51.3476C43.1966 51.3465 43.1979 51.3458 43.199 51.3447L43.2007 51.3429C43.2855 51.2687 50.8626 43.7889 50.8626 43.7889C51.2609 43.4545 51.5811 43.037 51.8007 42.5656C52.0204 42.0943 52.1342 41.5805 52.1342 41.0605ZM39.903 49.3129C39.9025 49.0661 39.9618 48.8229 40.0757 48.6041C40.1896 48.3852 40.3549 48.1971 40.5573 48.056C40.7597 47.9148 40.9932 47.8248 41.238 47.7935C41.4828 47.7622 41.7315 47.7907 41.9629 47.8764C42.1943 47.9621 42.4015 48.1026 42.5668 48.2858C42.7321 48.469 42.8506 48.6894 42.9122 48.9284C42.9738 49.1673 42.9767 49.4177 42.9205 49.6579C42.8643 49.8982 42.7509 50.1214 42.5897 50.3083C42.5897 50.3083 42.0445 50.8924 41.4318 50.8417C40.592 50.772 39.903 50.1559 39.903 49.3129Z" fill="#7AAEED"/>
<path d="M92 46C92 71.4051 71.4051 92 46 92C20.5949 92 0 71.4051 0 46C0 20.5949 20.5949 0 46 0C71.4051 0 92 20.5949 92 46ZM4.97974 46C4.97974 68.6549 23.3451 87.0203 46 87.0203C68.6549 87.0203 87.0203 68.6549 87.0203 46C87.0203 23.3451 68.6549 4.97974 46 4.97974C23.3451 4.97974 4.97974 23.3451 4.97974 46Z" fill="#C3BED6"/>
</svg>
