<svg width="53" height="53" viewBox="0 0 53 53" fill="none" xmlns="http://www.w3.org/2000/svg">
<path d="M2.62988 24.6722C2.62988 24.6722 5.13064 36.628 22.1692 43.3782V24.857L2.62988 24.6722Z" fill="#9DACCE"/>
<path d="M2.07386 13.3746C2.07386 13.3746 0.736878 18.2767 1.65505 24.2894C1.74614 24.8716 2.0376 25.4038 2.47914 25.7942C2.92069 26.1845 3.48462 26.4084 4.07365 26.4274C6.69758 26.5195 11.3771 27.0263 14.8589 29.3036C17.887 24.5741 18.5067 16.5498 18.6505 7.87433C15.2818 7.82345 9.91765 7.90942 4.13036 8.6565C3.63046 8.71933 3.16328 8.93879 2.79577 9.28345C2.42827 9.6281 2.1793 10.0803 2.08456 10.5751C1.95577 11.2645 1.9085 12.1837 2.07386 13.3746Z" fill="#F5F7FF"/>
<path d="M50.3703 24.6722C50.3703 24.6722 47.8701 36.628 30.8311 43.3782V24.857L50.3703 24.6722Z" fill="#9DACCE"/>
<path d="M50.9262 13.3746C50.9262 13.3746 52.2632 18.2767 51.345 24.2894C51.2539 24.8716 50.9625 25.4038 50.5209 25.7942C50.0794 26.1845 49.5154 26.4084 48.9264 26.4274C46.2672 26.5207 41.4966 27.0401 38.0012 29.3966C35.1597 23.2869 34.3866 15.8218 34.3496 7.87433C37.7183 7.82345 43.0824 7.90942 48.8697 8.6565C49.3696 8.71933 49.8368 8.93879 50.2043 9.28345C50.5718 9.6281 50.8208 10.0803 50.9155 10.5751C51.0443 11.2645 51.0916 12.1837 50.9262 13.3746Z" fill="#F5F7FF"/>
<path d="M2.02869 13.709C1.88109 13.7031 1.74125 13.6413 1.63744 13.5362C1.53364 13.4311 1.4736 13.2905 1.46947 13.1428C1.46533 12.9951 1.51741 12.8514 1.61518 12.7407C1.71295 12.6299 1.84911 12.5604 1.99615 12.5462C2.04385 12.5415 8.97254 12.0765 16.4919 11.7334C16.6463 11.7264 16.7973 11.781 16.9115 11.8852C17.0257 11.9895 17.0938 12.1348 17.1008 12.2893C17.1078 12.4438 17.0532 12.5947 16.9489 12.7089C16.8447 12.8231 16.6993 12.8912 16.5449 12.8982C9.0584 13.2399 2.15674 13.702 2.10936 13.7067C2.08255 13.7093 2.0556 13.7101 2.02869 13.709Z" fill="#9DACCE"/>
<path d="M50.8432 13.709C50.9908 13.7031 51.1306 13.6413 51.2345 13.5362C51.3383 13.4311 51.3983 13.2905 51.4024 13.1428C51.4066 12.9951 51.3545 12.8514 51.2567 12.7407C51.1589 12.6299 51.0228 12.5604 50.8757 12.5462C50.828 12.5415 43.8994 12.0765 36.38 11.7334C36.2256 11.7264 36.0746 11.781 35.9604 11.8852C35.8462 11.9895 35.7781 12.1348 35.7711 12.2893C35.7641 12.4438 35.8187 12.5947 35.923 12.7089C36.0272 12.8231 36.1726 12.8912 36.327 12.8982C43.8135 13.2399 50.7152 13.702 50.7626 13.7067C50.7894 13.7093 50.8163 13.7101 50.8432 13.709Z" fill="#9DACCE"/>
<path d="M14.8589 29.3039C16.5734 30.4253 17.9977 31.9758 18.7426 34.1177L18.6506 7.87427C18.6506 7.87427 12.5845 10.3455 14.8589 29.3039Z" fill="#9DACCE"/>
<path d="M34.3496 7.93933L34.2578 34.1175C34.9824 32.0341 36.35 30.5108 38.0019 29.397C40.1073 12.0066 35.215 8.42958 34.3496 7.93933Z" fill="#9DACCE"/>
<path d="M36.5725 15.9675C36.2947 10.0408 34.3495 7.87427 34.3495 7.87427H18.6509C18.6509 7.87427 16.7057 10.0408 16.4276 15.9675C16.1655 21.5593 15.821 34.076 20.7609 42.3946C21.1421 43.0403 21.6541 43.5992 22.2639 44.0355C22.8737 44.4718 23.568 44.7758 24.3022 44.9281C25.7542 45.207 27.246 45.207 28.698 44.9281C29.4322 44.7758 30.1264 44.4718 30.7363 44.0355C31.3461 43.5992 31.858 43.0403 32.2392 42.3946C37.1793 34.076 36.8351 21.5593 36.5725 15.9675Z" fill="#F5F7FF"/>
<path d="M33.1342 18.0605C33.1345 17.2894 32.8851 16.539 32.4232 15.9216C31.9613 15.3042 31.3118 14.853 30.572 14.6356C29.8322 14.4183 29.0419 14.4465 28.3194 14.7159C27.5969 14.9854 26.9812 15.4816 26.5644 16.1303L24.3252 19.1926C24.2794 19.2543 24.2464 19.3245 24.2279 19.3991C24.2093 19.4737 24.2058 19.5512 24.2173 19.6272C24.2289 19.7032 24.2554 19.7761 24.2952 19.8418C24.3351 19.9076 24.3875 19.9647 24.4496 20.0101C24.5116 20.0555 24.582 20.0881 24.6567 20.1062C24.7314 20.1242 24.8089 20.1274 24.8848 20.1153C24.9607 20.1033 25.0335 20.0764 25.099 20.0362C25.1645 19.9959 25.2213 19.9431 25.2663 19.8808L26.0698 18.782C26.091 18.8839 26.1147 18.985 26.144 19.0847C26.1886 19.2325 26.29 19.3566 26.4259 19.4297C26.5619 19.5029 26.7213 19.5191 26.8692 19.4749C27.0171 19.4307 27.1414 19.3296 27.2149 19.1938C27.2884 19.0581 27.305 18.8987 27.2612 18.7507C27.1641 18.4254 27.137 18.0833 27.1816 17.7469C27.2263 17.4104 27.3416 17.0872 27.52 16.7985C27.52 16.7985 28.2302 15.5854 29.5643 15.657C30.8877 15.7281 31.9678 16.7353 31.9678 18.0605C31.9683 18.6209 31.7721 19.1637 31.4134 19.5942L31.0734 19.9294C30.6468 20.2757 30.1138 20.4645 29.5643 20.464C29.3969 20.4641 29.23 20.4468 29.0661 20.4124C28.9912 20.3965 28.9138 20.3954 28.8384 20.4094C28.763 20.4234 28.6912 20.4521 28.6269 20.4939C28.5627 20.5357 28.5073 20.5897 28.4639 20.6529C28.4206 20.7161 28.3901 20.7873 28.3743 20.8623C28.3585 20.9373 28.3576 21.0147 28.3717 21.09C28.3858 21.1653 28.4147 21.2372 28.4566 21.3013C28.4984 21.3655 28.5526 21.4208 28.6159 21.464C28.6792 21.5073 28.7504 21.5376 28.8254 21.5533C29.0001 21.5899 29.1772 21.6133 29.3554 21.6235L25.0836 25.8356C24.974 25.231 24.6614 24.6819 24.1974 24.2791C23.7334 23.8763 23.1459 23.6438 22.5319 23.6202L22.9439 23.0568C23.0352 22.932 23.0731 22.776 23.0494 22.6232C23.0257 22.4704 22.9423 22.3333 22.8175 22.242C22.7557 22.1968 22.6856 22.1643 22.6112 22.1461C22.5368 22.128 22.4596 22.1248 22.3839 22.1365C22.2311 22.1602 22.094 22.2436 22.0027 22.3684L20.459 24.4795C19.9871 24.9837 19.7271 25.65 19.7325 26.3406C19.738 27.0311 20.0086 27.6932 20.4883 28.1899C20.9681 28.6866 21.6204 28.9799 22.3104 29.0093C23.0003 29.0386 23.6752 28.8017 24.1954 28.3476C24.1966 28.3465 24.1979 28.3458 24.199 28.3447L24.2007 28.3429C24.2855 28.2687 31.8626 20.7889 31.8626 20.7889C32.2609 20.4545 32.5811 20.037 32.8007 19.5656C33.0204 19.0943 33.1342 18.5805 33.1342 18.0605ZM20.903 26.3129C20.9025 26.0661 20.9618 25.8229 21.0757 25.6041C21.1896 25.3852 21.3549 25.1971 21.5573 25.056C21.7597 24.9148 21.9932 24.8248 22.238 24.7935C22.4828 24.7622 22.7315 24.7907 22.9629 24.8764C23.1943 24.9621 23.4015 25.1026 23.5668 25.2858C23.7321 25.469 23.8506 25.6894 23.9122 25.9284C23.9738 26.1673 23.9767 26.4177 23.9205 26.6579C23.8643 26.8982 23.7509 27.1214 23.5897 27.3083C23.5897 27.3083 23.0445 27.8924 22.4318 27.8417C21.592 27.772 20.903 27.1559 20.903 26.3129Z" fill="#7AAEED"/>
</svg>
