<svg width="29" height="28" viewBox="0 0 29 28" fill="none" xmlns="http://www.w3.org/2000/svg">
<ellipse cx="14.3345" cy="14" rx="14.3345" ry="14" fill="#C3BED6"/>
<path d="M22.9094 15.9606L16.7948 9.84601L17.0371 9.61046L17.0371 9.61048L17.0387 9.60886C17.5845 9.0537 17.5845 8.16882 17.0387 7.61365L17.0381 7.61305L15.7956 6.37055L15.7952 6.37017C15.5292 6.1069 15.1694 5.96002 14.7951 5.96178C14.4209 5.96355 14.0626 6.11378 13.799 6.37947C13.799 6.37951 13.7989 6.37955 13.7989 6.37959L13.4148 6.76372C12.2488 6.13482 10.8722 6.00762 9.6319 6.39872L9.60718 6.37709C8.71906 5.48263 7.26587 5.48348 6.37883 6.37966C5.49302 7.2746 5.48188 8.71853 6.37698 9.60728L6.39862 9.632C6.00751 10.8723 6.13472 12.2489 6.76362 13.4149L6.37963 13.7989C6.37956 13.7989 6.37948 13.799 6.37941 13.7991C6.24734 13.9296 6.14248 14.085 6.0709 14.2564C5.99928 14.4278 5.9624 14.6117 5.9624 14.7975C5.9624 14.9833 5.99928 15.1672 6.0709 15.3387C6.14246 15.5099 6.24729 15.6653 6.3793 15.7958C6.37941 15.7959 6.37952 15.796 6.37963 15.7962L7.61269 17.038L7.61355 17.0388C8.16871 17.5846 9.0536 17.5846 9.60876 17.0388L9.60878 17.0388L9.61036 17.0372L9.84596 16.7949L15.9686 22.9089C15.9687 22.909 15.9688 22.9091 15.9689 22.9092C16.516 23.4653 17.4108 23.4643 17.9656 22.9095L22.9094 17.9657C23.4647 17.4104 23.4647 16.5159 22.9094 15.9606ZM7.81468 10.1967L7.81481 10.1967L7.816 10.1917C7.88335 9.90543 8.00147 9.62651 8.16267 9.36352L8.20387 9.2963L8.14812 9.24055L7.44812 8.54055L7.44815 8.54052L7.44597 8.53846C7.36455 8.46178 7.30451 8.3652 7.27178 8.25824L7.272 8.25818L7.26956 8.2518C7.16919 7.98929 7.22379 7.66483 7.44687 7.44945C7.67376 7.23038 7.99181 7.1703 8.25169 7.26967L8.25156 7.27002L8.25993 7.27241C8.36209 7.3016 8.45288 7.36065 8.54045 7.44822L9.24045 8.14822L9.29619 8.20397L9.36341 8.16277C9.62641 8.00158 9.90533 7.88345 10.1916 7.8161L10.1916 7.81623L10.1966 7.81478C10.8792 7.61635 11.6063 7.64801 12.2669 7.90281L7.90271 12.267C7.64791 11.6064 7.61624 10.8793 7.81468 10.1967ZM17.0381 14.247L17.1088 14.1763L17.0381 14.1055L16.1106 13.178L16.0399 13.1073L15.9692 13.178L13.1779 15.9693L13.1072 16.04L13.1779 16.1107L14.1054 17.0382L14.1762 17.1089L14.2469 17.0382L17.0381 14.247ZM18.8931 16.1107L18.9635 16.0403L18.8935 15.9696L17.966 15.0334L17.8952 14.962L17.8242 15.033L15.0329 17.8243L14.9619 17.8953L15.0333 17.9661L15.9695 18.8936L16.0402 18.9636L16.1106 18.8932L18.8931 16.1107ZM15.7249 10.9227L21.7697 16.9675L16.9674 21.7698L10.9226 15.725L15.7249 10.9227ZM15.8982 8.61151L8.61141 15.8983L7.51858 14.7978L14.7977 7.51868L15.8982 8.61151Z" fill="white" stroke="white" stroke-width="0.2"/>
</svg>
