<svg width="29" height="28" viewBox="0 0 29 28" fill="none" xmlns="http://www.w3.org/2000/svg">
<ellipse cx="14.3345" cy="14" rx="14.3345" ry="14" fill="#C3BED6"/>
<path d="M24.0873 14.2471C23.7392 11.0121 22.1962 9.50006 20.9634 8.80006C20.4263 8.50299 19.8443 8.29102 19.2392 8.17206C18.2235 5.17206 15.7703 3.87206 13.7276 4.00706C12.9603 4.07526 12.2145 4.2917 11.5336 4.64379C10.8526 4.99588 10.2501 5.47661 9.76104 6.05806C8.90355 7.32405 8.57864 8.86412 8.85387 10.3581L5.50779 10.8901C5.21072 10.9373 4.94501 11.0978 4.76912 11.3363C4.59323 11.5749 4.52157 11.8719 4.56991 12.1621C4.61825 12.4522 4.78262 12.7117 5.02686 12.8835C5.27111 13.0553 5.57522 13.1253 5.8723 13.0781L12.075 12.0911C12.2237 12.0695 12.3665 12.0193 12.4952 11.9433C12.6238 11.8674 12.7357 11.7673 12.8244 11.6487C12.9131 11.5302 12.9767 11.3956 13.0117 11.2529C13.0467 11.1101 13.0522 10.962 13.0281 10.8171C13.0039 10.6722 12.9506 10.5334 12.871 10.4088C12.7915 10.2843 12.6874 10.1764 12.5648 10.0914C12.4422 10.0065 12.3036 9.94617 12.1569 9.914C12.0103 9.88184 11.8585 9.87846 11.7105 9.90406L11.087 10.0041C10.8956 9.0594 11.0786 8.07901 11.5989 7.26106C12.196 6.63823 13.0169 6.26549 13.8894 6.22106C14.4856 6.26073 15.06 6.45602 15.5526 6.78654C16.0452 7.11706 16.4379 7.57069 16.6897 8.10006C15.9965 8.18829 15.3137 8.34235 14.6511 8.56006C14.3756 8.66219 14.1515 8.86486 14.026 9.1253C13.9006 9.38575 13.8836 9.68361 13.9787 9.95604C14.0738 10.2285 14.2735 10.4542 14.5358 10.5855C14.798 10.7169 15.1022 10.7436 15.3842 10.6601C16.0872 10.3638 16.8463 10.2162 17.6119 10.2269C18.3774 10.2375 19.1319 10.4063 19.8259 10.7221C20.9522 11.3621 21.631 12.6221 21.8307 14.4801C21.8737 15.5632 21.4934 16.6217 20.7668 17.4411C19.8037 18.3842 18.5067 18.9305 17.1433 18.9671C16.4747 20.3811 14.7761 21.8671 13.6907 21.7791C13.3131 21.7207 12.952 21.5866 12.6302 21.385C12.3084 21.1834 12.0329 20.9189 11.8211 20.6081C11.2679 19.8606 10.9692 18.9623 10.9672 18.0401L11.7085 18.1591C12.0018 18.1991 12.2996 18.1256 12.5384 17.9544C12.7771 17.7832 12.938 17.5276 12.9867 17.2423C13.0354 16.9569 12.9681 16.6643 12.7992 16.4266C12.6302 16.189 12.373 16.0252 12.0822 15.9701L5.87947 14.9701C5.5846 14.9269 5.28418 14.9987 5.04308 15.1701C4.80199 15.3414 4.63957 15.5985 4.5909 15.8858C4.54223 16.1731 4.61122 16.4676 4.78296 16.7056C4.95471 16.9436 5.21543 17.1062 5.50882 17.1581L8.70745 17.6741C8.62798 19.1952 9.08477 20.697 10.0017 21.9291C10.4043 22.4992 10.9275 22.9784 11.5361 23.3341C12.1446 23.6899 12.8242 23.9139 13.529 23.9911C13.6245 23.9977 13.7211 24.0011 13.8187 24.0011C14.8369 23.9265 15.8161 23.5869 16.6543 23.0174C17.4926 22.448 18.1592 21.6695 18.5849 20.7631L18.6003 20.7821C20.5928 20.5951 21.286 20.3291 22.5279 18.8441C23.6403 17.5682 24.1997 15.9192 24.0873 14.2471Z" fill="white"/>
</svg>
