<svg width="67" height="67" viewBox="0 0 67 67" fill="none" xmlns="http://www.w3.org/2000/svg">
<path d="M26.1797 30.9102V17.3965C26.1797 12.4336 29.3594 8.97461 34 8.97461C38.6191 8.97461 41.7988 12.4336 41.7988 17.3965V30.9102C41.7988 35.8516 38.6191 39.332 34 39.332C29.3594 39.332 26.1797 35.8516 26.1797 30.9102ZM29.4238 30.9102C29.4238 34.0898 31.25 36.1309 34 36.1309C36.75 36.1309 38.5547 34.0898 38.5547 30.9102V17.3965C38.5547 14.2168 36.75 12.1758 34 12.1758C31.25 12.1758 29.4238 14.2168 29.4238 17.3965V30.9102ZM18.6172 31.6836V27.3223C18.6172 26.4199 19.3262 25.7109 20.2285 25.7109C21.1523 25.7109 21.8613 26.4199 21.8613 27.3223V31.5547C21.8613 38.8809 26.6309 43.7363 34 43.7363C41.3477 43.7363 46.1172 38.8809 46.1172 31.5547V27.3223C46.1172 26.4199 46.8477 25.7109 47.75 25.7109C48.6523 25.7109 49.3613 26.4199 49.3613 27.3223V31.6836C49.3613 40.1055 43.8184 46.0137 35.6113 46.7012V51.707H43.582C44.4844 51.707 45.2148 52.4375 45.2148 53.3398C45.2148 54.2422 44.4844 54.9512 43.582 54.9512H24.3965C23.4941 54.9512 22.7637 54.2422 22.7637 53.3398C22.7637 52.4375 23.4941 51.707 24.3965 51.707H32.3672V46.7012C24.1816 46.0137 18.6172 40.1055 18.6172 31.6836Z" fill="white"/>
</svg>
